STARTFONT 2.1
FONT -FontForge-Noto Mono-Book-R-Normal--28-200-100-100-P-169-ISO8859-1
SIZE 20 100 100
FONTBOUNDINGBOX 22 38 -4 -8
COMMENT "Generated by fontforge, http://fontforge.sourceforge.net"
COMMENT "Copyright 2007 Google Inc. All Rights Reserved."
STARTPROPERTIES 41
FOUNDRY "FontForge"
FAMILY_NAME "Noto Mono"
WEIGHT_NAME "Book"
SLANT "R"
SETWIDTH_NAME "Normal"
ADD_STYLE_NAME ""
PIXEL_SIZE 28
POINT_SIZE 200
RESOLUTION_X 100
RESOLUTION_Y 100
SPACING "P"
AVERAGE_WIDTH 169
CHARSET_REGISTRY "ISO8859"
CHARSET_ENCODING "1"
FONTNAME_REGISTRY ""
CHARSET_COLLECTIONS "ISO8859-2 ISO8859-5 ISO8859-7 ISO8859-9 ISO8859-4 ISOLatin1Encoding"
FONT_NAME "NotoMono"
FACE_NAME "Noto Mono"
COPYRIGHT "Copyright 2007 Google Inc. All Rights Reserved."
FONT_VERSION "1.00"
FONT_ASCENT 22
FONT_DESCENT 6
UNDERLINE_POSITION -3
UNDERLINE_THICKNESS 2
X_HEIGHT 14
CAP_HEIGHT 19
DEFAULT_CHAR 1
RAW_ASCENT 799
RAW_DESCENT 200
NORM_SPACE 17
RELATIVE_WEIGHT 40
RELATIVE_SETWIDTH 50
SUPERSCRIPT_X 0
SUPERSCRIPT_Y 13
SUPERSCRIPT_SIZE 18
SUBSCRIPT_X 0
SUBSCRIPT_Y 3
SUBSCRIPT_SIZE 18
FIGURE_WIDTH 17
AVG_LOWERCASE_WIDTH 170
AVG_UPPERCASE_WIDTH 170
ENDPROPERTIES
CHARS 897
STARTCHAR uni0000
ENCODING 0
SWIDTH 0 0
DWIDTH 0 0
BBX 1 1 0 0
BITMAP
00
ENDCHAR
STARTCHAR uni000D
ENCODING 13
SWIDTH 600 0
DWIDTH 17 0
BBX 1 1 0 0
BITMAP
00
ENDCHAR
STARTCHAR space
ENCODING 32
SWIDTH 600 0
DWIDTH 17 0
BBX 1 1 0 0
BITMAP
00
ENDCHAR
STARTCHAR exclam
ENCODING 33
SWIDTH 600 0
DWIDTH 17 0
BBX 3 20 7 0
BITMAP
E0
E0
E0
E0
E0
E0
60
60
60
60
60
60
60
60
00
00
60
E0
E0
E0
ENDCHAR
STARTCHAR quotedbl
ENCODING 34
SWIDTH 600 0
DWIDTH 17 0
BBX 9 8 4 12
BITMAP
E380
E380
E380
E380
E380
E380
E380
6180
ENDCHAR
STARTCHAR numbersign
ENCODING 35
SWIDTH 600 0
DWIDTH 17 0
BBX 15 20 1 0
BITMAP
0618
0618
0618
0C10
0C30
0C30
7FFE
7FFE
0C30
0830
1860
1860
FFFC
FFFC
1860
1860
3060
30C0
30C0
30C0
ENDCHAR
STARTCHAR dollar
ENCODING 36
SWIDTH 600 0
DWIDTH 17 0
BBX 11 23 3 -2
BITMAP
0600
0600
1FC0
7FC0
F640
E600
C600
E600
E600
7E00
3F00
0F80
07C0
06E0
0660
0660
06E0
C7E0
FFC0
7F00
0600
0600
0600
ENDCHAR
STARTCHAR percent
ENCODING 37
SWIDTH 600 0
DWIDTH 17 0
BBX 17 20 0 0
BITMAP
3C0600
7E0C00
C71C00
C31800
C33800
C33000
C76000
7E6000
3CC000
00C000
018000
019E00
033F00
036380
066180
0E6180
0C6180
1C6380
183F00
301E00
ENDCHAR
STARTCHAR ampersand
ENCODING 38
SWIDTH 600 0
DWIDTH 17 0
BBX 16 20 1 0
BITMAP
0FC0
1FE0
3870
3870
3070
3870
38E0
1DC0
0F80
0F00
3F0E
738E
E1CC
E0EC
E07C
E078
E078
71FC
7FCE
1F87
ENDCHAR
STARTCHAR quotesingle
ENCODING 39
SWIDTH 600 0
DWIDTH 17 0
BBX 3 8 7 12
BITMAP
E0
E0
E0
E0
E0
E0
E0
60
ENDCHAR
STARTCHAR parenleft
ENCODING 40
SWIDTH 600 0
DWIDTH 17 0
BBX 8 24 4 -4
BITMAP
03
06
0C
18
38
30
70
60
E0
E0
E0
E0
E0
E0
E0
E0
60
70
30
38
18
0C
06
03
ENDCHAR
STARTCHAR parenright
ENCODING 41
SWIDTH 600 0
DWIDTH 17 0
BBX 8 24 5 -4
BITMAP
C0
60
30
38
1C
0C
0E
06
07
07
07
07
07
07
07
07
06
0E
0C
1C
18
30
60
C0
ENDCHAR
STARTCHAR asterisk
ENCODING 42
SWIDTH 600 0
DWIDTH 17 0
BBX 13 13 2 8
BITMAP
0700
0700
0700
0300
C318
FFF8
FFF8
0700
0D80
1DC0
18E0
38E0
1840
ENDCHAR
STARTCHAR plus
ENCODING 43
SWIDTH 600 0
DWIDTH 17 0
BBX 12 12 2 4
BITMAP
0600
0600
0600
0600
0600
FFF0
FFF0
0600
0600
0600
0600
0600
ENDCHAR
STARTCHAR comma
ENCODING 44
SWIDTH 600 0
DWIDTH 17 0
BBX 5 8 6 -4
BITMAP
38
78
70
70
70
60
E0
C0
ENDCHAR
STARTCHAR hyphen
ENCODING 45
SWIDTH 600 0
DWIDTH 17 0
BBX 9 2 4 7
BITMAP
FF80
FF80
ENDCHAR
STARTCHAR period
ENCODING 46
SWIDTH 600 0
DWIDTH 17 0
BBX 4 5 6 0
BITMAP
60
F0
F0
F0
60
ENDCHAR
STARTCHAR slash
ENCODING 47
SWIDTH 600 0
DWIDTH 17 0
BBX 11 20 3 0
BITMAP
00E0
00C0
01C0
01C0
0180
0380
0300
0700
0600
0E00
0E00
0C00
1C00
1800
3800
3000
7000
7000
6000
E000
ENDCHAR
STARTCHAR zero
ENCODING 48
SWIDTH 600 0
DWIDTH 17 0
BBX 13 20 2 0
BITMAP
0F80
3FC0
38E0
7070
6030
E038
E038
E038
E038
E038
E038
E038
E038
E038
E038
6030
7070
38E0
3FE0
0F80
ENDCHAR
STARTCHAR one
ENCODING 49
SWIDTH 600 0
DWIDTH 17 0
BBX 7 20 3 0
BITMAP
06
1E
3E
76
E6
46
06
06
06
06
06
06
06
06
06
06
06
06
06
06
ENDCHAR
STARTCHAR two
ENCODING 50
SWIDTH 600 0
DWIDTH 17 0
BBX 13 20 2 0
BITMAP
1F80
7FC0
F0E0
4070
0070
0070
0070
0070
0060
00E0
01C0
0380
0700
0E00
1C00
3800
7000
E000
FFF8
FFF8
ENDCHAR
STARTCHAR three
ENCODING 51
SWIDTH 600 0
DWIDTH 17 0
BBX 13 20 2 0
BITMAP
1F80
7FE0
F0E0
4070
0070
0070
0070
0060
01E0
1F80
1FC0
00F0
0038
0038
0038
0038
0038
E0F0
FFE0
7F80
ENDCHAR
STARTCHAR four
ENCODING 52
SWIDTH 600 0
DWIDTH 17 0
BBX 15 20 1 0
BITMAP
0070
00F0
00F0
01B0
03B0
0730
0630
0C30
1C30
1830
3030
7030
E030
FFFE
FFFE
0030
0030
0030
0030
0030
ENDCHAR
STARTCHAR five
ENCODING 53
SWIDTH 600 0
DWIDTH 17 0
BBX 13 20 2 0
BITMAP
7FE0
7FE0
6000
E000
E000
E000
E000
C000
FF80
FFE0
00F0
0038
0038
0038
0038
0038
0030
C0F0
FFE0
7F80
ENDCHAR
STARTCHAR six
ENCODING 54
SWIDTH 600 0
DWIDTH 17 0
BBX 13 20 2 0
BITMAP
07E0
0FE0
3E00
3800
7000
6000
E000
E000
E7C0
FFE0
F870
E038
E038
E018
E018
6038
7030
3870
1FE0
0F80
ENDCHAR
STARTCHAR seven
ENCODING 55
SWIDTH 600 0
DWIDTH 17 0
BBX 13 20 2 0
BITMAP
FFF8
FFF8
0038
0030
0070
0070
0060
00E0
00C0
01C0
01C0
0180
0380
0300
0700
0700
0E00
0E00
0C00
1C00
ENDCHAR
STARTCHAR eight
ENCODING 56
SWIDTH 600 0
DWIDTH 17 0
BBX 13 20 2 0
BITMAP
0F80
3FE0
78E0
7070
6030
6030
7070
38E0
1FC0
0F80
3DE0
70F0
6030
E038
C018
C038
E038
7070
3FE0
1F80
ENDCHAR
STARTCHAR nine
ENCODING 57
SWIDTH 600 0
DWIDTH 17 0
BBX 13 20 2 0
BITMAP
0F80
3FC0
70E0
E070
E030
C038
C038
E038
E038
7078
3FF8
1F38
0038
0030
0030
0070
00E0
01E0
3FC0
3F00
ENDCHAR
STARTCHAR colon
ENCODING 58
SWIDTH 600 0
DWIDTH 17 0
BBX 3 15 7 0
BITMAP
E0
E0
E0
E0
00
00
00
00
00
00
00
E0
E0
E0
E0
ENDCHAR
STARTCHAR semicolon
ENCODING 59
SWIDTH 600 0
DWIDTH 17 0
BBX 5 19 5 -4
BITMAP
38
38
38
38
00
00
00
00
00
00
00
00
38
78
70
70
60
E0
C0
ENDCHAR
STARTCHAR less
ENCODING 60
SWIDTH 600 0
DWIDTH 17 0
BBX 13 14 2 3
BITMAP
0008
0038
00F0
03C0
0F00
3C00
F000
F000
3C00
0F00
03C0
00F0
0038
0008
ENDCHAR
STARTCHAR equal
ENCODING 61
SWIDTH 600 0
DWIDTH 17 0
BBX 13 8 2 6
BITMAP
FFF8
FFF8
0000
0000
0000
0000
FFF8
FFF8
ENDCHAR
STARTCHAR greater
ENCODING 62
SWIDTH 600 0
DWIDTH 17 0
BBX 13 14 2 3
BITMAP
8000
E000
7800
1E00
0780
01E0
0078
0078
01E0
0780
1E00
7800
E000
8000
ENDCHAR
STARTCHAR question
ENCODING 63
SWIDTH 600 0
DWIDTH 17 0
BBX 13 20 2 0
BITMAP
3FC0
FFE0
7070
0038
0038
0038
0038
0070
00E0
01C0
0380
0700
0600
0600
0000
0000
0400
0E00
0E00
0E00
ENDCHAR
STARTCHAR at
ENCODING 64
SWIDTH 600 0
DWIDTH 17 0
BBX 17 22 0 -2
BITMAP
03F000
0FFC00
1C0E00
380600
700300
61FB00
63F980
C61980
CE1980
CC1980
CC1980
CC1980
CC1980
CC3980
C63900
E7EF00
63C600
700000
300000
1C0600
0FFE00
03F800
ENDCHAR
STARTCHAR A
ENCODING 65
SWIDTH 600 0
DWIDTH 17 0
BBX 17 20 0 0
BITMAP
01C000
01C000
03E000
036000
036000
077000
063000
0E3800
0E3800
0C1800
1C1C00
1C1C00
1FFC00
3FFE00
380E00
300600
700700
700700
600300
E00380
ENDCHAR
STARTCHAR B
ENCODING 66
SWIDTH 600 0
DWIDTH 17 0
BBX 14 20 2 0
BITMAP
FFC0
FFF0
E0F8
E038
E038
E038
E038
E070
FFE0
FFE0
E078
E018
E01C
E01C
E01C
E01C
E03C
E078
FFF0
FFC0
ENDCHAR
STARTCHAR C
ENCODING 67
SWIDTH 600 0
DWIDTH 17 0
BBX 14 20 2 0
BITMAP
03F0
0FFC
1E18
3800
7000
7000
E000
E000
E000
E000
E000
E000
E000
E000
6000
7000
7800
3E18
1FF8
07F0
ENDCHAR
STARTCHAR D
ENCODING 68
SWIDTH 600 0
DWIDTH 17 0
BBX 14 20 2 0
BITMAP
FF00
FFC0
E3E0
E070
E038
E038
E01C
E01C
E01C
E01C
E01C
E01C
E01C
E01C
E038
E038
E070
E3E0
FFC0
FF00
ENDCHAR
STARTCHAR E
ENCODING 69
SWIDTH 600 0
DWIDTH 17 0
BBX 12 20 3 0
BITMAP
FFF0
FFF0
E000
E000
E000
E000
E000
E000
FFE0
FFE0
E000
E000
E000
E000
E000
E000
E000
E000
FFF0
FFF0
ENDCHAR
STARTCHAR F
ENCODING 70
SWIDTH 600 0
DWIDTH 17 0
BBX 12 20 3 0
BITMAP
FFF0
FFF0
E000
E000
E000
E000
E000
E000
E000
FFE0
FFE0
E000
E000
E000
E000
E000
E000
E000
E000
E000
ENDCHAR
STARTCHAR G
ENCODING 71
SWIDTH 600 0
DWIDTH 17 0
BBX 13 20 2 0
BITMAP
07E0
1FF8
3E30
3800
7000
6000
E000
E000
E000
E1F8
E1F8
E038
E038
E038
6038
7038
7838
3E78
1FF8
07E0
ENDCHAR
STARTCHAR H
ENCODING 72
SWIDTH 600 0
DWIDTH 17 0
BBX 13 20 2 0
BITMAP
E038
E038
E038
E038
E038
E038
E038
E038
FFF8
FFF8
E038
E038
E038
E038
E038
E038
E038
E038
E038
E038
ENDCHAR
STARTCHAR I
ENCODING 73
SWIDTH 600 0
DWIDTH 17 0
BBX 11 20 3 0
BITMAP
FFE0
FFE0
0E00
0E00
0E00
0E00
0E00
0E00
0E00
0E00
0E00
0E00
0E00
0E00
0E00
0E00
0E00
0E00
FFE0
FFE0
ENDCHAR
STARTCHAR J
ENCODING 74
SWIDTH 600 0
DWIDTH 17 0
BBX 12 20 2 0
BITMAP
0070
0070
0070
0070
0070
0070
0070
0070
0070
0070
0070
0070
0070
0070
0070
0070
00E0
C3E0
FFC0
7F00
ENDCHAR
STARTCHAR K
ENCODING 75
SWIDTH 600 0
DWIDTH 17 0
BBX 13 20 3 0
BITMAP
E038
E070
E0E0
E0C0
E1C0
E380
E700
EE00
EC00
FE00
FE00
E700
E300
E380
E1C0
E0C0
E0E0
E070
E070
E038
ENDCHAR
STARTCHAR L
ENCODING 76
SWIDTH 600 0
DWIDTH 17 0
BBX 12 20 3 0
BITMAP
E000
E000
E000
E000
E000
E000
E000
E000
E000
E000
E000
E000
E000
E000
E000
E000
E000
E000
FFF0
FFF0
ENDCHAR
STARTCHAR M
ENCODING 77
SWIDTH 600 0
DWIDTH 17 0
BBX 13 20 2 0
BITMAP
E038
F078
F078
F078
F078
D058
D0D8
D8D8
D8D8
D8D8
C898
C998
CD98
CD98
CD98
C518
C718
C718
C718
C718
ENDCHAR
STARTCHAR N
ENCODING 78
SWIDTH 600 0
DWIDTH 17 0
BBX 13 20 2 0
BITMAP
E018
F018
F018
F818
D818
DC18
CC18
CC18
C618
C618
C318
C318
C198
C198
C1D8
C0D8
C0F8
C078
C078
C038
ENDCHAR
STARTCHAR O
ENCODING 79
SWIDTH 600 0
DWIDTH 17 0
BBX 15 20 1 0
BITMAP
07C0
1FF0
3C78
701C
701C
E00C
E00E
E00E
E00E
E00E
E00E
E00E
E00E
E00E
600C
701C
701C
3C78
1FF0
0FC0
ENDCHAR
STARTCHAR P
ENCODING 80
SWIDTH 600 0
DWIDTH 17 0
BBX 13 20 2 0
BITMAP
FF80
FFE0
E0F0
E078
E038
E038
E038
E038
E038
E0F0
FFE0
FF80
E000
E000
E000
E000
E000
E000
E000
E000
ENDCHAR
STARTCHAR Q
ENCODING 81
SWIDTH 600 0
DWIDTH 17 0
BBX 15 25 1 -5
BITMAP
07C0
1FF0
3C78
701C
701C
E00C
E00E
E00E
E00E
E00E
E00E
E00E
E00E
E00E
600C
701C
701C
3C78
1FF0
0FE0
0070
0078
003C
001E
0004
ENDCHAR
STARTCHAR R
ENCODING 82
SWIDTH 600 0
DWIDTH 17 0
BBX 13 20 3 0
BITMAP
FF00
FFC0
E1E0
E070
E070
E070
E070
E070
E060
E1E0
FFC0
FF00
E380
E380
E1C0
E0E0
E0E0
E070
E070
E038
ENDCHAR
STARTCHAR S
ENCODING 83
SWIDTH 600 0
DWIDTH 17 0
BBX 13 20 2 0
BITMAP
0FE0
3FF8
7870
E000
E000
E000
E000
7000
7C00
1F80
07E0
01F0
0078
0038
0038
0038
0038
E0F0
FFE0
7F80
ENDCHAR
STARTCHAR T
ENCODING 84
SWIDTH 600 0
DWIDTH 17 0
BBX 14 20 1 0
BITMAP
FFFC
FFFC
0380
0380
0380
0380
0380
0380
0380
0380
0380
0380
0380
0380
0380
0380
0380
0380
0380
0380
ENDCHAR
STARTCHAR U
ENCODING 85
SWIDTH 600 0
DWIDTH 17 0
BBX 13 20 2 0
BITMAP
E038
E038
E038
E038
E038
E038
E038
E038
E038
E038
E038
E038
E038
E038
E038
E038
7070
78F0
3FE0
1F80
ENDCHAR
STARTCHAR V
ENCODING 86
SWIDTH 600 0
DWIDTH 17 0
BBX 17 20 0 0
BITMAP
E00380
600300
700700
700700
300600
380E00
380E00
180C00
1C1C00
1C1C00
0C1800
0E3800
063800
063000
077000
036000
036000
03E000
01C000
01C000
ENDCHAR
STARTCHAR W
ENCODING 87
SWIDTH 600 0
DWIDTH 17 0
BBX 17 20 0 0
BITMAP
C00180
E00180
E00380
600380
600300
600300
61C300
61C300
714300
736300
336300
336300
333700
363600
363600
361E00
341E00
1C1E00
1C0E00
1C0E00
ENDCHAR
STARTCHAR X
ENCODING 88
SWIDTH 600 0
DWIDTH 17 0
BBX 15 20 1 0
BITMAP
E00E
701C
3018
3838
1830
1C70
0EE0
06C0
07C0
0380
0380
07C0
0EE0
0CE0
1C70
1830
3838
701C
601C
E00E
ENDCHAR
STARTCHAR Y
ENCODING 89
SWIDTH 600 0
DWIDTH 17 0
BBX 16 20 0 0
BITMAP
E007
700E
700E
381C
181C
1C38
0C38
0E70
0660
03E0
03C0
01C0
01C0
01C0
01C0
01C0
01C0
01C0
01C0
01C0
ENDCHAR
STARTCHAR Z
ENCODING 90
SWIDTH 600 0
DWIDTH 17 0
BBX 15 20 1 0
BITMAP
FFFE
FFFE
000E
001C
0038
0030
0070
00E0
01C0
0180
0300
0700
0E00
1C00
1800
3800
7000
E000
FFFE
FFFE
ENDCHAR
STARTCHAR bracketleft
ENCODING 91
SWIDTH 600 0
DWIDTH 17 0
BBX 7 24 6 -4
BITMAP
FE
FE
C0
C0
C0
C0
C0
C0
C0
C0
C0
C0
C0
C0
C0
C0
C0
C0
C0
C0
C0
C0
FE
FE
ENDCHAR
STARTCHAR backslash
ENCODING 92
SWIDTH 600 0
DWIDTH 17 0
BBX 11 20 3 0
BITMAP
E000
6000
6000
7000
3000
3800
1800
1C00
0C00
0E00
0E00
0600
0700
0300
0380
0180
01C0
01C0
00C0
00E0
ENDCHAR
STARTCHAR bracketright
ENCODING 93
SWIDTH 600 0
DWIDTH 17 0
BBX 7 24 4 -4
BITMAP
FE
FE
06
06
06
06
06
06
06
06
06
06
06
06
06
06
06
06
06
06
06
06
FE
FE
ENDCHAR
STARTCHAR asciicircum
ENCODING 94
SWIDTH 600 0
DWIDTH 17 0
BBX 13 13 2 7
BITMAP
0600
0600
0F00
0F00
1980
1980
18C0
30C0
3060
6060
6030
6030
C018
ENDCHAR
STARTCHAR underscore
ENCODING 95
SWIDTH 600 0
DWIDTH 17 0
BBX 17 2 0 -5
BITMAP
FFFF80
FFFF80
ENDCHAR
STARTCHAR grave
ENCODING 96
SWIDTH 600 0
DWIDTH 17 0
BBX 5 4 6 17
BITMAP
E0
70
30
18
ENDCHAR
STARTCHAR a
ENCODING 97
SWIDTH 600 0
DWIDTH 17 0
BBX 12 15 2 0
BITMAP
1F80
7FE0
30F0
0070
0070
0030
0FF0
7FF0
7030
E070
E070
E070
E0F0
7FB0
3E30
ENDCHAR
STARTCHAR b
ENCODING 98
SWIDTH 600 0
DWIDTH 17 0
BBX 13 21 2 0
BITMAP
C000
C000
C000
C000
C000
C000
CFC0
DFE0
F0F0
E070
E038
E038
E038
C038
E038
E038
E038
E070
F0F0
DFE0
CF80
ENDCHAR
STARTCHAR c
ENCODING 99
SWIDTH 600 0
DWIDTH 17 0
BBX 12 15 2 0
BITMAP
0FE0
3FF0
7820
7000
E000
E000
E000
E000
E000
E000
E000
7000
7830
3FF0
0FE0
ENDCHAR
STARTCHAR d
ENCODING 100
SWIDTH 600 0
DWIDTH 17 0
BBX 13 21 2 0
BITMAP
0018
0018
0018
0018
0018
0018
0F18
3FD8
78F8
6038
E038
E038
E038
E018
E038
E038
E038
6038
7878
3FD8
1F18
ENDCHAR
STARTCHAR e
ENCODING 101
SWIDTH 600 0
DWIDTH 17 0
BBX 13 15 2 0
BITMAP
0F80
3FE0
7870
6030
E038
E038
FFF8
FFF8
E000
E000
E000
7000
7830
3FF0
0FE0
ENDCHAR
STARTCHAR f
ENCODING 102
SWIDTH 600 0
DWIDTH 17 0
BBX 13 21 2 0
BITMAP
03F8
07F8
0E00
0E00
0C00
0C00
FFF0
FFF0
0C00
0C00
0C00
0C00
0C00
0C00
0C00
0C00
0C00
0C00
0C00
0C00
0C00
ENDCHAR
STARTCHAR g
ENCODING 103
SWIDTH 600 0
DWIDTH 17 0
BBX 14 22 2 -7
BITMAP
0FFC
3FFC
3060
7070
6030
6030
7070
3060
3FE0
0F80
1800
3000
3800
3FF0
1FF8
703C
E00C
C00C
C01C
E038
7FF0
1FC0
ENDCHAR
STARTCHAR h
ENCODING 104
SWIDTH 600 0
DWIDTH 17 0
BBX 13 21 2 0
BITMAP
C000
C000
C000
C000
C000
C000
C7C0
DFF0
F870
F038
E038
E018
E018
C018
C018
C018
C018
C018
C018
C018
C018
ENDCHAR
STARTCHAR i
ENCODING 105
SWIDTH 600 0
DWIDTH 17 0
BBX 12 21 2 0
BITMAP
0600
0700
0600
0000
0000
0000
7E00
7E00
0600
0600
0600
0600
0600
0600
0600
0600
0600
0600
0600
FFF0
FFF0
ENDCHAR
STARTCHAR j
ENCODING 106
SWIDTH 600 0
DWIDTH 17 0
BBX 10 28 2 -7
BITMAP
01C0
01C0
01C0
0000
0000
0000
3FC0
3FC0
00C0
00C0
00C0
00C0
00C0
00C0
00C0
00C0
00C0
00C0
00C0
00C0
00C0
00C0
00C0
01C0
01C0
0380
FF80
FE00
ENDCHAR
STARTCHAR k
ENCODING 107
SWIDTH 600 0
DWIDTH 17 0
BBX 13 21 3 0
BITMAP
C000
C000
C000
C000
C000
C000
C070
C0E0
C1C0
C380
C700
CE00
DC00
FE00
F700
C700
C380
C1C0
C0E0
C070
C038
ENDCHAR
STARTCHAR l
ENCODING 108
SWIDTH 600 0
DWIDTH 17 0
BBX 12 21 2 0
BITMAP
7E00
7E00
0600
0600
0600
0600
0600
0600
0600
0600
0600
0600
0600
0600
0600
0600
0600
0600
0600
FFF0
FFF0
ENDCHAR
STARTCHAR m
ENCODING 109
SWIDTH 600 0
DWIDTH 17 0
BBX 15 15 1 0
BITMAP
CE38
DF7C
E7CE
E38E
E38E
E386
C306
C306
C306
C306
C306
C306
C306
C306
C306
ENDCHAR
STARTCHAR n
ENCODING 110
SWIDTH 600 0
DWIDTH 17 0
BBX 13 15 2 0
BITMAP
C7C0
DFF0
F870
F038
E038
E018
E018
C018
C018
C018
C018
C018
C018
C018
C018
ENDCHAR
STARTCHAR o
ENCODING 111
SWIDTH 600 0
DWIDTH 17 0
BBX 13 15 2 0
BITMAP
0F80
3FE0
78F0
6070
E038
E038
E038
E038
E038
E038
E038
7070
78F0
3FE0
0F80
ENDCHAR
STARTCHAR p
ENCODING 112
SWIDTH 600 0
DWIDTH 17 0
BBX 13 22 2 -7
BITMAP
C7C0
DFE0
F0F0
E070
E038
E038
E038
C038
E038
E038
E038
E070
F0F0
DFE0
CFC0
C000
C000
C000
C000
C000
C000
C000
ENDCHAR
STARTCHAR q
ENCODING 113
SWIDTH 600 0
DWIDTH 17 0
BBX 13 22 2 -7
BITMAP
0F18
3FD8
78F8
6038
E038
E038
E038
E018
E038
E038
E038
6038
7878
3FD8
1F18
0018
0018
0018
0018
0018
0018
0018
ENDCHAR
STARTCHAR r
ENCODING 114
SWIDTH 600 0
DWIDTH 17 0
BBX 11 15 4 0
BITMAP
C7E0
CFE0
D840
F000
E000
E000
E000
C000
C000
C000
C000
C000
C000
C000
C000
ENDCHAR
STARTCHAR s
ENCODING 115
SWIDTH 600 0
DWIDTH 17 0
BBX 11 15 3 0
BITMAP
1FC0
7FE0
E0C0
C000
E000
F000
7E00
1F80
03C0
00E0
00E0
00E0
C1E0
FFC0
7F00
ENDCHAR
STARTCHAR t
ENCODING 116
SWIDTH 600 0
DWIDTH 17 0
BBX 12 19 2 0
BITMAP
0400
0400
0C00
0C00
7FF0
FFF0
0C00
0C00
0C00
0C00
0C00
0C00
0C00
0C00
0C00
0E00
0E00
07F0
03F0
ENDCHAR
STARTCHAR u
ENCODING 117
SWIDTH 600 0
DWIDTH 17 0
BBX 13 15 2 0
BITMAP
C018
C018
C018
C018
C018
C018
C018
C018
C038
C038
E038
E038
70F8
7FD8
1F18
ENDCHAR
STARTCHAR v
ENCODING 118
SWIDTH 600 0
DWIDTH 17 0
BBX 15 15 1 0
BITMAP
E00E
600C
701C
701C
3018
3838
1830
1C30
1C70
0C60
0EE0
06E0
06C0
07C0
0380
ENDCHAR
STARTCHAR w
ENCODING 119
SWIDTH 600 0
DWIDTH 17 0
BBX 17 15 0 0
BITMAP
C1C180
E1C180
614300
636300
636300
636300
636300
322600
363600
363600
363600
363600
141400
1C1C00
1C1C00
ENDCHAR
STARTCHAR x
ENCODING 120
SWIDTH 600 0
DWIDTH 17 0
BBX 15 15 1 0
BITMAP
700C
701C
3838
1C70
0EE0
06C0
07C0
0380
07C0
0EE0
1C70
1C70
3838
701C
E00E
ENDCHAR
STARTCHAR y
ENCODING 121
SWIDTH 600 0
DWIDTH 17 0
BBX 15 22 1 -7
BITMAP
E00E
600C
701C
701C
3018
3838
1830
1C70
0C70
0E60
0EE0
06C0
06C0
03C0
0380
0380
0300
0700
0700
0E00
FC00
F800
ENDCHAR
STARTCHAR z
ENCODING 122
SWIDTH 600 0
DWIDTH 17 0
BBX 12 15 2 0
BITMAP
FFF0
FFF0
0070
00E0
01C0
0380
0300
0600
0E00
1C00
3800
7000
6000
FFF0
FFF0
ENDCHAR
STARTCHAR braceleft
ENCODING 123
SWIDTH 600 0
DWIDTH 17 0
BBX 11 24 3 -4
BITMAP
00E0
03E0
0700
0700
0600
0600
0600
0600
0600
0600
1E00
FC00
FC00
1E00
0600
0600
0600
0600
0600
0600
0700
0700
03E0
00E0
ENDCHAR
STARTCHAR bar
ENCODING 124
SWIDTH 600 0
DWIDTH 17 0
BBX 2 28 7 -7
BITMAP
C0
C0
C0
C0
C0
C0
C0
C0
C0
C0
C0
C0
C0
C0
C0
C0
C0
C0
C0
C0
C0
C0
C0
C0
C0
C0
C0
C0
ENDCHAR
STARTCHAR braceright
ENCODING 125
SWIDTH 600 0
DWIDTH 17 0
BBX 11 24 3 -4
BITMAP
E000
F800
1C00
1C00
0C00
0C00
0C00
0C00
0C00
0C00
0F00
07E0
07E0
0F00
0C00
0C00
0C00
0C00
0C00
0C00
1C00
1C00
F800
E000
ENDCHAR
STARTCHAR asciitilde
ENCODING 126
SWIDTH 600 0
DWIDTH 17 0
BBX 13 4 2 8
BITMAP
7C08
FF18
C7F8
81F0
ENDCHAR
STARTCHAR uni00A0
ENCODING 160
SWIDTH 600 0
DWIDTH 17 0
BBX 1 1 0 0
BITMAP
00
ENDCHAR
STARTCHAR exclamdown
ENCODING 161
SWIDTH 600 0
DWIDTH 17 0
BBX 3 20 7 -5
BITMAP
E0
E0
E0
E0
00
00
60
60
60
60
60
60
60
60
E0
E0
E0
E0
E0
E0
ENDCHAR
STARTCHAR cent
ENCODING 162
SWIDTH 600 0
DWIDTH 17 0
BBX 12 20 2 0
BITMAP
0300
0300
0FF0
3FF0
7830
7000
E000
E000
E000
E000
E000
E000
E000
7000
7830
3FF0
0FE0
0300
0300
0300
ENDCHAR
STARTCHAR sterling
ENCODING 163
SWIDTH 600 0
DWIDTH 17 0
BBX 13 20 2 0
BITMAP
03E0
0FF0
1E30
1C00
1C00
1C00
1C00
1C00
1C00
FFC0
FFC0
1C00
1C00
1C00
1C00
1800
3800
7000
FFF8
FFF8
ENDCHAR
STARTCHAR currency
ENCODING 164
SWIDTH 600 0
DWIDTH 17 0
BBX 12 12 3 4
BITMAP
4020
EF70
7FE0
30C0
6060
6060
6060
6060
30C0
7FE0
EF70
4020
ENDCHAR
STARTCHAR yen
ENCODING 165
SWIDTH 600 0
DWIDTH 17 0
BBX 15 20 1 0
BITMAP
E00E
600C
701C
3038
3830
1870
1C60
0CE0
0EC0
07C0
3FF8
3FF8
0300
0300
3FF8
3FF8
0300
0300
0300
0300
ENDCHAR
STARTCHAR brokenbar
ENCODING 166
SWIDTH 600 0
DWIDTH 17 0
BBX 2 28 7 -7
BITMAP
C0
C0
C0
C0
C0
C0
C0
C0
C0
C0
C0
00
00
00
00
00
00
C0
C0
C0
C0
C0
C0
C0
C0
C0
C0
C0
ENDCHAR
STARTCHAR section
ENCODING 167
SWIDTH 600 0
DWIDTH 17 0
BBX 10 21 4 0
BITMAP
3F00
7FC0
E080
C000
E000
7800
3E00
7F80
C380
C1C0
C0C0
E0C0
79C0
3F80
0F80
03C0
01C0
00C0
81C0
FF80
7E00
ENDCHAR
STARTCHAR dieresis
ENCODING 168
SWIDTH 600 0
DWIDTH 17 0
BBX 8 3 4 18
BITMAP
C3
E7
C3
ENDCHAR
STARTCHAR copyright
ENCODING 169
SWIDTH 600 0
DWIDTH 17 0
BBX 17 20 0 0
BITMAP
07F000
0F7800
380E00
200600
63F300
47F100
CE1180
DC0180
D80180
980180
980180
D80180
DC0180
CE0180
47F100
63F300
300600
380E00
1F7800
07F000
ENDCHAR
STARTCHAR ordfeminine
ENCODING 170
SWIDTH 600 0
DWIDTH 17 0
BBX 9 9 4 11
BITMAP
3E00
7F80
0180
3F80
F980
C180
C380
FF80
7980
ENDCHAR
STARTCHAR guillemotleft
ENCODING 171
SWIDTH 600 0
DWIDTH 17 0
BBX 11 11 3 2
BITMAP
0840
1CE0
39C0
7380
6300
E700
6300
7380
39C0
1CE0
0840
ENDCHAR
STARTCHAR logicalnot
ENCODING 172
SWIDTH 600 0
DWIDTH 17 0
BBX 13 7 2 4
BITMAP
FFF8
FFF8
0018
0018
0018
0018
0018
ENDCHAR
STARTCHAR uni00AD
ENCODING 173
SWIDTH 600 0
DWIDTH 17 0
BBX 9 2 4 7
BITMAP
FF80
FF80
ENDCHAR
STARTCHAR registered
ENCODING 174
SWIDTH 600 0
DWIDTH 17 0
BBX 17 20 0 0
BITMAP
07F000
0F7800
380E00
200600
67E300
47F100
C63980
C61980
C63980
87F180
87E180
C66180
C63180
C63980
461900
661F00
300600
380E00
1F7800
07F000
ENDCHAR
STARTCHAR macron
ENCODING 175
SWIDTH 600 0
DWIDTH 17 0
BBX 17 2 0 21
BITMAP
FFFF80
FFFF80
ENDCHAR
STARTCHAR degree
ENCODING 176
SWIDTH 600 0
DWIDTH 17 0
BBX 9 9 4 11
BITMAP
3E00
7F00
E380
C180
C180
C180
E380
7F00
3E00
ENDCHAR
STARTCHAR plusminus
ENCODING 177
SWIDTH 600 0
DWIDTH 17 0
BBX 12 16 2 0
BITMAP
0600
0600
0600
0600
0600
FFF0
FFF0
0600
0600
0600
0600
0600
0000
0000
FFF0
FFF0
ENDCHAR
STARTCHAR uni00B2
ENCODING 178
SWIDTH 600 0
DWIDTH 17 0
BBX 7 11 5 9
BITMAP
7C
FE
06
06
06
0C
18
30
60
FE
FE
ENDCHAR
STARTCHAR uni00B3
ENCODING 179
SWIDTH 600 0
DWIDTH 17 0
BBX 7 11 5 9
BITMAP
7C
FE
06
06
06
38
1E
06
06
FE
FC
ENDCHAR
STARTCHAR acute
ENCODING 180
SWIDTH 600 0
DWIDTH 17 0
BBX 5 4 6 17
BITMAP
38
70
60
C0
ENDCHAR
STARTCHAR mu
ENCODING 181
SWIDTH 600 0
DWIDTH 17 0
BBX 13 22 2 -7
BITMAP
C018
C018
C018
C018
C018
C018
C018
C018
C038
C038
E038
E038
F0F8
FFD8
DF18
C000
C000
C000
C000
C000
C000
C000
ENDCHAR
STARTCHAR paragraph
ENCODING 182
SWIDTH 600 0
DWIDTH 17 0
BBX 14 25 1 -4
BITMAP
1FFC
3FFC
7FCC
7FCC
FFCC
FFCC
FFCC
FFCC
FFCC
FFCC
FFCC
7FCC
3FCC
1FCC
00CC
00CC
00CC
00CC
00CC
00CC
00CC
00CC
00CC
00CC
00CC
ENDCHAR
STARTCHAR periodcentered
ENCODING 183
SWIDTH 600 0
DWIDTH 17 0
BBX 3 4 7 8
BITMAP
E0
E0
E0
E0
ENDCHAR
STARTCHAR cedilla
ENCODING 184
SWIDTH 600 0
DWIDTH 17 0
BBX 5 7 6 -7
BITMAP
20
60
70
18
18
F8
F0
ENDCHAR
STARTCHAR uni00B9
ENCODING 185
SWIDTH 600 0
DWIDTH 17 0
BBX 5 11 5 9
BITMAP
38
78
D8
18
18
18
18
18
18
18
18
ENDCHAR
STARTCHAR ordmasculine
ENCODING 186
SWIDTH 600 0
DWIDTH 17 0
BBX 9 9 4 11
BITMAP
3E00
7F00
E380
C180
C180
C180
E380
7F00
3E00
ENDCHAR
STARTCHAR guillemotright
ENCODING 187
SWIDTH 600 0
DWIDTH 17 0
BBX 11 11 3 2
BITMAP
4200
E700
7380
31C0
18C0
1CE0
18C0
39C0
7380
E700
4200
ENDCHAR
STARTCHAR onequarter
ENCODING 188
SWIDTH 600 0
DWIDTH 17 0
BBX 16 20 0 0
BITMAP
3806
780C
D81C
1818
1838
1830
1860
1860
18C0
18C6
198E
019E
0316
0336
0666
0EC6
0CFF
1CFF
1806
3006
ENDCHAR
STARTCHAR onehalf
ENCODING 189
SWIDTH 600 0
DWIDTH 17 0
BBX 17 20 0 0
BITMAP
380C00
781800
D83800
183000
187000
186000
18C000
18C000
198000
199F00
1B3F80
030180
060180
060180
0C0300
1C0600
180C00
381800
303F80
603F80
ENDCHAR
STARTCHAR threequarters
ENCODING 190
SWIDTH 600 0
DWIDTH 17 0
BBX 16 20 1 0
BITMAP
7C06
FE0C
061C
0618
0638
3830
1E60
0660
06C0
FEC6
FD8E
019E
0316
0336
0666
0EC6
0CFF
1CFF
1806
3006
ENDCHAR
STARTCHAR questiondown
ENCODING 191
SWIDTH 600 0
DWIDTH 17 0
BBX 13 20 2 -5
BITMAP
0380
0380
0380
0100
0000
0000
0300
0300
0700
0E00
1C00
3800
7000
E000
E000
E000
E000
7078
7FF8
1FC0
ENDCHAR
STARTCHAR Agrave
ENCODING 192
SWIDTH 600 0
DWIDTH 17 0
BBX 17 26 0 0
BITMAP
070000
038000
018000
00C000
000000
000000
01C000
01C000
03E000
036000
036000
077000
063000
0E3800
0E3800
0C1800
1C1C00
1C1C00
1FFC00
3FFE00
380E00
300600
700700
700700
600300
E00380
ENDCHAR
STARTCHAR Aacute
ENCODING 193
SWIDTH 600 0
DWIDTH 17 0
BBX 17 26 0 0
BITMAP
003800
007000
006000
00C000
000000
000000
01C000
01C000
03E000
036000
036000
077000
063000
0E3800
0E3800
0C1800
1C1C00
1C1C00
1FFC00
3FFE00
380E00
300600
700700
700700
600300
E00380
ENDCHAR
STARTCHAR Acircumflex
ENCODING 194
SWIDTH 600 0
DWIDTH 17 0
BBX 17 26 0 0
BITMAP
01C000
03E000
077000
0C1800
000000
000000
01C000
01C000
03E000
036000
036000
077000
063000
0E3800
0E3800
0C1800
1C1C00
1C1C00
1FFC00
3FFE00
380E00
300600
700700
700700
600300
E00380
ENDCHAR
STARTCHAR Atilde
ENCODING 195
SWIDTH 600 0
DWIDTH 17 0
BBX 17 26 0 0
BITMAP
070C00
07CC00
0CF800
0C3800
000000
000000
01C000
01C000
03E000
036000
036000
077000
063000
0E3800
0E3800
0C1800
1C1C00
1C1C00
1FFC00
3FFE00
380E00
300600
700700
700700
600300
E00380
ENDCHAR
STARTCHAR Adieresis
ENCODING 196
SWIDTH 600 0
DWIDTH 17 0
BBX 17 26 0 0
BITMAP
061800
073800
061800
000000
000000
000000
01C000
01C000
03E000
036000
036000
077000
063000
0E3800
0E3800
0C1800
1C1C00
1C1C00
1FFC00
3FFE00
380E00
300600
700700
700700
600300
E00380
ENDCHAR
STARTCHAR Aring
ENCODING 197
SWIDTH 600 0
DWIDTH 17 0
BBX 17 25 0 0
BITMAP
01E000
03F000
033000
033000
03F000
01E000
01C000
03E000
036000
036000
077000
063000
0E3800
0E3800
0C1800
1C1C00
1C1C00
1FFC00
3FFE00
380E00
300600
700700
700700
600300
E00380
ENDCHAR
STARTCHAR AE
ENCODING 198
SWIDTH 600 0
DWIDTH 17 0
BBX 16 20 0 0
BITMAP
0FFF
0FFF
1DC0
19C0
19C0
19C0
19C0
39C0
31FE
31FE
31C0
31C0
7FC0
7FC0
61C0
61C0
61C0
E1C0
E1FF
C1FF
ENDCHAR
STARTCHAR Ccedilla
ENCODING 199
SWIDTH 600 0
DWIDTH 17 0
BBX 14 27 2 -7
BITMAP
03F0
0FFC
1E18
3800
7000
7000
E000
E000
E000
E000
E000
E000
E000
E000
6000
7000
7800
3E18
1FF8
07F0
0100
0300
0380
00C0
00C0
07C0
0780
ENDCHAR
STARTCHAR Egrave
ENCODING 200
SWIDTH 600 0
DWIDTH 17 0
BBX 12 26 3 0
BITMAP
3800
1C00
0C00
0600
0000
0000
FFF0
FFF0
E000
E000
E000
E000
E000
E000
FFE0
FFE0
E000
E000
E000
E000
E000
E000
E000
E000
FFF0
FFF0
ENDCHAR
STARTCHAR Eacute
ENCODING 201
SWIDTH 600 0
DWIDTH 17 0
BBX 12 26 3 0
BITMAP
0380
0700
0600
0C00
0000
0000
FFF0
FFF0
E000
E000
E000
E000
E000
E000
FFE0
FFE0
E000
E000
E000
E000
E000
E000
E000
E000
FFF0
FFF0
ENDCHAR
STARTCHAR Ecircumflex
ENCODING 202
SWIDTH 600 0
DWIDTH 17 0
BBX 12 26 3 0
BITMAP
0700
0F80
1DC0
3060
0000
0000
FFF0
FFF0
E000
E000
E000
E000
E000
E000
FFE0
FFE0
E000
E000
E000
E000
E000
E000
E000
E000
FFF0
FFF0
ENDCHAR
STARTCHAR Edieresis
ENCODING 203
SWIDTH 600 0
DWIDTH 17 0
BBX 12 26 3 0
BITMAP
30C0
39C0
30C0
0000
0000
0000
FFF0
FFF0
E000
E000
E000
E000
E000
E000
FFE0
FFE0
E000
E000
E000
E000
E000
E000
E000
E000
FFF0
FFF0
ENDCHAR
STARTCHAR Igrave
ENCODING 204
SWIDTH 600 0
DWIDTH 17 0
BBX 11 26 3 0
BITMAP
3800
1C00
0C00
0600
0000
0000
FFE0
FFE0
0E00
0E00
0E00
0E00
0E00
0E00
0E00
0E00
0E00
0E00
0E00
0E00
0E00
0E00
0E00
0E00
FFE0
FFE0
ENDCHAR
STARTCHAR Iacute
ENCODING 205
SWIDTH 600 0
DWIDTH 17 0
BBX 11 26 3 0
BITMAP
01C0
0380
0300
0600
0000
0000
FFE0
FFE0
0E00
0E00
0E00
0E00
0E00
0E00
0E00
0E00
0E00
0E00
0E00
0E00
0E00
0E00
0E00
0E00
FFE0
FFE0
ENDCHAR
STARTCHAR Icircumflex
ENCODING 206
SWIDTH 600 0
DWIDTH 17 0
BBX 11 26 3 0
BITMAP
0E00
1F00
3B80
60C0
0000
0000
FFE0
FFE0
0E00
0E00
0E00
0E00
0E00
0E00
0E00
0E00
0E00
0E00
0E00
0E00
0E00
0E00
0E00
0E00
FFE0
FFE0
ENDCHAR
STARTCHAR Idieresis
ENCODING 207
SWIDTH 600 0
DWIDTH 17 0
BBX 11 26 3 0
BITMAP
30C0
39C0
30C0
0000
0000
0000
FFE0
FFE0
0E00
0E00
0E00
0E00
0E00
0E00
0E00
0E00
0E00
0E00
0E00
0E00
0E00
0E00
0E00
0E00
FFE0
FFE0
ENDCHAR
STARTCHAR Eth
ENCODING 208
SWIDTH 600 0
DWIDTH 17 0
BBX 16 20 0 0
BITMAP
3FC0
3FF0
38F8
381C
380E
380E
3807
3807
3807
FFC7
FFC7
3807
3807
3807
380E
380E
381C
38F8
3FF0
3FC0
ENDCHAR
STARTCHAR Ntilde
ENCODING 209
SWIDTH 600 0
DWIDTH 17 0
BBX 13 26 2 0
BITMAP
1C30
1F30
33E0
30E0
0000
0000
E018
F018
F018
F818
D818
DC18
CC18
CC18
C618
C618
C318
C318
C198
C198
C1D8
C0D8
C0F8
C078
C078
C038
ENDCHAR
STARTCHAR Ograve
ENCODING 210
SWIDTH 600 0
DWIDTH 17 0
BBX 15 26 1 0
BITMAP
0E00
0700
0300
0180
0000
0000
07C0
1FF0
3C78
701C
701C
E00C
E00E
E00E
E00E
E00E
E00E
E00E
E00E
E00E
600C
701C
701C
3C78
1FF0
0FC0
ENDCHAR
STARTCHAR Oacute
ENCODING 211
SWIDTH 600 0
DWIDTH 17 0
BBX 15 26 1 0
BITMAP
00E0
01C0
0180
0300
0000
0000
07C0
1FF0
3C78
701C
701C
E00C
E00E
E00E
E00E
E00E
E00E
E00E
E00E
E00E
600C
701C
701C
3C78
1FF0
0FC0
ENDCHAR
STARTCHAR Ocircumflex
ENCODING 212
SWIDTH 600 0
DWIDTH 17 0
BBX 15 26 1 0
BITMAP
0380
07C0
0EE0
1830
0000
0000
07C0
1FF0
3C78
701C
701C
E00C
E00E
E00E
E00E
E00E
E00E
E00E
E00E
E00E
600C
701C
701C
3C78
1FF0
0FC0
ENDCHAR
STARTCHAR Otilde
ENCODING 213
SWIDTH 600 0
DWIDTH 17 0
BBX 15 26 1 0
BITMAP
0E18
0F98
19F0
1870
0000
0000
07C0
1FF0
3C78
701C
701C
E00C
E00E
E00E
E00E
E00E
E00E
E00E
E00E
E00E
600C
701C
701C
3C78
1FF0
0FC0
ENDCHAR
STARTCHAR Odieresis
ENCODING 214
SWIDTH 600 0
DWIDTH 17 0
BBX 15 26 1 0
BITMAP
0C30
0E70
0C30
0000
0000
0000
07C0
1FF0
3C78
701C
701C
E00C
E00E
E00E
E00E
E00E
E00E
E00E
E00E
E00E
600C
701C
701C
3C78
1FF0
0FC0
ENDCHAR
STARTCHAR multiply
ENCODING 215
SWIDTH 600 0
DWIDTH 17 0
BBX 11 11 3 4
BITMAP
C060
E0E0
71C0
3B80
1F00
0E00
1F00
3B80
71C0
E0E0
C060
ENDCHAR
STARTCHAR Oslash
ENCODING 216
SWIDTH 600 0
DWIDTH 17 0
BBX 15 22 1 -1
BITMAP
0004
07CE
1FFC
3C7C
701C
703C
E07C
E06E
E0EE
E1CE
E18E
E38E
E70E
E60E
EE0E
FC0C
781C
781C
7C78
7FF0
EFC0
4000
ENDCHAR
STARTCHAR Ugrave
ENCODING 217
SWIDTH 600 0
DWIDTH 17 0
BBX 13 26 2 0
BITMAP
1C00
0E00
0600
0300
0000
0000
E038
E038
E038
E038
E038
E038
E038
E038
E038
E038
E038
E038
E038
E038
E038
E038
7070
78F0
3FE0
1F80
ENDCHAR
STARTCHAR Uacute
ENCODING 218
SWIDTH 600 0
DWIDTH 17 0
BBX 13 26 2 0
BITMAP
01C0
0380
0300
0600
0000
0000
E038
E038
E038
E038
E038
E038
E038
E038
E038
E038
E038
E038
E038
E038
E038
E038
7070
78F0
3FE0
1F80
ENDCHAR
STARTCHAR Ucircumflex
ENCODING 219
SWIDTH 600 0
DWIDTH 17 0
BBX 13 26 2 0
BITMAP
0700
0F80
1DC0
3060
0000
0000
E038
E038
E038
E038
E038
E038
E038
E038
E038
E038
E038
E038
E038
E038
E038
E038
7070
78F0
3FE0
1F80
ENDCHAR
STARTCHAR Udieresis
ENCODING 220
SWIDTH 600 0
DWIDTH 17 0
BBX 13 26 2 0
BITMAP
1860
1CE0
1860
0000
0000
0000
E038
E038
E038
E038
E038
E038
E038
E038
E038
E038
E038
E038
E038
E038
E038
E038
7070
78F0
3FE0
1F80
ENDCHAR
STARTCHAR Yacute
ENCODING 221
SWIDTH 600 0
DWIDTH 17 0
BBX 16 26 0 0
BITMAP
0070
00E0
00C0
0180
0000
0000
E007
700E
700E
381C
181C
1C38
0C38
0E70
0660
03E0
03C0
01C0
01C0
01C0
01C0
01C0
01C0
01C0
01C0
01C0
ENDCHAR
STARTCHAR Thorn
ENCODING 222
SWIDTH 600 0
DWIDTH 17 0
BBX 13 20 2 0
BITMAP
E000
E000
E000
FF80
FFE0
E0F0
E078
E038
E038
E038
E038
E038
E070
E0F0
FFE0
FF80
E000
E000
E000
E000
ENDCHAR
STARTCHAR germandbls
ENCODING 223
SWIDTH 600 0
DWIDTH 17 0
BBX 14 21 2 0
BITMAP
1F80
7FE0
F0F0
E070
E070
C070
C0E0
C1C0
C380
C300
C300
C3C0
C1E0
C078
C038
C01C
C00C
C01C
CC3C
CFF8
C7E0
ENDCHAR
STARTCHAR agrave
ENCODING 224
SWIDTH 600 0
DWIDTH 17 0
BBX 12 21 2 0
BITMAP
1C00
0E00
0600
0300
0000
0000
1F80
7FE0
30F0
0070
0070
0030
0FF0
7FF0
7030
E070
E070
E070
E0F0
7FB0
3E30
ENDCHAR
STARTCHAR aacute
ENCODING 225
SWIDTH 600 0
DWIDTH 17 0
BBX 12 21 2 0
BITMAP
01C0
0380
0300
0600
0000
0000
1F80
7FE0
30F0
0070
0070
0030
0FF0
7FF0
7030
E070
E070
E070
E0F0
7FB0
3E30
ENDCHAR
STARTCHAR acircumflex
ENCODING 226
SWIDTH 600 0
DWIDTH 17 0
BBX 12 21 2 0
BITMAP
0700
0F80
1DC0
3060
0000
0000
1F80
7FE0
30F0
0070
0070
0030
0FF0
7FF0
7030
E070
E070
E070
E0F0
7FB0
3E30
ENDCHAR
STARTCHAR atilde
ENCODING 227
SWIDTH 600 0
DWIDTH 17 0
BBX 12 21 2 0
BITMAP
1C30
1F30
33E0
30E0
0000
0000
1F80
7FE0
30F0
0070
0070
0030
0FF0
7FF0
7030
E070
E070
E070
E0F0
7FB0
3E30
ENDCHAR
STARTCHAR adieresis
ENCODING 228
SWIDTH 600 0
DWIDTH 17 0
BBX 12 21 2 0
BITMAP
1860
1CE0
1860
0000
0000
0000
1F80
7FE0
30F0
0070
0070
0030
0FF0
7FF0
7030
E070
E070
E070
E0F0
7FB0
3E30
ENDCHAR
STARTCHAR aring
ENCODING 229
SWIDTH 600 0
DWIDTH 17 0
BBX 12 23 2 0
BITMAP
0780
0FC0
0CC0
0CC0
0FC0
0780
0000
0000
1F80
7FE0
30F0
0070
0070
0030
0FF0
7FF0
7030
E070
E070
E070
E0F0
7FB0
3E30
ENDCHAR
STARTCHAR ae
ENCODING 230
SWIDTH 600 0
DWIDTH 17 0
BBX 15 15 1 0
BITMAP
3C78
7EFC
67CC
038E
038E
0386
3FFE
7FFE
E300
E380
C380
E380
E6C6
7CFE
387C
ENDCHAR
STARTCHAR ccedilla
ENCODING 231
SWIDTH 600 0
DWIDTH 17 0
BBX 12 22 2 -7
BITMAP
0FE0
3FF0
7820
7000
E000
E000
E000
E000
E000
E000
E000
7000
7830
3FF0
0FE0
0200
0600
0700
0180
0180
0F80
0F00
ENDCHAR
STARTCHAR egrave
ENCODING 232
SWIDTH 600 0
DWIDTH 17 0
BBX 13 21 2 0
BITMAP
0E00
0700
0300
0180
0000
0000
0F80
3FE0
7870
6030
E038
E038
FFF8
FFF8
E000
E000
E000
7000
7830
3FF0
0FE0
ENDCHAR
STARTCHAR eacute
ENCODING 233
SWIDTH 600 0
DWIDTH 17 0
BBX 13 21 2 0
BITMAP
01C0
0380
0300
0600
0000
0000
0F80
3FE0
7870
6030
E038
E038
FFF8
FFF8
E000
E000
E000
7000
7830
3FF0
0FE0
ENDCHAR
STARTCHAR ecircumflex
ENCODING 234
SWIDTH 600 0
DWIDTH 17 0
BBX 13 21 2 0
BITMAP
0700
0F80
1DC0
3060
0000
0000
0F80
3FE0
7870
6030
E038
E038
FFF8
FFF8
E000
E000
E000
7000
7830
3FF0
0FE0
ENDCHAR
STARTCHAR edieresis
ENCODING 235
SWIDTH 600 0
DWIDTH 17 0
BBX 13 21 2 0
BITMAP
1860
1CE0
1860
0000
0000
0000
0F80
3FE0
7870
6030
E038
E038
FFF8
FFF8
E000
E000
E000
7000
7830
3FF0
0FE0
ENDCHAR
STARTCHAR igrave
ENCODING 236
SWIDTH 600 0
DWIDTH 17 0
BBX 12 21 2 0
BITMAP
1C00
0E00
0600
0300
0000
0000
7E00
7E00
0600
0600
0600
0600
0600
0600
0600
0600
0600
0600
0600
FFF0
FFF0
ENDCHAR
STARTCHAR iacute
ENCODING 237
SWIDTH 600 0
DWIDTH 17 0
BBX 12 21 2 0
BITMAP
01C0
0380
0300
0600
0000
0000
7E00
7E00
0600
0600
0600
0600
0600
0600
0600
0600
0600
0600
0600
FFF0
FFF0
ENDCHAR
STARTCHAR icircumflex
ENCODING 238
SWIDTH 600 0
DWIDTH 17 0
BBX 12 21 2 0
BITMAP
0700
0F80
1DC0
3060
0000
0000
7E00
7E00
0600
0600
0600
0600
0600
0600
0600
0600
0600
0600
0600
FFF0
FFF0
ENDCHAR
STARTCHAR idieresis
ENCODING 239
SWIDTH 600 0
DWIDTH 17 0
BBX 12 21 2 0
BITMAP
30C0
39C0
30C0
0000
0000
0000
7E00
7E00
0600
0600
0600
0600
0600
0600
0600
0600
0600
0600
0600
FFF0
FFF0
ENDCHAR
STARTCHAR eth
ENCODING 240
SWIDTH 600 0
DWIDTH 17 0
BBX 13 21 2 0
BITMAP
0C20
0EF0
07C0
07C0
1EE0
0860
0070
0030
1FB0
3FF8
78F8
E038
E038
E038
E038
E038
E038
6030
70F0
3FE0
0F80
ENDCHAR
STARTCHAR ntilde
ENCODING 241
SWIDTH 600 0
DWIDTH 17 0
BBX 13 21 2 0
BITMAP
1C30
1F30
33E0
30E0
0000
0000
C7C0
DFF0
F870
F038
E038
E018
E018
C018
C018
C018
C018
C018
C018
C018
C018
ENDCHAR
STARTCHAR ograve
ENCODING 242
SWIDTH 600 0
DWIDTH 17 0
BBX 13 21 2 0
BITMAP
0E00
0700
0300
0180
0000
0000
0F80
3FE0
78F0
6070
E038
E038
E038
E038
E038
E038
E038
7070
78F0
3FE0
0F80
ENDCHAR
STARTCHAR oacute
ENCODING 243
SWIDTH 600 0
DWIDTH 17 0
BBX 13 21 2 0
BITMAP
01C0
0380
0300
0600
0000
0000
0F80
3FE0
78F0
6070
E038
E038
E038
E038
E038
E038
E038
7070
78F0
3FE0
0F80
ENDCHAR
STARTCHAR ocircumflex
ENCODING 244
SWIDTH 600 0
DWIDTH 17 0
BBX 13 21 2 0
BITMAP
0700
0F80
1DC0
3060
0000
0000
0F80
3FE0
78F0
6070
E038
E038
E038
E038
E038
E038
E038
7070
78F0
3FE0
0F80
ENDCHAR
STARTCHAR otilde
ENCODING 245
SWIDTH 600 0
DWIDTH 17 0
BBX 13 21 2 0
BITMAP
1C30
1F30
33E0
30E0
0000
0000
0F80
3FE0
78F0
6070
E038
E038
E038
E038
E038
E038
E038
7070
78F0
3FE0
0F80
ENDCHAR
STARTCHAR odieresis
ENCODING 246
SWIDTH 600 0
DWIDTH 17 0
BBX 13 21 2 0
BITMAP
1860
1CE0
1860
0000
0000
0000
0F80
3FE0
78F0
6070
E038
E038
E038
E038
E038
E038
E038
7070
78F0
3FE0
0F80
ENDCHAR
STARTCHAR divide
ENCODING 247
SWIDTH 600 0
DWIDTH 17 0
BBX 13 12 2 4
BITMAP
0700
0700
0700
0000
0000
FFF8
FFF8
0000
0000
0700
0700
0700
ENDCHAR
STARTCHAR oslash
ENCODING 248
SWIDTH 600 0
DWIDTH 17 0
BBX 13 17 2 -1
BITMAP
0020
0FB0
3FF0
70F0
60F0
E1B8
E1B8
E338
E738
E638
EC38
EC38
7830
78F0
3FE0
6F80
2000
ENDCHAR
STARTCHAR ugrave
ENCODING 249
SWIDTH 600 0
DWIDTH 17 0
BBX 13 21 2 0
BITMAP
1C00
0E00
0600
0300
0000
0000
C018
C018
C018
C018
C018
C018
C018
C018
C038
C038
E038
E038
70F8
7FD8
1F18
ENDCHAR
STARTCHAR uacute
ENCODING 250
SWIDTH 600 0
DWIDTH 17 0
BBX 13 21 2 0
BITMAP
01C0
0380
0300
0600
0000
0000
C018
C018
C018
C018
C018
C018
C018
C018
C038
C038
E038
E038
70F8
7FD8
1F18
ENDCHAR
STARTCHAR ucircumflex
ENCODING 251
SWIDTH 600 0
DWIDTH 17 0
BBX 13 21 2 0
BITMAP
0700
0F80
1DC0
3060
0000
0000
C018
C018
C018
C018
C018
C018
C018
C018
C038
C038
E038
E038
70F8
7FD8
1F18
ENDCHAR
STARTCHAR udieresis
ENCODING 252
SWIDTH 600 0
DWIDTH 17 0
BBX 13 21 2 0
BITMAP
1860
1CE0
1860
0000
0000
0000
C018
C018
C018
C018
C018
C018
C018
C018
C038
C038
E038
E038
70F8
7FD8
1F18
ENDCHAR
STARTCHAR yacute
ENCODING 253
SWIDTH 600 0
DWIDTH 17 0
BBX 15 28 1 -7
BITMAP
00E0
01C0
0180
0300
0000
0000
E00E
600C
701C
701C
3018
3838
1830
1C70
0C70
0E60
0EE0
06C0
06C0
03C0
0380
0380
0300
0700
0700
0E00
FC00
F800
ENDCHAR
STARTCHAR thorn
ENCODING 254
SWIDTH 600 0
DWIDTH 17 0
BBX 13 28 2 -7
BITMAP
C000
C000
C000
C000
C000
C000
C7C0
DFE0
F0F0
E070
E038
E038
E038
C038
E038
E038
E038
E070
F0F0
DFE0
CFC0
C000
C000
C000
C000
C000
C000
C000
ENDCHAR
STARTCHAR ydieresis
ENCODING 255
SWIDTH 600 0
DWIDTH 17 0
BBX 15 28 1 -7
BITMAP
0C30
0E70
0C30
0000
0000
0000
E00E
600C
701C
701C
3018
3838
1830
1C70
0C70
0E60
0EE0
06C0
06C0
03C0
0380
0380
0300
0700
0700
0E00
FC00
F800
ENDCHAR
STARTCHAR .notdef
ENCODING -1
SWIDTH 600 0
DWIDTH 17 0
BBX 11 20 3 0
BITMAP
FFE0
8020
8020
8020
8020
8020
8020
8020
8020
8020
8020
8020
8020
8020
8020
8020
8020
8020
8020
FFE0
ENDCHAR
STARTCHAR Amacron
ENCODING -1
SWIDTH 600 0
DWIDTH 17 0
BBX 17 24 0 0
BITMAP
0FF800
0FF800
000000
000000
01C000
01C000
03E000
036000
036000
077000
063000
0E3800
0E3800
0C1800
1C1C00
1C1C00
1FFC00
3FFE00
380E00
300600
700700
700700
600300
E00380
ENDCHAR
STARTCHAR amacron
ENCODING -1
SWIDTH 600 0
DWIDTH 17 0
BBX 12 19 2 0
BITMAP
3FE0
3FE0
0000
0000
1F80
7FE0
30F0
0070
0070
0030
0FF0
7FF0
7030
E070
E070
E070
E0F0
7FB0
3E30
ENDCHAR
STARTCHAR Abreve
ENCODING -1
SWIDTH 600 0
DWIDTH 17 0
BBX 17 26 0 0
BITMAP
061800
061800
03F000
01E000
000000
000000
01C000
01C000
03E000
036000
036000
077000
063000
0E3800
0E3800
0C1800
1C1C00
1C1C00
1FFC00
3FFE00
380E00
300600
700700
700700
600300
E00380
ENDCHAR
STARTCHAR abreve
ENCODING -1
SWIDTH 600 0
DWIDTH 17 0
BBX 12 21 2 0
BITMAP
1860
1860
0FC0
0780
0000
0000
1F80
7FE0
30F0
0070
0070
0030
0FF0
7FF0
7030
E070
E070
E070
E0F0
7FB0
3E30
ENDCHAR
STARTCHAR Aogonek
ENCODING -1
SWIDTH 600 0
DWIDTH 17 0
BBX 17 26 0 -6
BITMAP
01C000
01C000
03E000
036000
036000
077000
063000
0E3800
0E3800
0C1800
1C1C00
1C1C00
1FFC00
3FFE00
380E00
300600
700700
700700
600300
E00380
000200
000600
000C00
000C00
000F80
000780
ENDCHAR
STARTCHAR aogonek
ENCODING -1
SWIDTH 600 0
DWIDTH 17 0
BBX 13 21 2 -6
BITMAP
1F80
7FE0
30F0
0070
0070
0030
0FF0
7FF0
7030
E070
E070
E070
E0F0
7FB0
3E30
0020
0060
00C0
00C0
00F8
0078
ENDCHAR
STARTCHAR Cacute
ENCODING -1
SWIDTH 600 0
DWIDTH 17 0
BBX 14 26 2 0
BITMAP
0038
0070
0060
00C0
0000
0000
03F0
0FFC
1E18
3800
7000
7000
E000
E000
E000
E000
E000
E000
E000
E000
6000
7000
7800
3E18
1FF8
07F0
ENDCHAR
STARTCHAR cacute
ENCODING -1
SWIDTH 600 0
DWIDTH 17 0
BBX 12 21 2 0
BITMAP
00E0
01C0
0180
0300
0000
0000
0FE0
3FF0
7820
7000
E000
E000
E000
E000
E000
E000
E000
7000
7830
3FF0
0FE0
ENDCHAR
STARTCHAR Ccircumflex
ENCODING -1
SWIDTH 600 0
DWIDTH 17 0
BBX 14 26 2 0
BITMAP
01C0
03E0
0770
0C18
0000
0000
03F0
0FFC
1E18
3800
7000
7000
E000
E000
E000
E000
E000
E000
E000
E000
6000
7000
7800
3E18
1FF8
07F0
ENDCHAR
STARTCHAR ccircumflex
ENCODING -1
SWIDTH 600 0
DWIDTH 17 0
BBX 12 21 2 0
BITMAP
0380
07C0
0EE0
1830
0000
0000
0FE0
3FF0
7820
7000
E000
E000
E000
E000
E000
E000
E000
7000
7830
3FF0
0FE0
ENDCHAR
STARTCHAR Cdotaccent
ENCODING -1
SWIDTH 600 0
DWIDTH 17 0
BBX 14 26 2 0
BITMAP
00C0
01C0
00C0
0000
0000
0000
03F0
0FFC
1E18
3800
7000
7000
E000
E000
E000
E000
E000
E000
E000
E000
6000
7000
7800
3E18
1FF8
07F0
ENDCHAR
STARTCHAR cdotaccent
ENCODING -1
SWIDTH 600 0
DWIDTH 17 0
BBX 12 21 2 0
BITMAP
0180
0380
0180
0000
0000
0000
0FE0
3FF0
7820
7000
E000
E000
E000
E000
E000
E000
E000
7000
7830
3FF0
0FE0
ENDCHAR
STARTCHAR Ccaron
ENCODING -1
SWIDTH 600 0
DWIDTH 17 0
BBX 14 26 2 0
BITMAP
0C18
0770
03E0
01C0
0000
0000
03F0
0FFC
1E18
3800
7000
7000
E000
E000
E000
E000
E000
E000
E000
E000
6000
7000
7800
3E18
1FF8
07F0
ENDCHAR
STARTCHAR ccaron
ENCODING -1
SWIDTH 600 0
DWIDTH 17 0
BBX 12 21 2 0
BITMAP
1830
0EE0
07C0
0380
0000
0000
0FE0
3FF0
7820
7000
E000
E000
E000
E000
E000
E000
E000
7000
7830
3FF0
0FE0
ENDCHAR
STARTCHAR Dcaron
ENCODING -1
SWIDTH 600 0
DWIDTH 17 0
BBX 14 26 2 0
BITMAP
3060
1DC0
0F80
0700
0000
0000
FF00
FFC0
E3E0
E070
E038
E038
E01C
E01C
E01C
E01C
E01C
E01C
E01C
E01C
E038
E038
E070
E3E0
FFC0
FF00
ENDCHAR
STARTCHAR dcaron
ENCODING -1
SWIDTH 600 0
DWIDTH 17 0
BBX 17 21 1 0
BITMAP
001980
001B80
001B00
001B00
001800
001800
0F1800
3FD800
78F800
603800
E03800
E03800
E03800
E01800
E03800
E03800
E03800
603800
787800
3FD800
1F1800
ENDCHAR
STARTCHAR Dcroat
ENCODING -1
SWIDTH 600 0
DWIDTH 17 0
BBX 16 20 0 0
BITMAP
3FC0
3FF0
38F8
381C
380E
380E
3807
3807
3807
FFC7
FFC7
3807
3807
3807
380E
380E
381C
38F8
3FF0
3FC0
ENDCHAR
STARTCHAR dcroat
ENCODING -1
SWIDTH 600 0
DWIDTH 17 0
BBX 15 21 2 0
BITMAP
0018
0018
07FE
07FE
0018
0018
1F18
3FD8
78F8
7038
E038
E038
E038
E018
E038
E038
E038
6038
7878
3FD8
1F98
ENDCHAR
STARTCHAR Emacron
ENCODING -1
SWIDTH 600 0
DWIDTH 17 0
BBX 12 24 3 0
BITMAP
3FE0
3FE0
0000
0000
FFF0
FFF0
E000
E000
E000
E000
E000
E000
FFE0
FFE0
E000
E000
E000
E000
E000
E000
E000
E000
FFF0
FFF0
ENDCHAR
STARTCHAR emacron
ENCODING -1
SWIDTH 600 0
DWIDTH 17 0
BBX 13 19 2 0
BITMAP
1FF0
1FF0
0000
0000
0F80
3FE0
7870
6030
E038
E038
FFF8
FFF8
E000
E000
E000
7000
7830
3FF0
0FE0
ENDCHAR
STARTCHAR Ebreve
ENCODING -1
SWIDTH 600 0
DWIDTH 17 0
BBX 12 26 3 0
BITMAP
30C0
30C0
1F80
0F00
0000
0000
FFF0
FFF0
E000
E000
E000
E000
E000
E000
FFE0
FFE0
E000
E000
E000
E000
E000
E000
E000
E000
FFF0
FFF0
ENDCHAR
STARTCHAR ebreve
ENCODING -1
SWIDTH 600 0
DWIDTH 17 0
BBX 13 21 2 0
BITMAP
1860
1860
0FC0
0780
0000
0000
0F80
3FE0
7870
6030
E038
E038
FFF8
FFF8
E000
E000
E000
7000
7830
3FF0
0FE0
ENDCHAR
STARTCHAR Edotaccent
ENCODING -1
SWIDTH 600 0
DWIDTH 17 0
BBX 12 25 3 0
BITMAP
0300
0700
0300
0000
0000
FFF0
FFF0
E000
E000
E000
E000
E000
E000
FFE0
FFE0
E000
E000
E000
E000
E000
E000
E000
E000
FFF0
FFF0
ENDCHAR
STARTCHAR edotaccent
ENCODING -1
SWIDTH 600 0
DWIDTH 17 0
BBX 13 21 2 0
BITMAP
0300
0700
0300
0000
0000
0000
0F80
3FE0
7870
6030
E038
E038
FFF8
FFF8
E000
E000
E000
7000
7830
3FF0
0FE0
ENDCHAR
STARTCHAR Eogonek
ENCODING -1
SWIDTH 600 0
DWIDTH 17 0
BBX 12 26 3 -6
BITMAP
FFF0
FFF0
E000
E000
E000
E000
E000
E000
FFE0
FFE0
E000
E000
E000
E000
E000
E000
E000
E000
FFF0
FFF0
0080
0180
0300
0300
03E0
01E0
ENDCHAR
STARTCHAR eogonek
ENCODING -1
SWIDTH 600 0
DWIDTH 17 0
BBX 13 21 2 -6
BITMAP
0F80
3FE0
7870
6030
E038
E038
FFF8
FFF8
E000
E000
E000
7000
7830
3FF0
0FE0
0040
00C0
0180
0180
01F0
00F0
ENDCHAR
STARTCHAR Ecaron
ENCODING -1
SWIDTH 600 0
DWIDTH 17 0
BBX 12 26 3 0
BITMAP
3060
1DC0
0F80
0700
0000
0000
FFF0
FFF0
E000
E000
E000
E000
E000
E000
FFE0
FFE0
E000
E000
E000
E000
E000
E000
E000
E000
FFF0
FFF0
ENDCHAR
STARTCHAR ecaron
ENCODING -1
SWIDTH 600 0
DWIDTH 17 0
BBX 13 21 2 0
BITMAP
1830
0EE0
07C0
0380
0000
0000
0F80
3FE0
7870
6030
E038
E038
FFF8
FFF8
E000
E000
E000
7000
7830
3FF0
0FE0
ENDCHAR
STARTCHAR Gcircumflex
ENCODING -1
SWIDTH 600 0
DWIDTH 17 0
BBX 13 26 2 0
BITMAP
0380
07C0
0EE0
1830
0000
0000
07E0
1FF8
3E30
3800
7000
6000
E000
E000
E000
E1F8
E1F8
E038
E038
E038
6038
7038
7838
3E78
1FF8
07E0
ENDCHAR
STARTCHAR gcircumflex
ENCODING -1
SWIDTH 600 0
DWIDTH 17 0
BBX 14 28 2 -7
BITMAP
0380
07C0
0EE0
1830
0000
0000
0FFC
3FFC
3060
7070
6030
6030
7070
3060
3FE0
0F80
1800
3000
3800
3FF0
1FF8
703C
E00C
C00C
C01C
E038
7FF0
1FC0
ENDCHAR
STARTCHAR Gbreve
ENCODING -1
SWIDTH 600 0
DWIDTH 17 0
BBX 13 26 2 0
BITMAP
0C30
0C30
07E0
03C0
0000
0000
07E0
1FF8
3E30
3800
7000
6000
E000
E000
E000
E1F8
E1F8
E038
E038
E038
6038
7038
7838
3E78
1FF8
07E0
ENDCHAR
STARTCHAR gbreve
ENCODING -1
SWIDTH 600 0
DWIDTH 17 0
BBX 14 28 2 -7
BITMAP
1860
1860
0FC0
0780
0000
0000
0FFC
3FFC
3060
7070
6030
6030
7070
3060
3FE0
0F80
1800
3000
3800
3FF0
1FF8
703C
E00C
C00C
C01C
E038
7FF0
1FC0
ENDCHAR
STARTCHAR Gdotaccent
ENCODING -1
SWIDTH 600 0
DWIDTH 17 0
BBX 13 26 2 0
BITMAP
00C0
01C0
00C0
0000
0000
0000
07E0
1FF8
3E30
3800
7000
6000
E000
E000
E000
E1F8
E1F8
E038
E038
E038
6038
7038
7838
3E78
1FF8
07E0
ENDCHAR
STARTCHAR gdotaccent
ENCODING -1
SWIDTH 600 0
DWIDTH 17 0
BBX 14 28 2 -7
BITMAP
0300
0700
0300
0000
0000
0000
0FFC
3FFC
3060
7070
6030
6030
7070
3060
3FE0
0F80
1800
3000
3800
3FF0
1FF8
703C
E00C
C00C
C01C
E038
7FF0
1FC0
ENDCHAR
STARTCHAR uni0122
ENCODING -1
SWIDTH 600 0
DWIDTH 17 0
BBX 13 26 2 -6
BITMAP
07E0
1FF8
3E30
3800
7000
6000
E000
E000
E000
E1F8
E1F8
E038
E038
E038
6038
7038
7838
3E78
1FF8
07E0
0000
0000
01C0
0180
0180
0300
ENDCHAR
STARTCHAR uni0123
ENCODING -1
SWIDTH 600 0
DWIDTH 17 0
BBX 14 28 2 -7
BITMAP
00C0
0180
0180
0380
0000
0000
0FFC
3FFC
3060
7070
6030
6030
7070
3060
3FE0
0F80
1800
3000
3800
3FF0
1FF8
703C
E00C
C00C
C01C
E038
7FF0
1FC0
ENDCHAR
STARTCHAR Hcircumflex
ENCODING -1
SWIDTH 600 0
DWIDTH 17 0
BBX 13 26 2 0
BITMAP
0700
0F80
1DC0
3060
0000
0000
E038
E038
E038
E038
E038
E038
E038
E038
FFF8
FFF8
E038
E038
E038
E038
E038
E038
E038
E038
E038
E038
ENDCHAR
STARTCHAR hcircumflex
ENCODING -1
SWIDTH 600 0
DWIDTH 17 0
BBX 13 26 2 0
BITMAP
0700
0F80
1DC0
3060
0000
C000
C000
C000
C000
C000
C000
C7C0
DFF0
F870
F038
E038
E018
E018
C018
C018
C018
C018
C018
C018
C018
C018
ENDCHAR
STARTCHAR Hbar
ENCODING -1
SWIDTH 600 0
DWIDTH 17 0
BBX 17 20 0 0
BITMAP
380E00
380E00
380E00
FFFF80
FFFF80
380E00
380E00
380E00
3FFE00
3FFE00
380E00
380E00
380E00
380E00
380E00
380E00
380E00
380E00
380E00
380E00
ENDCHAR
STARTCHAR hbar
ENCODING -1
SWIDTH 600 0
DWIDTH 17 0
BBX 15 21 0 0
BITMAP
3800
3800
FFE0
FFE0
3000
3000
31F0
37FC
3E1C
380E
380E
3806
3806
3006
3006
3006
3006
3006
3006
3006
3006
ENDCHAR
STARTCHAR Itilde
ENCODING -1
SWIDTH 600 0
DWIDTH 17 0
BBX 11 26 3 0
BITMAP
70C0
7CC0
CF80
C380
0000
0000
FFE0
FFE0
0E00
0E00
0E00
0E00
0E00
0E00
0E00
0E00
0E00
0E00
0E00
0E00
0E00
0E00
0E00
0E00
FFE0
FFE0
ENDCHAR
STARTCHAR itilde
ENCODING -1
SWIDTH 600 0
DWIDTH 17 0
BBX 12 21 2 0
BITMAP
3860
3E60
67C0
61C0
0000
0000
7E00
7E00
0600
0600
0600
0600
0600
0600
0600
0600
0600
0600
0600
FFF0
FFF0
ENDCHAR
STARTCHAR Imacron
ENCODING -1
SWIDTH 600 0
DWIDTH 17 0
BBX 11 24 3 0
BITMAP
7FC0
7FC0
0000
0000
FFE0
FFE0
0E00
0E00
0E00
0E00
0E00
0E00
0E00
0E00
0E00
0E00
0E00
0E00
0E00
0E00
0E00
0E00
FFE0
FFE0
ENDCHAR
STARTCHAR imacron
ENCODING -1
SWIDTH 600 0
DWIDTH 17 0
BBX 12 19 2 0
BITMAP
3FE0
3FE0
0000
0000
7E00
7E00
0600
0600
0600
0600
0600
0600
0600
0600
0600
0600
0600
FFF0
FFF0
ENDCHAR
STARTCHAR Ibreve
ENCODING -1
SWIDTH 600 0
DWIDTH 17 0
BBX 11 26 3 0
BITMAP
30C0
30C0
1F80
0F00
0000
0000
FFE0
FFE0
0E00
0E00
0E00
0E00
0E00
0E00
0E00
0E00
0E00
0E00
0E00
0E00
0E00
0E00
0E00
0E00
FFE0
FFE0
ENDCHAR
STARTCHAR ibreve
ENCODING -1
SWIDTH 600 0
DWIDTH 17 0
BBX 12 21 2 0
BITMAP
0C30
0C30
07E0
03C0
0000
0000
7E00
7E00
0600
0600
0600
0600
0600
0600
0600
0600
0600
0600
0600
FFF0
FFF0
ENDCHAR
STARTCHAR Iogonek
ENCODING -1
SWIDTH 600 0
DWIDTH 17 0
BBX 11 26 3 -6
BITMAP
FFE0
FFE0
0E00
0E00
0E00
0E00
0E00
0E00
0E00
0E00
0E00
0E00
0E00
0E00
0E00
0E00
0E00
0E00
FFE0
FFE0
0400
0C00
1800
1800
1F00
0F00
ENDCHAR
STARTCHAR iogonek
ENCODING -1
SWIDTH 600 0
DWIDTH 17 0
BBX 12 27 2 -6
BITMAP
0600
0700
0600
0000
0000
0000
7E00
7E00
0600
0600
0600
0600
0600
0600
0600
0600
0600
0600
0600
FFF0
FFF0
0200
0600
0C00
0C00
0F80
0780
ENDCHAR
STARTCHAR Idotaccent
ENCODING -1
SWIDTH 600 0
DWIDTH 17 0
BBX 11 26 3 0
BITMAP
0600
0E00
0600
0000
0000
0000
FFE0
FFE0
0E00
0E00
0E00
0E00
0E00
0E00
0E00
0E00
0E00
0E00
0E00
0E00
0E00
0E00
0E00
0E00
FFE0
FFE0
ENDCHAR
STARTCHAR dotlessi
ENCODING -1
SWIDTH 600 0
DWIDTH 17 0
BBX 12 15 2 0
BITMAP
7E00
7E00
0600
0600
0600
0600
0600
0600
0600
0600
0600
0600
0600
FFF0
FFF0
ENDCHAR
STARTCHAR IJ
ENCODING -1
SWIDTH 600 0
DWIDTH 17 0
BBX 13 20 2 0
BITMAP
E038
E038
E038
E038
E038
E038
E038
E038
E038
E038
E038
E038
E038
E038
E038
E038
E038
E470
E7F0
E7C0
ENDCHAR
STARTCHAR ij
ENCODING -1
SWIDTH 600 0
DWIDTH 17 0
BBX 11 28 3 -7
BITMAP
C0E0
E0E0
C0E0
0000
0000
0000
C3E0
C3E0
C060
C060
C060
C060
C060
C060
C060
C060
C060
C060
C060
C060
C060
0060
0060
00E0
00E0
00E0
0FC0
0F80
ENDCHAR
STARTCHAR Jcircumflex
ENCODING -1
SWIDTH 600 0
DWIDTH 17 0
BBX 15 26 2 0
BITMAP
0070
00F8
01DC
0306
0000
0000
0070
0070
0070
0070
0070
0070
0070
0070
0070
0070
0070
0070
0070
0070
0070
0070
00E0
C3E0
FFC0
7F00
ENDCHAR
STARTCHAR jcircumflex
ENCODING -1
SWIDTH 600 0
DWIDTH 17 0
BBX 11 28 2 -7
BITMAP
0700
0F80
1DC0
3060
0000
0000
3FC0
3FC0
00C0
00C0
00C0
00C0
00C0
00C0
00C0
00C0
00C0
00C0
00C0
00C0
00C0
00C0
00C0
01C0
01C0
0380
FF80
FE00
ENDCHAR
STARTCHAR uni0136
ENCODING -1
SWIDTH 600 0
DWIDTH 17 0
BBX 13 26 3 -6
BITMAP
E038
E070
E0E0
E0C0
E1C0
E380
E700
EE00
EC00
FE00
FE00
E700
E300
E380
E1C0
E0C0
E0E0
E070
E070
E038
0000
0000
0700
0600
0600
0C00
ENDCHAR
STARTCHAR uni0137
ENCODING -1
SWIDTH 600 0
DWIDTH 17 0
BBX 13 27 3 -6
BITMAP
C000
C000
C000
C000
C000
C000
C070
C0E0
C1C0
C380
C700
CE00
DC00
FE00
F700
C700
C380
C1C0
C0E0
C070
C038
0000
0000
0700
0600
0600
0C00
ENDCHAR
STARTCHAR kgreenlandic
ENCODING -1
SWIDTH 600 0
DWIDTH 17 0
BBX 13 15 3 0
BITMAP
C030
C060
C0C0
C180
C300
C600
CC00
DC00
FE00
E700
C380
C1C0
C0E0
C070
C038
ENDCHAR
STARTCHAR Lacute
ENCODING -1
SWIDTH 600 0
DWIDTH 17 0
BBX 12 26 3 0
BITMAP
1C00
3800
3000
6000
0000
0000
E000
E000
E000
E000
E000
E000
E000
E000
E000
E000
E000
E000
E000
E000
E000
E000
E000
E000
FFF0
FFF0
ENDCHAR
STARTCHAR lacute
ENCODING -1
SWIDTH 600 0
DWIDTH 17 0
BBX 12 26 2 0
BITMAP
01C0
0380
0300
0600
0000
7E00
7E00
0600
0600
0600
0600
0600
0600
0600
0600
0600
0600
0600
0600
0600
0600
0600
0600
0600
FFF0
FFF0
ENDCHAR
STARTCHAR uni013B
ENCODING -1
SWIDTH 600 0
DWIDTH 17 0
BBX 12 26 3 -6
BITMAP
E000
E000
E000
E000
E000
E000
E000
E000
E000
E000
E000
E000
E000
E000
E000
E000
E000
E000
FFF0
FFF0
0000
0000
0700
0600
0600
0C00
ENDCHAR
STARTCHAR uni013C
ENCODING -1
SWIDTH 600 0
DWIDTH 17 0
BBX 12 27 2 -6
BITMAP
7E00
7E00
0600
0600
0600
0600
0600
0600
0600
0600
0600
0600
0600
0600
0600
0600
0600
0600
0600
FFF0
FFF0
0000
0000
0700
0600
0600
0C00
ENDCHAR
STARTCHAR Lcaron
ENCODING -1
SWIDTH 600 0
DWIDTH 17 0
BBX 12 20 3 0
BITMAP
E060
E0E0
E0C0
E0C0
E000
E000
E000
E000
E000
E000
E000
E000
E000
E000
E000
E000
E000
E000
FFF0
FFF0
ENDCHAR
STARTCHAR lcaron
ENCODING -1
SWIDTH 600 0
DWIDTH 17 0
BBX 13 21 2 0
BITMAP
7E18
7E38
0630
0630
0600
0600
0600
0600
0600
0600
0600
0600
0600
0600
0600
0600
0600
0600
0600
FFF0
FFF0
ENDCHAR
STARTCHAR Ldot
ENCODING -1
SWIDTH 600 0
DWIDTH 17 0
BBX 12 20 3 0
BITMAP
E000
E000
E000
E000
E000
E000
E000
E0C0
E1C0
E0C0
E000
E000
E000
E000
E000
E000
E000
E000
FFF0
FFF0
ENDCHAR
STARTCHAR ldot
ENCODING -1
SWIDTH 600 0
DWIDTH 17 0
BBX 12 21 2 0
BITMAP
7E00
7E00
0600
0600
0600
0600
0600
0600
0600
0600
0630
0670
0630
0600
0600
0600
0600
0600
0600
FFF0
FFF0
ENDCHAR
STARTCHAR Lslash
ENCODING -1
SWIDTH 600 0
DWIDTH 17 0
BBX 14 20 1 0
BITMAP
1C00
1C00
1C00
1C00
1C00
1C00
1C00
1C40
1DE0
1F80
1F00
3C00
FC00
5C00
1C00
1C00
1C00
1C00
1FFC
1FFC
ENDCHAR
STARTCHAR lslash
ENCODING -1
SWIDTH 600 0
DWIDTH 17 0
BBX 12 21 2 0
BITMAP
7E00
7E00
0600
0600
0600
0600
0600
0600
0640
07E0
0780
0E00
3E00
1600
0600
0600
0600
0600
0600
FFF0
FFF0
ENDCHAR
STARTCHAR Nacute
ENCODING -1
SWIDTH 600 0
DWIDTH 17 0
BBX 13 26 2 0
BITMAP
00E0
01C0
0180
0300
0000
0000
E018
F018
F018
F818
D818
DC18
CC18
CC18
C618
C618
C318
C318
C198
C198
C1D8
C0D8
C0F8
C078
C078
C038
ENDCHAR
STARTCHAR nacute
ENCODING -1
SWIDTH 600 0
DWIDTH 17 0
BBX 13 21 2 0
BITMAP
00E0
01C0
0180
0300
0000
0000
C7C0
DFF0
F870
F038
E038
E018
E018
C018
C018
C018
C018
C018
C018
C018
C018
ENDCHAR
STARTCHAR uni0145
ENCODING -1
SWIDTH 600 0
DWIDTH 17 0
BBX 13 26 2 -6
BITMAP
E018
F018
F018
F818
D818
DC18
CC18
CC18
C618
C618
C318
C318
C198
C198
C1D8
C0D8
C0F8
C078
C078
C038
0000
0000
0700
0600
0600
0C00
ENDCHAR
STARTCHAR uni0146
ENCODING -1
SWIDTH 600 0
DWIDTH 17 0
BBX 13 21 2 -6
BITMAP
C7C0
DFF0
F870
F038
E038
E018
E018
C018
C018
C018
C018
C018
C018
C018
C018
0000
0000
0700
0600
0600
0C00
ENDCHAR
STARTCHAR Ncaron
ENCODING -1
SWIDTH 600 0
DWIDTH 17 0
BBX 13 26 2 0
BITMAP
3060
1DC0
0F80
0700
0000
0000
E018
F018
F018
F818
D818
DC18
CC18
CC18
C618
C618
C318
C318
C198
C198
C1D8
C0D8
C0F8
C078
C078
C038
ENDCHAR
STARTCHAR ncaron
ENCODING -1
SWIDTH 600 0
DWIDTH 17 0
BBX 13 21 2 0
BITMAP
3060
1DC0
0F80
0700
0000
0000
C7C0
DFF0
F870
F038
E038
E018
E018
C018
C018
C018
C018
C018
C018
C018
C018
ENDCHAR
STARTCHAR napostrophe
ENCODING -1
SWIDTH 600 0
DWIDTH 17 0
BBX 16 21 0 0
BITMAP
7000
7000
6000
6000
E000
C000
CC7C
0DFE
0F8E
0E07
0E07
0E03
0E03
0C03
0C03
0C03
0C03
0C03
0C03
0C03
0C03
ENDCHAR
STARTCHAR Eng
ENCODING -1
SWIDTH 600 0
DWIDTH 17 0
BBX 13 25 2 -5
BITMAP
E018
F018
F018
F818
D818
DC18
CC18
CE18
C618
C718
C318
C398
C198
C1D8
C0D8
C0F8
C078
C078
C038
C038
0018
0038
0070
03F0
03E0
ENDCHAR
STARTCHAR eng
ENCODING -1
SWIDTH 600 0
DWIDTH 17 0
BBX 13 22 2 -7
BITMAP
C7C0
DFF0
F870
F038
E038
E018
E018
C018
C018
C018
C018
C018
C018
C018
C018
0018
0018
0018
0038
0038
01F0
01E0
ENDCHAR
STARTCHAR Omacron
ENCODING -1
SWIDTH 600 0
DWIDTH 17 0
BBX 15 24 1 0
BITMAP
1FF0
1FF0
0000
0000
07C0
1FF0
3C78
701C
701C
E00C
E00E
E00E
E00E
E00E
E00E
E00E
E00E
E00E
600C
701C
701C
3C78
1FF0
0FC0
ENDCHAR
STARTCHAR omacron
ENCODING -1
SWIDTH 600 0
DWIDTH 17 0
BBX 13 19 2 0
BITMAP
3FE0
3FE0
0000
0000
0F80
3FE0
78F0
6070
E038
E038
E038
E038
E038
E038
E038
7070
78F0
3FE0
0F80
ENDCHAR
STARTCHAR Obreve
ENCODING -1
SWIDTH 600 0
DWIDTH 17 0
BBX 15 26 1 0
BITMAP
0C30
0C30
07E0
03C0
0000
0000
07C0
1FF0
3C78
701C
701C
E00C
E00E
E00E
E00E
E00E
E00E
E00E
E00E
E00E
600C
701C
701C
3C78
1FF0
0FC0
ENDCHAR
STARTCHAR obreve
ENCODING -1
SWIDTH 600 0
DWIDTH 17 0
BBX 13 21 2 0
BITMAP
1860
1860
0FC0
0780
0000
0000
0F80
3FE0
78F0
6070
E038
E038
E038
E038
E038
E038
E038
7070
78F0
3FE0
0F80
ENDCHAR
STARTCHAR Ohungarumlaut
ENCODING -1
SWIDTH 600 0
DWIDTH 17 0
BBX 15 26 1 0
BITMAP
039C
0738
0630
0C60
0000
0000
07C0
1FF0
3C78
701C
701C
E00C
E00E
E00E
E00E
E00E
E00E
E00E
E00E
E00E
600C
701C
701C
3C78
1FF0
0FC0
ENDCHAR
STARTCHAR ohungarumlaut
ENCODING -1
SWIDTH 600 0
DWIDTH 17 0
BBX 13 21 2 0
BITMAP
0738
0E70
0C60
18C0
0000
0000
0F80
3FE0
78F0
6070
E038
E038
E038
E038
E038
E038
E038
7070
78F0
3FE0
0F80
ENDCHAR
STARTCHAR OE
ENCODING -1
SWIDTH 600 0
DWIDTH 17 0
BBX 16 20 0 0
BITMAP
0FFF
1FFF
3DE0
70E0
60E0
E0E0
E0E0
E0E0
E0FE
E0FE
E0E0
E0E0
E0E0
E0E0
E0E0
60E0
70E0
39E0
3FFF
0FFF
ENDCHAR
STARTCHAR oe
ENCODING -1
SWIDTH 600 0
DWIDTH 17 0
BBX 15 15 1 0
BITMAP
1C38
3E7C
73CC
63CE
E1CE
E1CE
E1FE
C1FE
E180
E1C0
E1C0
63C0
73E4
3E7C
1C3C
ENDCHAR
STARTCHAR Racute
ENCODING -1
SWIDTH 600 0
DWIDTH 17 0
BBX 13 26 3 0
BITMAP
0380
0700
0600
0C00
0000
0000
FF00
FFC0
E1E0
E070
E070
E070
E070
E070
E060
E1E0
FFC0
FF00
E380
E380
E1C0
E0E0
E0E0
E070
E070
E038
ENDCHAR
STARTCHAR racute
ENCODING -1
SWIDTH 600 0
DWIDTH 17 0
BBX 11 21 4 0
BITMAP
0380
0700
0600
0C00
0000
0000
C7E0
CFE0
D840
F000
E000
E000
E000
C000
C000
C000
C000
C000
C000
C000
C000
ENDCHAR
STARTCHAR uni0156
ENCODING -1
SWIDTH 600 0
DWIDTH 17 0
BBX 13 26 3 -6
BITMAP
FF00
FFC0
E1E0
E070
E070
E070
E070
E070
E060
E1E0
FFC0
FF00
E380
E380
E1C0
E0E0
E0E0
E070
E070
E038
0000
0000
0700
0600
0600
0C00
ENDCHAR
STARTCHAR uni0157
ENCODING -1
SWIDTH 600 0
DWIDTH 17 0
BBX 12 21 3 -6
BITMAP
63F0
67F0
6C20
7800
7000
7000
7000
6000
6000
6000
6000
6000
6000
6000
6000
0000
0000
7000
6000
6000
C000
ENDCHAR
STARTCHAR Rcaron
ENCODING -1
SWIDTH 600 0
DWIDTH 17 0
BBX 13 26 3 0
BITMAP
60C0
3B80
1F00
0E00
0000
0000
FF00
FFC0
E1E0
E070
E070
E070
E070
E070
E060
E1E0
FFC0
FF00
E380
E380
E1C0
E0E0
E0E0
E070
E070
E038
ENDCHAR
STARTCHAR rcaron
ENCODING -1
SWIDTH 600 0
DWIDTH 17 0
BBX 11 21 4 0
BITMAP
60C0
3B80
1F00
0E00
0000
0000
C7E0
CFE0
D840
F000
E000
E000
E000
C000
C000
C000
C000
C000
C000
C000
C000
ENDCHAR
STARTCHAR Sacute
ENCODING -1
SWIDTH 600 0
DWIDTH 17 0
BBX 13 26 2 0
BITMAP
00E0
01C0
0180
0300
0000
0000
0FE0
3FF8
7870
E000
E000
E000
E000
7000
7C00
1F80
07E0
01F0
0078
0038
0038
0038
0038
E0F0
FFE0
7F80
ENDCHAR
STARTCHAR sacute
ENCODING -1
SWIDTH 600 0
DWIDTH 17 0
BBX 11 21 3 0
BITMAP
01C0
0380
0300
0600
0000
0000
1FC0
7FE0
E0C0
C000
E000
F000
7E00
1F80
03C0
00E0
00E0
00E0
C1E0
FFC0
7F00
ENDCHAR
STARTCHAR Scircumflex
ENCODING -1
SWIDTH 600 0
DWIDTH 17 0
BBX 13 26 2 0
BITMAP
0380
07C0
0EE0
1830
0000
0000
0FE0
3FF8
7870
E000
E000
E000
E000
7000
7C00
1F80
07E0
01F0
0078
0038
0038
0038
0038
E0F0
FFE0
7F80
ENDCHAR
STARTCHAR scircumflex
ENCODING -1
SWIDTH 600 0
DWIDTH 17 0
BBX 11 21 3 0
BITMAP
0700
0F80
1DC0
3060
0000
0000
1FC0
7FE0
E0C0
C000
E000
F000
7E00
1F80
03C0
00E0
00E0
00E0
C1E0
FFC0
7F00
ENDCHAR
STARTCHAR Scedilla
ENCODING -1
SWIDTH 600 0
DWIDTH 17 0
BBX 13 27 2 -7
BITMAP
0FE0
3FF8
7870
E000
E000
E000
E000
7000
7C00
1F80
07E0
01F0
0078
0038
0038
0038
0038
E0F0
FFE0
7F80
0200
0600
0700
0180
0180
0F80
0F00
ENDCHAR
STARTCHAR scedilla
ENCODING -1
SWIDTH 600 0
DWIDTH 17 0
BBX 11 22 3 -7
BITMAP
1FC0
7FE0
E0C0
C000
E000
F000
7E00
1F80
03C0
00E0
00E0
00E0
C1E0
FFC0
7F00
0400
0C00
0E00
0300
0300
1F00
1E00
ENDCHAR
STARTCHAR Scaron
ENCODING -1
SWIDTH 600 0
DWIDTH 17 0
BBX 13 26 2 0
BITMAP
1830
0EE0
07C0
0380
0000
0000
0FE0
3FF8
7870
E000
E000
E000
E000
7000
7C00
1F80
07E0
01F0
0078
0038
0038
0038
0038
E0F0
FFE0
7F80
ENDCHAR
STARTCHAR scaron
ENCODING -1
SWIDTH 600 0
DWIDTH 17 0
BBX 11 21 3 0
BITMAP
60C0
3B80
1F00
0E00
0000
0000
1FC0
7FE0
E0C0
C000
E000
F000
7E00
1F80
03C0
00E0
00E0
00E0
C1E0
FFC0
7F00
ENDCHAR
STARTCHAR uni021A
ENCODING -1
SWIDTH 600 0
DWIDTH 17 0
BBX 14 26 1 -6
BITMAP
FFFC
FFFC
0380
0380
0380
0380
0380
0380
0380
0380
0380
0380
0380
0380
0380
0380
0380
0380
0380
0380
0000
0000
0380
0300
0300
0600
ENDCHAR
STARTCHAR uni021B
ENCODING -1
SWIDTH 600 0
DWIDTH 17 0
BBX 12 25 2 -6
BITMAP
0400
0400
0C00
0C00
7FF0
FFF0
0C00
0C00
0C00
0C00
0C00
0C00
0C00
0C00
0C00
0E00
0E00
07F0
03F0
0000
0000
0380
0300
0300
0600
ENDCHAR
STARTCHAR Tcaron
ENCODING -1
SWIDTH 600 0
DWIDTH 17 0
BBX 14 26 1 0
BITMAP
1830
0EE0
07C0
0380
0000
0000
FFFC
FFFC
0380
0380
0380
0380
0380
0380
0380
0380
0380
0380
0380
0380
0380
0380
0380
0380
0380
0380
ENDCHAR
STARTCHAR tcaron
ENCODING -1
SWIDTH 600 0
DWIDTH 17 0
BBX 12 21 2 0
BITMAP
0030
0070
0460
0460
0C00
0C00
7FF0
FFF0
0C00
0C00
0C00
0C00
0C00
0C00
0C00
0C00
0C00
0E00
0E00
07F0
03F0
ENDCHAR
STARTCHAR Tbar
ENCODING -1
SWIDTH 600 0
DWIDTH 17 0
BBX 14 20 1 0
BITMAP
FFFC
FFFC
0380
0380
0380
0380
0380
0380
0380
3FF0
3FF0
0380
0380
0380
0380
0380
0380
0380
0380
0380
ENDCHAR
STARTCHAR tbar
ENCODING -1
SWIDTH 600 0
DWIDTH 17 0
BBX 12 19 2 0
BITMAP
0400
0400
0C00
0C00
7FF0
FFF0
0C00
0C00
0C00
3FC0
3FC0
0C00
0C00
0C00
0C00
0E00
0E00
07F0
03F0
ENDCHAR
STARTCHAR Utilde
ENCODING -1
SWIDTH 600 0
DWIDTH 17 0
BBX 13 26 2 0
BITMAP
1C30
1F30
33E0
30E0
0000
0000
E038
E038
E038
E038
E038
E038
E038
E038
E038
E038
E038
E038
E038
E038
E038
E038
7070
78F0
3FE0
1F80
ENDCHAR
STARTCHAR utilde
ENCODING -1
SWIDTH 600 0
DWIDTH 17 0
BBX 13 21 2 0
BITMAP
1C30
1F30
33E0
30E0
0000
0000
C018
C018
C018
C018
C018
C018
C018
C018
C038
C038
E038
E038
70F8
7FD8
1F18
ENDCHAR
STARTCHAR Umacron
ENCODING -1
SWIDTH 600 0
DWIDTH 17 0
BBX 13 24 2 0
BITMAP
3FE0
3FE0
0000
0000
E038
E038
E038
E038
E038
E038
E038
E038
E038
E038
E038
E038
E038
E038
E038
E038
7070
78F0
3FE0
1F80
ENDCHAR
STARTCHAR umacron
ENCODING -1
SWIDTH 600 0
DWIDTH 17 0
BBX 13 19 2 0
BITMAP
3FE0
3FE0
0000
0000
C018
C018
C018
C018
C018
C018
C018
C018
C038
C038
E038
E038
70F8
7FD8
1F18
ENDCHAR
STARTCHAR Ubreve
ENCODING -1
SWIDTH 600 0
DWIDTH 17 0
BBX 13 26 2 0
BITMAP
1860
1860
0FC0
0780
0000
0000
E038
E038
E038
E038
E038
E038
E038
E038
E038
E038
E038
E038
E038
E038
E038
E038
7070
78F0
3FE0
1F80
ENDCHAR
STARTCHAR ubreve
ENCODING -1
SWIDTH 600 0
DWIDTH 17 0
BBX 13 21 2 0
BITMAP
1860
1860
0FC0
0780
0000
0000
C018
C018
C018
C018
C018
C018
C018
C018
C038
C038
E038
E038
70F8
7FD8
1F18
ENDCHAR
STARTCHAR Uring
ENCODING -1
SWIDTH 600 0
DWIDTH 17 0
BBX 13 28 2 0
BITMAP
0780
0FC0
0CC0
0CC0
0FC0
0780
0000
0000
E038
E038
E038
E038
E038
E038
E038
E038
E038
E038
E038
E038
E038
E038
E038
E038
7070
78F0
3FE0
1F80
ENDCHAR
STARTCHAR uring
ENCODING -1
SWIDTH 600 0
DWIDTH 17 0
BBX 13 23 2 0
BITMAP
0780
0FC0
0CC0
0CC0
0FC0
0780
0000
0000
C018
C018
C018
C018
C018
C018
C018
C018
C038
C038
E038
E038
70F8
7FD8
1F18
ENDCHAR
STARTCHAR Uhungarumlaut
ENCODING -1
SWIDTH 600 0
DWIDTH 17 0
BBX 13 26 2 0
BITMAP
0738
0E70
0C60
18C0
0000
0000
E038
E038
E038
E038
E038
E038
E038
E038
E038
E038
E038
E038
E038
E038
E038
E038
7070
78F0
3FE0
1F80
ENDCHAR
STARTCHAR uhungarumlaut
ENCODING -1
SWIDTH 600 0
DWIDTH 17 0
BBX 13 21 2 0
BITMAP
0738
0E70
0C60
18C0
0000
0000
C018
C018
C018
C018
C018
C018
C018
C018
C038
C038
E038
E038
70F8
7FD8
1F18
ENDCHAR
STARTCHAR Uogonek
ENCODING -1
SWIDTH 600 0
DWIDTH 17 0
BBX 13 26 2 -6
BITMAP
E038
E038
E038
E038
E038
E038
E038
E038
E038
E038
E038
E038
E038
E038
E038
E038
7070
78F0
3FE0
1F80
0100
0300
0600
0600
07C0
03C0
ENDCHAR
STARTCHAR uogonek
ENCODING -1
SWIDTH 600 0
DWIDTH 17 0
BBX 14 21 2 -6
BITMAP
C018
C018
C018
C018
C018
C018
C018
C018
C038
C038
E038
E038
70F8
7FD8
1F18
0010
0030
0060
0060
007C
003C
ENDCHAR
STARTCHAR Wcircumflex
ENCODING -1
SWIDTH 600 0
DWIDTH 17 0
BBX 17 26 0 0
BITMAP
01C000
03E000
077000
0C1800
000000
000000
C00180
E00180
E00380
600380
600300
600300
61C300
61C300
714300
736300
336300
336300
333700
363600
363600
361E00
341E00
1C1E00
1C0E00
1C0E00
ENDCHAR
STARTCHAR wcircumflex
ENCODING -1
SWIDTH 600 0
DWIDTH 17 0
BBX 17 21 0 0
BITMAP
01C000
03E000
077000
0C1800
000000
000000
C1C180
E1C180
614300
636300
636300
636300
636300
322600
363600
363600
363600
363600
141400
1C1C00
1C1C00
ENDCHAR
STARTCHAR Ycircumflex
ENCODING -1
SWIDTH 600 0
DWIDTH 17 0
BBX 16 26 0 0
BITMAP
01C0
03E0
0770
0C18
0000
0000
E007
700E
700E
381C
181C
1C38
0C38
0E70
0660
03E0
03C0
01C0
01C0
01C0
01C0
01C0
01C0
01C0
01C0
01C0
ENDCHAR
STARTCHAR ycircumflex
ENCODING -1
SWIDTH 600 0
DWIDTH 17 0
BBX 15 28 1 -7
BITMAP
0380
07C0
0EE0
1830
0000
0000
E00E
600C
701C
701C
3018
3838
1830
1C70
0C70
0E60
0EE0
06C0
06C0
03C0
0380
0380
0300
0700
0700
0E00
FC00
F800
ENDCHAR
STARTCHAR Ydieresis
ENCODING -1
SWIDTH 600 0
DWIDTH 17 0
BBX 16 26 0 0
BITMAP
0C30
0E70
0C30
0000
0000
0000
E007
700E
700E
381C
181C
1C38
0C38
0E70
0660
03E0
03C0
01C0
01C0
01C0
01C0
01C0
01C0
01C0
01C0
01C0
ENDCHAR
STARTCHAR Zacute
ENCODING -1
SWIDTH 600 0
DWIDTH 17 0
BBX 15 26 1 0
BITMAP
00E0
01C0
0180
0300
0000
0000
FFFE
FFFE
000E
001C
0038
0030
0070
00E0
01C0
0180
0300
0700
0E00
1C00
1800
3800
7000
E000
FFFE
FFFE
ENDCHAR
STARTCHAR zacute
ENCODING -1
SWIDTH 600 0
DWIDTH 17 0
BBX 12 21 2 0
BITMAP
01C0
0380
0300
0600
0000
0000
FFF0
FFF0
0070
00E0
01C0
0380
0300
0600
0E00
1C00
3800
7000
6000
FFF0
FFF0
ENDCHAR
STARTCHAR Zdotaccent
ENCODING -1
SWIDTH 600 0
DWIDTH 17 0
BBX 15 26 1 0
BITMAP
0180
0380
0180
0000
0000
0000
FFFE
FFFE
000E
001C
0038
0030
0070
00E0
01C0
0180
0300
0700
0E00
1C00
1800
3800
7000
E000
FFFE
FFFE
ENDCHAR
STARTCHAR zdotaccent
ENCODING -1
SWIDTH 600 0
DWIDTH 17 0
BBX 12 21 2 0
BITMAP
0300
0700
0300
0000
0000
0000
FFF0
FFF0
0070
00E0
01C0
0380
0300
0600
0E00
1C00
3800
7000
6000
FFF0
FFF0
ENDCHAR
STARTCHAR Zcaron
ENCODING -1
SWIDTH 600 0
DWIDTH 17 0
BBX 15 26 1 0
BITMAP
1830
0EE0
07C0
0380
0000
0000
FFFE
FFFE
000E
001C
0038
0030
0070
00E0
01C0
0180
0300
0700
0E00
1C00
1800
3800
7000
E000
FFFE
FFFE
ENDCHAR
STARTCHAR zcaron
ENCODING -1
SWIDTH 600 0
DWIDTH 17 0
BBX 12 21 2 0
BITMAP
3060
1DC0
0F80
0700
0000
0000
FFF0
FFF0
0070
00E0
01C0
0380
0300
0600
0E00
1C00
3800
7000
6000
FFF0
FFF0
ENDCHAR
STARTCHAR longs
ENCODING -1
SWIDTH 600 0
DWIDTH 17 0
BBX 9 21 5 0
BITMAP
3F80
7F80
E000
E000
E000
C000
C000
C000
C000
C000
C000
C000
C000
C000
C000
C000
C000
C000
C000
C000
C000
ENDCHAR
STARTCHAR florin
ENCODING -1
SWIDTH 600 0
DWIDTH 17 0
BBX 11 27 3 -7
BITMAP
03E0
07E0
0E00
0E00
0E00
0E00
0E00
3FC0
7FC0
0E00
0E00
0E00
0E00
0E00
0E00
0E00
0E00
0E00
0E00
0E00
0E00
0E00
0E00
0C00
1C00
FC00
F000
ENDCHAR
STARTCHAR Aringacute
ENCODING -1
SWIDTH 600 0
DWIDTH 17 0
BBX 17 30 0 0
BITMAP
007000
00E000
00C000
018000
000000
01E000
03F000
033000
033000
03F000
01E000
01C000
03E000
036000
036000
077000
063000
0E3800
0E3800
0C1800
1C1C00
1C1C00
1FFC00
3FFE00
380E00
300600
700700
700700
600300
E00380
ENDCHAR
STARTCHAR aringacute
ENCODING -1
SWIDTH 600 0
DWIDTH 17 0
BBX 12 28 2 0
BITMAP
01C0
0380
0300
0600
0000
0780
0FC0
0CC0
0CC0
0FC0
0780
0000
0000
1F80
7FE0
30F0
0070
0070
0030
0FF0
7FF0
7030
E070
E070
E070
E0F0
7FB0
3E30
ENDCHAR
STARTCHAR AEacute
ENCODING -1
SWIDTH 600 0
DWIDTH 17 0
BBX 16 26 0 0
BITMAP
001C
0038
0030
0060
0000
0000
0FFF
0FFF
1DC0
19C0
19C0
19C0
19C0
39C0
31FE
31FE
31C0
31C0
7FC0
7FC0
61C0
61C0
61C0
E1C0
E1FF
C1FF
ENDCHAR
STARTCHAR aeacute
ENCODING -1
SWIDTH 600 0
DWIDTH 17 0
BBX 15 21 1 0
BITMAP
0070
00E0
00C0
0180
0000
0000
3C78
7EFC
67CC
038E
038E
0386
3FFE
7FFE
E300
E380
C380
E380
E6C6
7CFE
387C
ENDCHAR
STARTCHAR Oslashacute
ENCODING -1
SWIDTH 600 0
DWIDTH 17 0
BBX 15 27 1 -1
BITMAP
00E0
01C0
0180
0300
0000
0004
07CE
1FFC
3C7C
701C
703C
E07C
E06E
E0EE
E1CE
E18E
E38E
E70E
E60E
EE0E
FC0C
781C
781C
7C78
7FF0
EFC0
4000
ENDCHAR
STARTCHAR oslashacute
ENCODING -1
SWIDTH 600 0
DWIDTH 17 0
BBX 13 22 2 -1
BITMAP
01C0
0380
0300
0600
0000
0020
0FB0
3FF0
70F0
60F0
E1B8
E1B8
E338
E738
E638
EC38
EC38
7830
78F0
3FE0
6F80
2000
ENDCHAR
STARTCHAR uni0218
ENCODING -1
SWIDTH 600 0
DWIDTH 17 0
BBX 13 26 2 -6
BITMAP
0FE0
3FF8
7870
E000
E000
E000
E000
7000
7C00
1F80
07E0
01F0
0078
0038
0038
0038
0038
E0F0
FFE0
7F80
0000
0000
0380
0300
0300
0600
ENDCHAR
STARTCHAR uni0219
ENCODING -1
SWIDTH 600 0
DWIDTH 17 0
BBX 11 21 3 -6
BITMAP
1FC0
7FE0
E0C0
C000
E000
F000
7E00
1F80
03C0
00E0
00E0
00E0
C1E0
FFC0
7F00
0000
0000
0E00
0C00
0C00
1800
ENDCHAR
STARTCHAR circumflex
ENCODING -1
SWIDTH 600 0
DWIDTH 17 0
BBX 9 4 4 17
BITMAP
1C00
3E00
7700
C180
ENDCHAR
STARTCHAR caron
ENCODING -1
SWIDTH 600 0
DWIDTH 17 0
BBX 9 4 4 17
BITMAP
C180
7700
3E00
1C00
ENDCHAR
STARTCHAR uni02C9
ENCODING -1
SWIDTH 600 0
DWIDTH 17 0
BBX 9 2 4 17
BITMAP
FF80
FF80
ENDCHAR
STARTCHAR breve
ENCODING -1
SWIDTH 600 0
DWIDTH 17 0
BBX 8 4 5 17
BITMAP
C3
C3
7E
3C
ENDCHAR
STARTCHAR dotaccent
ENCODING -1
SWIDTH 600 0
DWIDTH 17 0
BBX 3 3 7 18
BITMAP
60
E0
60
ENDCHAR
STARTCHAR ring
ENCODING -1
SWIDTH 600 0
DWIDTH 17 0
BBX 6 6 6 17
BITMAP
78
FC
CC
CC
FC
78
ENDCHAR
STARTCHAR ogonek
ENCODING -1
SWIDTH 600 0
DWIDTH 17 0
BBX 5 6 6 -6
BITMAP
20
60
C0
C0
F8
78
ENDCHAR
STARTCHAR tilde
ENCODING -1
SWIDTH 600 0
DWIDTH 17 0
BBX 10 4 4 17
BITMAP
70C0
7CC0
CF80
C380
ENDCHAR
STARTCHAR hungarumlaut
ENCODING -1
SWIDTH 600 0
DWIDTH 17 0
BBX 10 4 4 17
BITMAP
39C0
7380
6300
C600
ENDCHAR
STARTCHAR tonos
ENCODING -1
SWIDTH 600 0
DWIDTH 17 0
BBX 4 4 6 17
BITMAP
70
60
60
C0
ENDCHAR
STARTCHAR dieresistonos
ENCODING -1
SWIDTH 600 0
DWIDTH 17 0
BBX 9 5 4 18
BITMAP
0700
0E00
CD80
FB80
C180
ENDCHAR
STARTCHAR Alphatonos
ENCODING -1
SWIDTH 600 0
DWIDTH 17 0
BBX 17 20 0 0
BITMAP
39C000
31C000
33E000
636000
036000
077000
063000
0E3800
0E3800
0C1800
1C1C00
1C1C00
1FFC00
3FFE00
380E00
300600
700700
700700
600300
E00380
ENDCHAR
STARTCHAR anoteleia
ENCODING -1
SWIDTH 600 0
DWIDTH 17 0
BBX 3 4 7 8
BITMAP
E0
E0
E0
E0
ENDCHAR
STARTCHAR Epsilontonos
ENCODING -1
SWIDTH 600 0
DWIDTH 17 0
BBX 16 20 -1 0
BITMAP
7FFF
6FFF
6E00
CE00
0E00
0E00
0E00
0E00
0FFE
0FFE
0E00
0E00
0E00
0E00
0E00
0E00
0E00
0E00
0FFF
0FFF
ENDCHAR
STARTCHAR Etatonos
ENCODING -1
SWIDTH 600 0
DWIDTH 17 0
BBX 17 20 -2 0
BITMAP
7E0380
6E0380
6E0380
CE0380
0E0380
0E0380
0E0380
0E0380
0FFF80
0FFF80
0E0380
0E0380
0E0380
0E0380
0E0380
0E0380
0E0380
0E0380
0E0380
0E0380
ENDCHAR
STARTCHAR Iotatonos
ENCODING -1
SWIDTH 600 0
DWIDTH 17 0
BBX 15 20 -1 0
BITMAP
7FFE
6FFE
60E0
C0E0
00E0
00E0
00E0
00E0
00E0
00E0
00E0
00E0
00E0
00E0
00E0
00E0
00E0
00E0
0FFE
0FFE
ENDCHAR
STARTCHAR Omicrontonos
ENCODING -1
SWIDTH 600 0
DWIDTH 17 0
BBX 18 20 -2 0
BITMAP
70F800
63FE00
678F00
CE0380
0E0380
1C0180
1C01C0
1C01C0
1C01C0
1C01C0
1C01C0
1C01C0
1C01C0
1C01C0
0C0180
0E0380
0E0380
078F00
03FE00
01F800
ENDCHAR
STARTCHAR Upsilontonos
ENCODING -1
SWIDTH 600 0
DWIDTH 17 0
BBX 20 20 -4 0
BITMAP
7E0070
6700E0
6700E0
C381C0
0181C0
01C380
00C380
00E700
006600
003E00
003C00
001C00
001C00
001C00
001C00
001C00
001C00
001C00
001C00
001C00
ENDCHAR
STARTCHAR Omegatonos
ENCODING -1
SWIDTH 600 0
DWIDTH 17 0
BBX 18 20 -2 0
BITMAP
70F800
63FE00
678F00
CE0380
0E0380
1C01C0
1C01C0
1C01C0
1C01C0
1C01C0
1C01C0
1C01C0
1C0180
0C0380
0E0380
060700
070600
038C00
1F9FC0
1F9FC0
ENDCHAR
STARTCHAR iotadieresistonos
ENCODING -1
SWIDTH 600 0
DWIDTH 17 0
BBX 11 23 3 0
BITMAP
0700
0E00
CD80
FB80
C180
0000
0000
0000
1800
1800
1800
1800
1800
1800
1800
1800
1800
1800
1800
1C00
1E00
0FE0
07E0
ENDCHAR
STARTCHAR Alpha
ENCODING -1
SWIDTH 600 0
DWIDTH 17 0
BBX 17 20 0 0
BITMAP
01C000
01C000
03E000
036000
036000
077000
063000
0E3800
0E3800
0C1800
1C1C00
1C1C00
1FFC00
3FFE00
380E00
300600
700700
700700
600300
E00380
ENDCHAR
STARTCHAR Beta
ENCODING -1
SWIDTH 600 0
DWIDTH 17 0
BBX 14 20 2 0
BITMAP
FFC0
FFF0
E0F8
E038
E038
E038
E038
E070
FFE0
FFE0
E078
E018
E01C
E01C
E01C
E01C
E03C
E078
FFF0
FFC0
ENDCHAR
STARTCHAR Gamma
ENCODING -1
SWIDTH 600 0
DWIDTH 17 0
BBX 12 20 3 0
BITMAP
FFF0
FFF0
E000
E000
E000
E000
E000
E000
E000
E000
E000
E000
E000
E000
E000
E000
E000
E000
E000
E000
ENDCHAR
STARTCHAR uni0394
ENCODING -1
SWIDTH 600 0
DWIDTH 17 0
BBX 15 20 1 0
BITMAP
0380
0380
07C0
06C0
06C0
0EE0
0EE0
0C60
1C70
1C70
1830
3838
3838
3018
701C
701C
600C
E00E
FFFE
FFFE
ENDCHAR
STARTCHAR Epsilon
ENCODING -1
SWIDTH 600 0
DWIDTH 17 0
BBX 12 20 3 0
BITMAP
FFF0
FFF0
E000
E000
E000
E000
E000
E000
FFE0
FFE0
E000
E000
E000
E000
E000
E000
E000
E000
FFF0
FFF0
ENDCHAR
STARTCHAR Zeta
ENCODING -1
SWIDTH 600 0
DWIDTH 17 0
BBX 15 20 1 0
BITMAP
FFFE
FFFE
000E
001C
0038
0030
0070
00E0
01C0
0180
0300
0700
0E00
1C00
1800
3800
7000
E000
FFFE
FFFE
ENDCHAR
STARTCHAR Eta
ENCODING -1
SWIDTH 600 0
DWIDTH 17 0
BBX 13 20 2 0
BITMAP
E038
E038
E038
E038
E038
E038
E038
E038
FFF8
FFF8
E038
E038
E038
E038
E038
E038
E038
E038
E038
E038
ENDCHAR
STARTCHAR Theta
ENCODING -1
SWIDTH 600 0
DWIDTH 17 0
BBX 15 20 1 0
BITMAP
07C0
1FF0
3C78
701C
701C
E00C
E00E
E00E
E00E
E7CE
E7CE
E00E
E00E
E00E
600C
701C
701C
3C78
1FF0
0FC0
ENDCHAR
STARTCHAR Iota
ENCODING -1
SWIDTH 600 0
DWIDTH 17 0
BBX 11 20 3 0
BITMAP
FFE0
FFE0
0E00
0E00
0E00
0E00
0E00
0E00
0E00
0E00
0E00
0E00
0E00
0E00
0E00
0E00
0E00
0E00
FFE0
FFE0
ENDCHAR
STARTCHAR Kappa
ENCODING -1
SWIDTH 600 0
DWIDTH 17 0
BBX 13 20 3 0
BITMAP
E038
E070
E0E0
E0C0
E1C0
E380
E700
EE00
EC00
FE00
FE00
E700
E300
E380
E1C0
E0C0
E0E0
E070
E070
E038
ENDCHAR
STARTCHAR Lambda
ENCODING -1
SWIDTH 600 0
DWIDTH 17 0
BBX 16 20 0 0
BITMAP
0180
03C0
03C0
03C0
07E0
0660
0660
0E70
0C30
0C30
1C38
1818
1818
381C
300C
300C
700E
600E
E007
E007
ENDCHAR
STARTCHAR Mu
ENCODING -1
SWIDTH 600 0
DWIDTH 17 0
BBX 13 20 2 0
BITMAP
E038
F078
F078
F078
F078
D058
D0D8
D8D8
D8D8
D8D8
C898
C998
CD98
CD98
CD98
C518
C718
C718
C718
C718
ENDCHAR
STARTCHAR Nu
ENCODING -1
SWIDTH 600 0
DWIDTH 17 0
BBX 13 20 2 0
BITMAP
E018
F018
F018
F818
D818
DC18
CC18
CC18
C618
C618
C318
C318
C198
C198
C1D8
C0D8
C0F8
C078
C078
C038
ENDCHAR
STARTCHAR Xi
ENCODING -1
SWIDTH 600 0
DWIDTH 17 0
BBX 13 20 2 0
BITMAP
7FF0
7FF0
0000
0000
0000
0000
0000
0000
3FE0
3FE0
0000
0000
0000
0000
0000
0000
0000
0000
FFF8
FFF8
ENDCHAR
STARTCHAR Omicron
ENCODING -1
SWIDTH 600 0
DWIDTH 17 0
BBX 15 20 1 0
BITMAP
07C0
1FF0
3C78
701C
701C
E00C
E00E
E00E
E00E
E00E
E00E
E00E
E00E
E00E
600C
701C
701C
3C78
1FF0
0FC0
ENDCHAR
STARTCHAR Pi
ENCODING -1
SWIDTH 600 0
DWIDTH 17 0
BBX 13 20 2 0
BITMAP
FFF8
FFF8
E038
E038
E038
E038
E038
E038
E038
E038
E038
E038
E038
E038
E038
E038
E038
E038
E038
E038
ENDCHAR
STARTCHAR Rho
ENCODING -1
SWIDTH 600 0
DWIDTH 17 0
BBX 13 20 2 0
BITMAP
FF80
FFE0
E0F0
E078
E038
E038
E038
E038
E038
E0F0
FFE0
FF80
E000
E000
E000
E000
E000
E000
E000
E000
ENDCHAR
STARTCHAR Sigma
ENCODING -1
SWIDTH 600 0
DWIDTH 17 0
BBX 13 20 2 0
BITMAP
FFF0
FFF0
6000
7000
3800
1C00
0C00
0E00
0700
0380
0700
0600
0E00
1C00
3800
3000
7000
E000
FFF8
FFF8
ENDCHAR
STARTCHAR Tau
ENCODING -1
SWIDTH 600 0
DWIDTH 17 0
BBX 14 20 1 0
BITMAP
FFFC
FFFC
0380
0380
0380
0380
0380
0380
0380
0380
0380
0380
0380
0380
0380
0380
0380
0380
0380
0380
ENDCHAR
STARTCHAR Upsilon
ENCODING -1
SWIDTH 600 0
DWIDTH 17 0
BBX 16 20 0 0
BITMAP
E007
700E
700E
381C
181C
1C38
0C38
0E70
0660
03E0
03C0
01C0
01C0
01C0
01C0
01C0
01C0
01C0
01C0
01C0
ENDCHAR
STARTCHAR Phi
ENCODING -1
SWIDTH 600 0
DWIDTH 17 0
BBX 16 20 0 0
BITMAP
01C0
01C0
0FF8
3FFC
79DE
71CE
E1C7
E1C7
E1C7
E1C7
E1C7
E1C7
E1C7
71CE
79DE
3FFC
0FF0
01C0
01C0
01C0
ENDCHAR
STARTCHAR Chi
ENCODING -1
SWIDTH 600 0
DWIDTH 17 0
BBX 15 20 1 0
BITMAP
E00E
701C
3018
3838
1830
1C70
0EE0
06C0
07C0
0380
0380
07C0
0EE0
0CE0
1C70
1830
3838
701C
601C
E00E
ENDCHAR
STARTCHAR Psi
ENCODING -1
SWIDTH 600 0
DWIDTH 17 0
BBX 15 20 1 0
BITMAP
E38E
E38E
E38E
E38E
E38E
E38E
E38E
E38E
E38E
E38E
E38C
739C
3FF8
1FF0
0380
0380
0380
0380
0380
0380
ENDCHAR
STARTCHAR uni03A9
ENCODING -1
SWIDTH 600 0
DWIDTH 17 0
BBX 15 20 1 0
BITMAP
07C0
1FF0
3C78
701C
701C
E00E
E00E
E00E
E00E
E00E
E00E
E00E
E00C
601C
701C
3038
3830
1C60
FCFE
FCFE
ENDCHAR
STARTCHAR Iotadieresis
ENCODING -1
SWIDTH 600 0
DWIDTH 17 0
BBX 11 26 3 0
BITMAP
30C0
39C0
30C0
0000
0000
0000
FFE0
FFE0
0E00
0E00
0E00
0E00
0E00
0E00
0E00
0E00
0E00
0E00
0E00
0E00
0E00
0E00
0E00
0E00
FFE0
FFE0
ENDCHAR
STARTCHAR Upsilondieresis
ENCODING -1
SWIDTH 600 0
DWIDTH 17 0
BBX 16 26 0 0
BITMAP
0C30
0E70
0C30
0000
0000
0000
E007
700E
700E
381C
181C
1C38
0C38
0E70
0660
03E0
03C0
01C0
01C0
01C0
01C0
01C0
01C0
01C0
01C0
01C0
ENDCHAR
STARTCHAR alphatonos
ENCODING -1
SWIDTH 600 0
DWIDTH 17 0
BBX 14 21 2 0
BITMAP
0380
0300
0300
0600
0000
0000
1F38
3FB0
70F0
6070
E070
E070
E070
E030
E070
E070
E070
6070
70F0
3FBC
1F1C
ENDCHAR
STARTCHAR epsilontonos
ENCODING -1
SWIDTH 600 0
DWIDTH 17 0
BBX 11 21 3 0
BITMAP
0380
0300
0300
0600
0000
0000
1FC0
7FE0
E040
E000
E000
7000
3F80
3F80
7000
E000
E000
E000
F060
7FE0
1FC0
ENDCHAR
STARTCHAR etatonos
ENCODING -1
SWIDTH 600 0
DWIDTH 17 0
BBX 13 28 2 -7
BITMAP
01C0
0180
0180
0300
0000
0000
C7C0
DFF0
F870
F038
E038
E038
E018
C018
C018
C018
C018
C018
C018
C018
C018
0018
0018
0018
0018
0018
0018
0018
ENDCHAR
STARTCHAR iotatonos
ENCODING -1
SWIDTH 600 0
DWIDTH 17 0
BBX 8 21 6 0
BITMAP
38
30
30
60
00
00
C0
C0
C0
C0
C0
C0
C0
C0
C0
C0
C0
E0
F0
7F
3F
ENDCHAR
STARTCHAR upsilondieresistonos
ENCODING -1
SWIDTH 600 0
DWIDTH 17 0
BBX 13 23 2 0
BITMAP
01C0
0380
3360
3EE0
3060
0000
0000
0000
C030
C030
C030
C038
C038
C038
C018
C038
C038
E038
E038
6070
70F0
3FE0
1F80
ENDCHAR
STARTCHAR alpha
ENCODING -1
SWIDTH 600 0
DWIDTH 17 0
BBX 14 15 2 0
BITMAP
1F38
3FB0
70F0
6070
E070
E070
E070
E030
E070
E070
E070
6070
70F0
3FBC
1F1C
ENDCHAR
STARTCHAR beta
ENCODING -1
SWIDTH 600 0
DWIDTH 17 0
BBX 13 28 2 -7
BITMAP
1F80
3FC0
70E0
E070
E070
E070
C070
C060
C1E0
CF80
CFC0
C0F0
C030
C038
C038
C038
C038
C038
F070
FFE0
DFC0
C000
C000
C000
C000
C000
C000
C000
ENDCHAR
STARTCHAR gamma
ENCODING -1
SWIDTH 600 0
DWIDTH 17 0
BBX 15 22 1 -7
BITMAP
E00E
600C
701C
701C
3018
3838
1830
1C70
0C70
0E60
0EE0
06C0
06C0
0380
0380
0380
0300
0300
0700
0700
0700
0700
ENDCHAR
STARTCHAR delta
ENCODING -1
SWIDTH 600 0
DWIDTH 17 0
BBX 13 21 2 0
BITMAP
0FC0
1FF0
3870
3000
3800
3800
1E00
0F00
07C0
1FE0
3870
7030
E038
E038
E038
E038
E038
E030
78F0
3FE0
0F80
ENDCHAR
STARTCHAR epsilon
ENCODING -1
SWIDTH 600 0
DWIDTH 17 0
BBX 11 15 3 0
BITMAP
1FC0
7FE0
E040
E000
E000
7000
3F80
3F80
7000
E000
E000
E000
F060
7FE0
1FC0
ENDCHAR
STARTCHAR zeta
ENCODING -1
SWIDTH 600 0
DWIDTH 17 0
BBX 13 26 2 -5
BITMAP
7FF8
7FF8
0070
00E0
0380
0700
0E00
1C00
3800
7000
6000
E000
E000
E000
E000
E000
E000
7000
7F00
1FF0
03F8
0038
0018
0038
0030
0070
ENDCHAR
STARTCHAR eta
ENCODING -1
SWIDTH 600 0
DWIDTH 17 0
BBX 13 22 2 -7
BITMAP
C7C0
DFF0
F870
F038
E038
E038
E018
C018
C018
C018
C018
C018
C018
C018
C018
0018
0018
0018
0018
0018
0018
0018
ENDCHAR
STARTCHAR theta
ENCODING -1
SWIDTH 600 0
DWIDTH 17 0
BBX 13 20 2 0
BITMAP
0F80
3FC0
38E0
7070
6030
E038
E038
E038
E038
FFF8
FFF8
C038
E038
E038
E038
6030
7070
38E0
3FE0
0F80
ENDCHAR
STARTCHAR iota
ENCODING -1
SWIDTH 600 0
DWIDTH 17 0
BBX 8 15 6 0
BITMAP
C0
C0
C0
C0
C0
C0
C0
C0
C0
C0
C0
E0
F0
7F
3F
ENDCHAR
STARTCHAR kappa
ENCODING -1
SWIDTH 600 0
DWIDTH 17 0
BBX 13 15 3 0
BITMAP
C030
C060
C0C0
C180
C300
C600
CC00
DC00
FE00
E700
C380
C1C0
C0E0
C070
C038
ENDCHAR
STARTCHAR lambda
ENCODING -1
SWIDTH 600 0
DWIDTH 17 0
BBX 15 21 1 0
BITMAP
3C00
3E00
0700
0300
0380
0180
0180
03C0
03C0
07C0
06E0
0E60
0E60
0C70
1C30
1830
3838
3018
701C
601E
E00E
ENDCHAR
STARTCHAR uni03BC
ENCODING -1
SWIDTH 600 0
DWIDTH 17 0
BBX 13 22 2 -7
BITMAP
C018
C018
C018
C018
C018
C018
C018
C018
C038
E038
E038
E038
F0F8
FFD8
DF18
C000
C000
C000
C000
C000
C000
C000
ENDCHAR
STARTCHAR nu
ENCODING -1
SWIDTH 600 0
DWIDTH 17 0
BBX 14 15 1 0
BITMAP
E01C
E01C
601C
701C
701C
3018
3818
1818
1C38
1C30
0C60
0EE0
07C0
0780
0780
ENDCHAR
STARTCHAR xi
ENCODING -1
SWIDTH 600 0
DWIDTH 17 0
BBX 13 26 2 -5
BITMAP
7FF0
7FF0
0E00
3800
7000
7000
6000
7000
3800
1FF0
1FF0
3800
6000
E000
E000
E000
E000
7000
7F00
1FF0
03F8
0038
0018
0038
0030
0070
ENDCHAR
STARTCHAR omicron
ENCODING -1
SWIDTH 600 0
DWIDTH 17 0
BBX 13 15 2 0
BITMAP
0F80
3FE0
78F0
6070
E038
E038
E038
E038
E038
E038
E038
7070
78F0
3FE0
0F80
ENDCHAR
STARTCHAR pi
ENCODING -1
SWIDTH 600 0
DWIDTH 17 0
BBX 17 15 0 0
BITMAP
7FFF80
FFFF80
180C00
180C00
180C00
180C00
180C00
180C00
180C00
180C00
180C00
180C00
180C00
180F00
180700
ENDCHAR
STARTCHAR rho
ENCODING -1
SWIDTH 600 0
DWIDTH 17 0
BBX 13 22 2 -7
BITMAP
0F80
3FE0
78F0
6030
E038
E038
E038
C038
C038
C038
C038
C030
F0F0
FFE0
CF80
C000
C000
C000
C000
C000
C000
C000
ENDCHAR
STARTCHAR sigma1
ENCODING -1
SWIDTH 600 0
DWIDTH 17 0
BBX 13 20 2 -5
BITMAP
07F0
1FF8
3C30
7000
E000
E000
E000
E000
E000
E000
E000
7000
3E00
1FE0
03F0
0038
0018
0038
0030
0070
ENDCHAR
STARTCHAR sigma
ENCODING -1
SWIDTH 600 0
DWIDTH 17 0
BBX 14 15 2 0
BITMAP
0FFC
3FFC
7860
7070
E030
E038
E038
E038
E038
E038
E038
7030
78F0
3FE0
0F80
ENDCHAR
STARTCHAR tau
ENCODING -1
SWIDTH 600 0
DWIDTH 17 0
BBX 13 15 2 0
BITMAP
7FF8
FFF8
0C00
0C00
0C00
0C00
0C00
0C00
0C00
0C00
0C00
0E00
0F00
07F0
03F0
ENDCHAR
STARTCHAR upsilon
ENCODING -1
SWIDTH 600 0
DWIDTH 17 0
BBX 13 15 2 0
BITMAP
C030
C030
C030
C038
C038
C038
C018
C038
C038
E038
E038
6070
70F0
3FE0
1F80
ENDCHAR
STARTCHAR phi
ENCODING -1
SWIDTH 600 0
DWIDTH 17 0
BBX 15 22 1 -7
BITMAP
20F0
31F8
739C
630C
E30E
C30E
C306
C306
C30E
C30E
E30C
631C
7338
3FF0
0FE0
0300
0300
0300
0300
0300
0300
0300
ENDCHAR
STARTCHAR chi
ENCODING -1
SWIDTH 600 0
DWIDTH 17 0
BBX 15 22 1 -7
BITMAP
701C
7818
1C38
1C30
0C70
0E60
06E0
07C0
07C0
0380
0380
0380
07C0
0FC0
0EC0
1CE0
1C60
3870
3070
7038
603E
E01E
ENDCHAR
STARTCHAR psi
ENCODING -1
SWIDTH 600 0
DWIDTH 17 0
BBX 15 28 1 -7
BITMAP
0300
0300
0300
0300
0300
0300
C30C
C30C
C30C
C30E
C30E
C306
C306
C306
C30E
E30E
E30E
631C
733C
3FF8
1FE0
0300
0300
0300
0300
0300
0300
0300
ENDCHAR
STARTCHAR omega
ENCODING -1
SWIDTH 600 0
DWIDTH 17 0
BBX 15 15 1 0
BITMAP
601C
600C
600C
E00E
C006
C186
C186
C186
C186
C186
C186
E18E
63CC
7FFC
3C78
ENDCHAR
STARTCHAR iotadieresis
ENCODING -1
SWIDTH 600 0
DWIDTH 17 0
BBX 10 21 4 0
BITMAP
C300
E700
C300
0000
0000
0000
3000
3000
3000
3000
3000
3000
3000
3000
3000
3000
3000
3800
3C00
1FC0
0FC0
ENDCHAR
STARTCHAR upsilondieresis
ENCODING -1
SWIDTH 600 0
DWIDTH 17 0
BBX 13 21 2 0
BITMAP
1860
1CE0
1860
0000
0000
0000
C030
C030
C030
C038
C038
C038
C018
C038
C038
E038
E038
6070
70F0
3FE0
1F80
ENDCHAR
STARTCHAR omicrontonos
ENCODING -1
SWIDTH 600 0
DWIDTH 17 0
BBX 13 21 2 0
BITMAP
01C0
0180
0180
0300
0000
0000
0F80
3FE0
78F0
6070
E038
E038
E038
E038
E038
E038
E038
7070
78F0
3FE0
0F80
ENDCHAR
STARTCHAR upsilontonos
ENCODING -1
SWIDTH 600 0
DWIDTH 17 0
BBX 13 21 2 0
BITMAP
0380
0300
0300
0600
0000
0000
C030
C030
C030
C038
C038
C038
C018
C038
C038
E038
E038
6070
70F0
3FE0
1F80
ENDCHAR
STARTCHAR omegatonos
ENCODING -1
SWIDTH 600 0
DWIDTH 17 0
BBX 15 21 1 0
BITMAP
01C0
0180
0180
0300
0000
0000
601C
600C
600C
E00E
C006
C186
C186
C186
C186
C186
C186
E18E
63CC
7FFC
3C78
ENDCHAR
STARTCHAR uni0401
ENCODING -1
SWIDTH 600 0
DWIDTH 17 0
BBX 12 26 3 0
BITMAP
30C0
39C0
30C0
0000
0000
0000
FFF0
FFF0
E000
E000
E000
E000
E000
E000
FFE0
FFE0
E000
E000
E000
E000
E000
E000
E000
E000
FFF0
FFF0
ENDCHAR
STARTCHAR uni0402
ENCODING -1
SWIDTH 600 0
DWIDTH 17 0
BBX 16 20 0 0
BITMAP
FFE0
FFE0
0E00
0E00
0E00
0E00
0E00
0E00
0FF8
0FFE
0E0E
0E07
0E07
0E07
0E07
0E07
0E07
0E0E
0E7E
0E78
ENDCHAR
STARTCHAR uni0403
ENCODING -1
SWIDTH 600 0
DWIDTH 17 0
BBX 12 26 3 0
BITMAP
01C0
0380
0300
0600
0000
0000
FFF0
FFF0
E000
E000
E000
E000
E000
E000
E000
E000
E000
E000
E000
E000
E000
E000
E000
E000
E000
E000
ENDCHAR
STARTCHAR uni0404
ENCODING -1
SWIDTH 600 0
DWIDTH 17 0
BBX 14 20 2 0
BITMAP
03F0
0FFC
1E18
3800
7000
7000
E000
E000
FFE0
FFE0
E000
E000
E000
E000
7000
7000
7800
3E18
1FF8
07F0
ENDCHAR
STARTCHAR uni0405
ENCODING -1
SWIDTH 600 0
DWIDTH 17 0
BBX 13 20 2 0
BITMAP
0FE0
3FF8
7870
E000
E000
E000
E000
7000
7C00
1F80
07E0
01F0
0078
0038
0038
0038
0038
E0F0
FFE0
7F80
ENDCHAR
STARTCHAR uni0406
ENCODING -1
SWIDTH 600 0
DWIDTH 17 0
BBX 11 20 3 0
BITMAP
FFE0
FFE0
0E00
0E00
0E00
0E00
0E00
0E00
0E00
0E00
0E00
0E00
0E00
0E00
0E00
0E00
0E00
0E00
FFE0
FFE0
ENDCHAR
STARTCHAR uni0407
ENCODING -1
SWIDTH 600 0
DWIDTH 17 0
BBX 11 26 3 0
BITMAP
30C0
39C0
30C0
0000
0000
0000
FFE0
FFE0
0E00
0E00
0E00
0E00
0E00
0E00
0E00
0E00
0E00
0E00
0E00
0E00
0E00
0E00
0E00
0E00
FFE0
FFE0
ENDCHAR
STARTCHAR uni0408
ENCODING -1
SWIDTH 600 0
DWIDTH 17 0
BBX 12 20 2 0
BITMAP
0070
0070
0070
0070
0070
0070
0070
0070
0070
0070
0070
0070
0070
0070
0070
0070
00E0
C3E0
FFC0
7F00
ENDCHAR
STARTCHAR uni0409
ENCODING -1
SWIDTH 600 0
DWIDTH 17 0
BBX 17 20 0 0
BITMAP
1FE000
1FE000
18E000
18E000
18E000
18E000
18E000
18E000
18FC00
18FF00
18E700
18E380
38E380
38E180
38E180
30E380
30E380
30E700
F0FE00
E0FC00
ENDCHAR
STARTCHAR uni040A
ENCODING -1
SWIDTH 600 0
DWIDTH 17 0
BBX 16 20 1 0
BITMAP
E1C0
E1C0
E1C0
E1C0
E1C0
E1C0
E1C0
E1C0
FFF8
FFFC
E1CE
E1C7
E1C7
E1C3
E1C3
E1C7
E1C7
E1CE
E1FC
E1F8
ENDCHAR
STARTCHAR uni040B
ENCODING -1
SWIDTH 600 0
DWIDTH 17 0
BBX 16 20 0 0
BITMAP
FFE0
FFE0
0E00
0E00
0E00
0E00
0E00
0E00
0FF8
0FFE
0E0E
0E07
0E07
0E07
0E07
0E07
0E07
0E07
0E07
0E07
ENDCHAR
STARTCHAR uni040C
ENCODING -1
SWIDTH 600 0
DWIDTH 17 0
BBX 13 26 3 0
BITMAP
01C0
0380
0300
0600
0000
0000
E038
E070
E0E0
E0C0
E1C0
E380
E700
EE00
EC00
F800
FC00
EE00
E700
E700
E380
E1C0
E0E0
E0E0
E070
E038
ENDCHAR
STARTCHAR uni040E
ENCODING -1
SWIDTH 600 0
DWIDTH 17 0
BBX 17 26 0 0
BITMAP
0C0C00
0E1C00
07F800
03F000
000000
000000
E00380
700300
700700
380600
380E00
1C0E00
1C1C00
0E1C00
0E1800
073800
073000
03F000
01E000
01E000
00C000
01C000
018000
478000
7F0000
7C0000
ENDCHAR
STARTCHAR uni040F
ENCODING -1
SWIDTH 600 0
DWIDTH 17 0
BBX 13 25 2 -5
BITMAP
E038
E038
E038
E038
E038
E038
E038
E038
E038
E038
E038
E038
E038
E038
E038
E038
E038
E038
FFF8
FFF8
0700
0700
0700
0700
0700
ENDCHAR
STARTCHAR uni0410
ENCODING -1
SWIDTH 600 0
DWIDTH 17 0
BBX 17 20 0 0
BITMAP
01C000
01C000
03E000
036000
036000
077000
063000
0E3800
0E3800
0C1800
1C1C00
1C1C00
1FFC00
3FFE00
380E00
300600
700700
700700
600300
E00380
ENDCHAR
STARTCHAR uni0411
ENCODING -1
SWIDTH 600 0
DWIDTH 17 0
BBX 14 20 2 0
BITMAP
FFF8
FFF8
E000
E000
E000
E000
E000
E000
FFC0
FFF0
E078
E03C
E01C
E01C
E01C
E01C
E03C
E078
FFF0
FFC0
ENDCHAR
STARTCHAR uni0412
ENCODING -1
SWIDTH 600 0
DWIDTH 17 0
BBX 14 20 2 0
BITMAP
FFC0
FFF0
E0F8
E038
E038
E038
E038
E070
FFE0
FFE0
E078
E018
E01C
E01C
E01C
E01C
E03C
E078
FFF0
FFC0
ENDCHAR
STARTCHAR uni0413
ENCODING -1
SWIDTH 600 0
DWIDTH 17 0
BBX 12 20 3 0
BITMAP
FFF0
FFF0
E000
E000
E000
E000
E000
E000
E000
E000
E000
E000
E000
E000
E000
E000
E000
E000
E000
E000
ENDCHAR
STARTCHAR uni0414
ENCODING -1
SWIDTH 600 0
DWIDTH 17 0
BBX 17 25 0 -5
BITMAP
03FC00
03FC00
039C00
031C00
031C00
071C00
071C00
071C00
071C00
061C00
0E1C00
0E1C00
0E1C00
0C1C00
1C1C00
1C1C00
181C00
381C00
FFFF80
FFFF80
C00180
C00180
C00180
C00180
C00180
ENDCHAR
STARTCHAR uni0415
ENCODING -1
SWIDTH 600 0
DWIDTH 17 0
BBX 12 20 3 0
BITMAP
FFF0
FFF0
E000
E000
E000
E000
E000
E000
FFE0
FFE0
E000
E000
E000
E000
E000
E000
E000
E000
FFF0
FFF0
ENDCHAR
STARTCHAR uni0416
ENCODING -1
SWIDTH 600 0
DWIDTH 17 0
BBX 17 20 0 0
BITMAP
C1C180
61C300
61C700
31C600
31CE00
19CC00
19DC00
0DD800
0DF000
07F000
0FF000
0DF800
1DD800
19DC00
39CC00
31CE00
71C600
61C700
E1C300
C1C380
ENDCHAR
STARTCHAR uni0417
ENCODING -1
SWIDTH 600 0
DWIDTH 17 0
BBX 13 20 2 0
BITMAP
1FC0
7FE0
F0F0
4038
0038
0038
0038
0070
00E0
3F80
3FC0
00F0
0038
0038
0038
0038
0038
E0F0
FFE0
7F80
ENDCHAR
STARTCHAR uni0418
ENCODING -1
SWIDTH 600 0
DWIDTH 17 0
BBX 14 20 2 0
BITMAP
C01C
C03C
C03C
C07C
C06C
C0EC
C0CC
C1CC
C18C
C38C
C70C
C60C
CE0C
CC0C
DC0C
D80C
F80C
F00C
F00C
E00C
ENDCHAR
STARTCHAR uni0419
ENCODING -1
SWIDTH 600 0
DWIDTH 17 0
BBX 14 26 2 0
BITMAP
3030
3870
1FE0
0FC0
0000
0000
C01C
C03C
C03C
C07C
C06C
C0EC
C0CC
C1CC
C18C
C38C
C70C
C60C
CE0C
CC0C
DC0C
D80C
F80C
F00C
F00C
E00C
ENDCHAR
STARTCHAR uni041A
ENCODING -1
SWIDTH 600 0
DWIDTH 17 0
BBX 13 20 3 0
BITMAP
E038
E070
E0E0
E0C0
E1C0
E380
E700
EE00
EC00
F800
FC00
EE00
E700
E700
E380
E1C0
E0E0
E0E0
E070
E038
ENDCHAR
STARTCHAR uni041B
ENCODING -1
SWIDTH 600 0
DWIDTH 17 0
BBX 15 20 0 0
BITMAP
03FE
03FE
038E
030E
070E
070E
070E
070E
070E
070E
060E
0E0E
0E0E
0E0E
0E0E
0C0E
1C0E
3C0E
F80E
F00E
ENDCHAR
STARTCHAR uni041C
ENCODING -1
SWIDTH 600 0
DWIDTH 17 0
BBX 13 20 2 0
BITMAP
E038
F078
F078
F078
F078
D058
D0D8
D8D8
D8D8
D8D8
C898
C998
CD98
CD98
CD98
C518
C718
C718
C718
C718
ENDCHAR
STARTCHAR uni041D
ENCODING -1
SWIDTH 600 0
DWIDTH 17 0
BBX 13 20 2 0
BITMAP
E038
E038
E038
E038
E038
E038
E038
E038
FFF8
FFF8
E038
E038
E038
E038
E038
E038
E038
E038
E038
E038
ENDCHAR
STARTCHAR uni041E
ENCODING -1
SWIDTH 600 0
DWIDTH 17 0
BBX 15 20 1 0
BITMAP
07C0
1FF0
3C78
701C
701C
E00C
E00E
E00E
E00E
E00E
E00E
E00E
E00E
E00E
600C
701C
701C
3C78
1FF0
0FC0
ENDCHAR
STARTCHAR uni041F
ENCODING -1
SWIDTH 600 0
DWIDTH 17 0
BBX 13 20 2 0
BITMAP
FFF8
FFF8
E038
E038
E038
E038
E038
E038
E038
E038
E038
E038
E038
E038
E038
E038
E038
E038
E038
E038
ENDCHAR
STARTCHAR uni0420
ENCODING -1
SWIDTH 600 0
DWIDTH 17 0
BBX 13 20 2 0
BITMAP
FF80
FFE0
E0F0
E078
E038
E038
E038
E038
E038
E0F0
FFE0
FF80
E000
E000
E000
E000
E000
E000
E000
E000
ENDCHAR
STARTCHAR uni0421
ENCODING -1
SWIDTH 600 0
DWIDTH 17 0
BBX 14 20 2 0
BITMAP
03F0
0FFC
1E18
3800
7000
7000
E000
E000
E000
E000
E000
E000
E000
E000
6000
7000
7800
3E18
1FF8
07F0
ENDCHAR
STARTCHAR uni0422
ENCODING -1
SWIDTH 600 0
DWIDTH 17 0
BBX 14 20 1 0
BITMAP
FFFC
FFFC
0380
0380
0380
0380
0380
0380
0380
0380
0380
0380
0380
0380
0380
0380
0380
0380
0380
0380
ENDCHAR
STARTCHAR uni0423
ENCODING -1
SWIDTH 600 0
DWIDTH 17 0
BBX 17 20 0 0
BITMAP
E00380
700300
700700
380600
380E00
1C0E00
1C1C00
0E1C00
0E1800
073800
073000
03F000
01E000
01E000
00C000
01C000
018000
478000
7F0000
7C0000
ENDCHAR
STARTCHAR uni0424
ENCODING -1
SWIDTH 600 0
DWIDTH 17 0
BBX 16 20 0 0
BITMAP
01C0
01C0
0FF8
3FFC
79DE
71CE
E1C7
E1C7
E1C7
E1C7
E1C7
E1C7
E1C7
71CE
79DE
3FFC
0FF0
01C0
01C0
01C0
ENDCHAR
STARTCHAR uni0425
ENCODING -1
SWIDTH 600 0
DWIDTH 17 0
BBX 15 20 1 0
BITMAP
E00E
701C
3018
3838
1830
1C70
0EE0
06C0
07C0
0380
0380
07C0
0EE0
0CE0
1C70
1830
3838
701C
601C
E00E
ENDCHAR
STARTCHAR uni0426
ENCODING -1
SWIDTH 600 0
DWIDTH 17 0
BBX 14 25 2 -5
BITMAP
E070
E070
E070
E070
E070
E070
E070
E070
E070
E070
E070
E070
E070
E070
E070
E070
E070
E070
FFFC
FFFC
000C
000C
000C
000C
000C
ENDCHAR
STARTCHAR uni0427
ENCODING -1
SWIDTH 600 0
DWIDTH 17 0
BBX 13 20 2 0
BITMAP
E038
E038
E038
E038
E038
E038
E038
E038
E038
E038
F0F8
7FF8
3F38
0038
0038
0038
0038
0038
0038
0038
ENDCHAR
STARTCHAR uni0428
ENCODING -1
SWIDTH 600 0
DWIDTH 17 0
BBX 13 20 2 0
BITMAP
E738
E738
E738
E738
E738
E738
E738
E738
E738
E738
E738
E738
E738
E738
E738
E738
E738
E738
FFF8
FFF8
ENDCHAR
STARTCHAR uni0429
ENCODING -1
SWIDTH 600 0
DWIDTH 17 0
BBX 16 25 1 -5
BITMAP
E39C
E39C
E39C
E39C
E39C
E39C
E39C
E39C
E39C
E39C
E39C
E39C
E39C
E39C
E39C
E39C
E39C
E39C
FFFF
FFFF
0003
0003
0003
0003
0003
ENDCHAR
STARTCHAR uni042A
ENCODING -1
SWIDTH 600 0
DWIDTH 17 0
BBX 16 20 0 0
BITMAP
FE00
FE00
0E00
0E00
0E00
0E00
0E00
0E00
0FF0
0FFC
0E3E
0E0E
0E07
0E07
0E07
0E07
0E0E
0E1E
0FFC
0FF0
ENDCHAR
STARTCHAR uni042B
ENCODING -1
SWIDTH 600 0
DWIDTH 17 0
BBX 15 20 1 0
BITMAP
E006
E006
E006
E006
E006
E006
E006
E006
FE06
FF86
E3C6
E0E6
E0E6
E066
E066
E0E6
E0E6
E3C6
FF86
FE06
ENDCHAR
STARTCHAR uni042C
ENCODING -1
SWIDTH 600 0
DWIDTH 17 0
BBX 13 20 2 0
BITMAP
E000
E000
E000
E000
E000
E000
E000
E000
FF80
FFE0
E0F0
E078
E038
E038
E038
E038
E078
E0F0
FFE0
FF80
ENDCHAR
STARTCHAR uni042D
ENCODING -1
SWIDTH 600 0
DWIDTH 17 0
BBX 14 20 1 0
BITMAP
7F00
FFC0
E1F0
0070
0038
0018
001C
001C
1FFC
1FFC
001C
001C
001C
001C
0038
0038
0070
C3E0
FFC0
7F00
ENDCHAR
STARTCHAR uni042E
ENCODING -1
SWIDTH 600 0
DWIDTH 17 0
BBX 15 20 1 0
BITMAP
E1F0
E3F8
E7BC
E60C
EE0C
EE0E
EE0E
EC06
FC06
FC06
EC06
EC06
EC06
EC0E
EE0E
E60C
E60C
E7BC
E3F8
E1F0
ENDCHAR
STARTCHAR uni042F
ENCODING -1
SWIDTH 600 0
DWIDTH 17 0
BBX 13 20 1 0
BITMAP
0FF8
1FF8
3C38
7038
7038
7038
7038
7038
7038
3C38
1FF8
07F8
0E38
0C38
1C38
3838
3838
7038
7038
E038
ENDCHAR
STARTCHAR uni0430
ENCODING -1
SWIDTH 600 0
DWIDTH 17 0
BBX 12 15 2 0
BITMAP
1F80
7FE0
30F0
0070
0070
0030
0FF0
7FF0
7030
E070
E070
E070
E0F0
7FB0
3E30
ENDCHAR
STARTCHAR uni0431
ENCODING -1
SWIDTH 600 0
DWIDTH 17 0
BBX 13 21 2 0
BITMAP
0038
07F8
1FE0
3C00
7000
6000
6000
E7C0
FFE0
F870
F030
E038
E038
E038
E038
E038
6038
7030
3870
3FE0
0F80
ENDCHAR
STARTCHAR uni0432
ENCODING -1
SWIDTH 600 0
DWIDTH 17 0
BBX 13 15 2 0
BITMAP
FFE0
FFF0
C038
C038
C038
C030
FFE0
FFE0
C070
C038
C018
C038
C078
FFF0
FFC0
ENDCHAR
STARTCHAR uni0433
ENCODING -1
SWIDTH 600 0
DWIDTH 17 0
BBX 10 15 4 0
BITMAP
FFC0
FFC0
C000
C000
C000
C000
C000
C000
C000
C000
C000
C000
C000
C000
C000
ENDCHAR
STARTCHAR uni0434
ENCODING -1
SWIDTH 600 0
DWIDTH 17 0
BBX 16 20 0 -5
BITMAP
07FC
07FC
060C
060C
060C
0E0C
0C0C
0C0C
1C0C
180C
180C
300C
700C
FFFF
FFFF
C003
C003
C003
C003
C003
ENDCHAR
STARTCHAR uni0435
ENCODING -1
SWIDTH 600 0
DWIDTH 17 0
BBX 13 15 2 0
BITMAP
0F80
3FE0
7870
6030
E038
E038
FFF8
FFF8
E000
E000
E000
7000
7830
3FF0
0FE0
ENDCHAR
STARTCHAR uni0436
ENCODING -1
SWIDTH 600 0
DWIDTH 17 0
BBX 17 15 0 0
BITMAP
E18380
618300
718600
398E00
199C00
0D9800
0FB000
07F000
0DB800
1D9800
198C00
398E00
718600
618300
E18380
ENDCHAR
STARTCHAR uni0437
ENCODING -1
SWIDTH 600 0
DWIDTH 17 0
BBX 11 15 3 0
BITMAP
7F80
FFC0
41E0
00E0
00E0
00C0
1F80
1FC0
01C0
00E0
0060
00E0
C1E0
FFC0
7F00
ENDCHAR
STARTCHAR uni0438
ENCODING -1
SWIDTH 600 0
DWIDTH 17 0
BBX 13 15 2 0
BITMAP
C078
C078
C0F8
C0D8
C1D8
C398
C318
C718
C618
CE18
DC18
D818
F818
F018
F018
ENDCHAR
STARTCHAR uni0439
ENCODING -1
SWIDTH 600 0
DWIDTH 17 0
BBX 13 21 2 0
BITMAP
3030
3870
1FE0
0FC0
0000
0000
C078
C078
C0F8
C0D8
C1D8
C398
C318
C718
C618
CE18
DC18
D818
F818
F018
F018
ENDCHAR
STARTCHAR uni043A
ENCODING -1
SWIDTH 600 0
DWIDTH 17 0
BBX 13 15 3 0
BITMAP
C070
C0E0
C1C0
C380
C700
CE00
DC00
FC00
CE00
C700
C780
C3C0
C1E0
C0F0
C078
ENDCHAR
STARTCHAR uni043B
ENCODING -1
SWIDTH 600 0
DWIDTH 17 0
BBX 14 15 0 0
BITMAP
07FC
07FC
060C
060C
060C
0E0C
0E0C
0C0C
0C0C
0C0C
1C0C
180C
380C
F00C
E00C
ENDCHAR
STARTCHAR uni043C
ENCODING -1
SWIDTH 600 0
DWIDTH 17 0
BBX 13 15 2 0
BITMAP
E038
E038
F078
F078
D058
D8D8
D8D8
D8D8
C898
CD98
CD98
C518
C518
C718
C718
ENDCHAR
STARTCHAR uni043D
ENCODING -1
SWIDTH 600 0
DWIDTH 17 0
BBX 13 15 2 0
BITMAP
C018
C018
C018
C018
C018
C018
FFF8
FFF8
C018
C018
C018
C018
C018
C018
C018
ENDCHAR
STARTCHAR uni043E
ENCODING -1
SWIDTH 600 0
DWIDTH 17 0
BBX 13 15 2 0
BITMAP
0F80
3FE0
78F0
6070
E038
E038
E038
E038
E038
E038
E038
7070
78F0
3FE0
0F80
ENDCHAR
STARTCHAR uni043F
ENCODING -1
SWIDTH 600 0
DWIDTH 17 0
BBX 13 15 2 0
BITMAP
FFF8
FFF8
C018
C018
C018
C018
C018
C018
C018
C018
C018
C018
C018
C018
C018
ENDCHAR
STARTCHAR uni0440
ENCODING -1
SWIDTH 600 0
DWIDTH 17 0
BBX 13 22 2 -7
BITMAP
C7C0
DFE0
F0F0
E070
E038
E038
E038
C038
E038
E038
E038
E070
F0F0
DFE0
CFC0
C000
C000
C000
C000
C000
C000
C000
ENDCHAR
STARTCHAR uni0441
ENCODING -1
SWIDTH 600 0
DWIDTH 17 0
BBX 12 15 2 0
BITMAP
0FE0
3FF0
7820
7000
E000
E000
E000
E000
E000
E000
E000
7000
7830
3FF0
0FE0
ENDCHAR
STARTCHAR uni0442
ENCODING -1
SWIDTH 600 0
DWIDTH 17 0
BBX 13 15 2 0
BITMAP
FFF8
FFF8
0600
0600
0600
0600
0600
0600
0600
0600
0600
0600
0600
0600
0600
ENDCHAR
STARTCHAR uni0443
ENCODING -1
SWIDTH 600 0
DWIDTH 17 0
BBX 15 22 1 -7
BITMAP
E00E
600C
701C
701C
3018
3838
1830
1C70
0C70
0E60
0EE0
06C0
06C0
03C0
0380
0380
0300
0700
0700
0E00
FC00
F800
ENDCHAR
STARTCHAR uni0444
ENCODING -1
SWIDTH 600 0
DWIDTH 17 0
BBX 15 28 1 -7
BITMAP
0180
0180
0180
0180
0180
0180
0FE0
3FF8
799C
618C
E18E
C186
C186
C186
C186
C186
E18E
618C
799C
3FF8
07E0
0180
0180
0180
0180
0180
0180
0180
ENDCHAR
STARTCHAR uni0445
ENCODING -1
SWIDTH 600 0
DWIDTH 17 0
BBX 15 15 1 0
BITMAP
700C
701C
3838
1C70
0EE0
06C0
07C0
0380
07C0
0EE0
1C70
1C70
3838
701C
E00E
ENDCHAR
STARTCHAR uni0446
ENCODING -1
SWIDTH 600 0
DWIDTH 17 0
BBX 14 20 2 -5
BITMAP
C030
C030
C030
C030
C030
C030
C030
C030
C030
C030
C030
C030
C030
FFFC
FFFC
000C
000C
000C
000C
000C
ENDCHAR
STARTCHAR uni0447
ENCODING -1
SWIDTH 600 0
DWIDTH 17 0
BBX 13 15 2 0
BITMAP
C018
C018
C018
C018
C018
C018
E038
F0F8
7FD8
3F18
0018
0018
0018
0018
0018
ENDCHAR
STARTCHAR uni0448
ENCODING -1
SWIDTH 600 0
DWIDTH 17 0
BBX 13 15 2 0
BITMAP
C618
C618
C618
C618
C618
C618
C618
C618
C618
C618
C618
C618
C618
FFF8
FFF8
ENDCHAR
STARTCHAR uni0449
ENCODING -1
SWIDTH 600 0
DWIDTH 17 0
BBX 16 20 1 -5
BITMAP
C30C
C30C
C30C
C30C
C30C
C30C
C30C
C30C
C30C
C30C
C30C
C30C
C30C
FFFF
FFFF
0003
0003
0003
0003
0003
ENDCHAR
STARTCHAR uni044A
ENCODING -1
SWIDTH 600 0
DWIDTH 17 0
BBX 15 15 1 0
BITMAP
FE00
FE00
0600
0600
0600
0600
07F8
07FC
060E
0606
0606
0606
060E
07FC
07F8
ENDCHAR
STARTCHAR uni044B
ENCODING -1
SWIDTH 600 0
DWIDTH 17 0
BBX 13 15 2 0
BITMAP
C018
C018
C018
C018
C018
C018
FE18
FF18
C398
C198
C198
C198
C398
FF18
FC18
ENDCHAR
STARTCHAR uni044C
ENCODING -1
SWIDTH 600 0
DWIDTH 17 0
BBX 12 15 3 0
BITMAP
C000
C000
C000
C000
C000
C000
FF80
FFE0
C0F0
C070
C030
C070
C0F0
FFE0
FF80
ENDCHAR
STARTCHAR uni044D
ENCODING -1
SWIDTH 600 0
DWIDTH 17 0
BBX 12 15 3 0
BITMAP
7F00
FFC0
41E0
00E0
0070
0070
3FF0
3FF0
0070
0070
0070
00E0
C1E0
FFC0
7F00
ENDCHAR
STARTCHAR uni044E
ENCODING -1
SWIDTH 600 0
DWIDTH 17 0
BBX 14 15 2 0
BITMAP
C1E0
C7F0
C738
CE18
CC0C
CC0C
FC0C
FC0C
CC0C
CC0C
CC0C
C618
C738
C3F0
C1E0
ENDCHAR
STARTCHAR uni044F
ENCODING -1
SWIDTH 600 0
DWIDTH 17 0
BBX 13 15 1 0
BITMAP
0FF8
3FF8
7818
7018
6018
7018
7818
3FF8
0FF8
0C18
1C18
3818
3018
7018
E018
ENDCHAR
STARTCHAR uni0451
ENCODING -1
SWIDTH 600 0
DWIDTH 17 0
BBX 13 21 2 0
BITMAP
1860
1CE0
1860
0000
0000
0000
0F80
3FE0
7870
6030
E038
E038
FFF8
FFF8
E000
E000
E000
7000
7830
3FF0
0FE0
ENDCHAR
STARTCHAR uni0452
ENCODING -1
SWIDTH 600 0
DWIDTH 17 0
BBX 15 28 0 -7
BITMAP
3000
3000
FFC0
FFC0
3000
3000
31F0
37FC
3E1C
380E
380E
3806
3806
3006
3006
3006
3006
3006
3006
3006
3006
0006
0006
0006
000E
000E
007C
0078
ENDCHAR
STARTCHAR uni0453
ENCODING -1
SWIDTH 600 0
DWIDTH 17 0
BBX 10 21 4 0
BITMAP
0700
0E00
0C00
1800
0000
0000
FFC0
FFC0
C000
C000
C000
C000
C000
C000
C000
C000
C000
C000
C000
C000
C000
ENDCHAR
STARTCHAR uni0454
ENCODING -1
SWIDTH 600 0
DWIDTH 17 0
BBX 12 15 2 0
BITMAP
0FE0
3FF0
7830
7000
E000
E000
FFC0
FFC0
E000
E000
E000
7000
7830
3FF0
0FE0
ENDCHAR
STARTCHAR uni0455
ENCODING -1
SWIDTH 600 0
DWIDTH 17 0
BBX 11 15 3 0
BITMAP
1FC0
7FE0
E0C0
C000
E000
F000
7E00
1F80
03C0
00E0
00E0
00E0
C1E0
FFC0
7F00
ENDCHAR
STARTCHAR uni0456
ENCODING -1
SWIDTH 600 0
DWIDTH 17 0
BBX 12 21 2 0
BITMAP
0600
0700
0600
0000
0000
0000
7E00
7E00
0600
0600
0600
0600
0600
0600
0600
0600
0600
0600
0600
FFF0
FFF0
ENDCHAR
STARTCHAR uni0457
ENCODING -1
SWIDTH 600 0
DWIDTH 17 0
BBX 12 21 2 0
BITMAP
30C0
39C0
30C0
0000
0000
0000
7E00
7E00
0600
0600
0600
0600
0600
0600
0600
0600
0600
0600
0600
FFF0
FFF0
ENDCHAR
STARTCHAR uni0458
ENCODING -1
SWIDTH 600 0
DWIDTH 17 0
BBX 10 28 2 -7
BITMAP
01C0
01C0
01C0
0000
0000
0000
3FC0
3FC0
00C0
00C0
00C0
00C0
00C0
00C0
00C0
00C0
00C0
00C0
00C0
00C0
00C0
00C0
00C0
01C0
01C0
0380
FF80
FE00
ENDCHAR
STARTCHAR uni0459
ENCODING -1
SWIDTH 600 0
DWIDTH 17 0
BBX 16 15 0 0
BITMAP
1F80
1F80
1980
1980
1980
1980
39F8
39FE
3187
3183
3183
3183
3187
F1FE
E1F8
ENDCHAR
STARTCHAR uni045A
ENCODING -1
SWIDTH 600 0
DWIDTH 17 0
BBX 16 15 1 0
BITMAP
C180
C180
C180
C180
C180
C180
FFF8
FFFE
C187
C183
C183
C183
C18F
C1FE
C1F8
ENDCHAR
STARTCHAR uni045B
ENCODING -1
SWIDTH 600 0
DWIDTH 17 0
BBX 15 21 0 0
BITMAP
3800
3800
FFE0
FFE0
3000
3000
31F0
37FC
3E1C
380E
380E
3806
3806
3006
3006
3006
3006
3006
3006
3006
3006
ENDCHAR
STARTCHAR uni045C
ENCODING -1
SWIDTH 600 0
DWIDTH 17 0
BBX 13 21 3 0
BITMAP
0380
0700
0600
0C00
0000
0000
C030
C060
C0C0
C180
C300
C600
CC00
DC00
FE00
E700
C380
C1C0
C0E0
C070
C038
ENDCHAR
STARTCHAR uni045E
ENCODING -1
SWIDTH 600 0
DWIDTH 17 0
BBX 15 28 1 -7
BITMAP
1818
1C38
0FF0
07E0
0000
0000
E00E
600C
701C
701C
3018
3838
1830
1C70
0C70
0E60
0EE0
06C0
06C0
03C0
0380
0380
0300
0700
0700
0E00
FC00
F800
ENDCHAR
STARTCHAR uni045F
ENCODING -1
SWIDTH 600 0
DWIDTH 17 0
BBX 13 20 2 -5
BITMAP
C018
C018
C018
C018
C018
C018
C018
C018
C018
C018
C018
C018
C018
FFF8
FFF8
0600
0600
0600
0600
0600
ENDCHAR
STARTCHAR uni0490
ENCODING -1
SWIDTH 600 0
DWIDTH 17 0
BBX 12 24 3 0
BITMAP
0030
0030
0030
0030
FFF0
FFF0
E000
E000
E000
E000
E000
E000
E000
E000
E000
E000
E000
E000
E000
E000
E000
E000
E000
E000
ENDCHAR
STARTCHAR uni0491
ENCODING -1
SWIDTH 600 0
DWIDTH 17 0
BBX 10 19 4 0
BITMAP
00C0
00C0
00C0
00C0
FFC0
FFC0
C000
C000
C000
C000
C000
C000
C000
C000
C000
C000
C000
C000
C000
ENDCHAR
STARTCHAR Wgrave
ENCODING -1
SWIDTH 600 0
DWIDTH 17 0
BBX 17 26 0 0
BITMAP
070000
038000
018000
00C000
000000
000000
C00180
E00180
E00380
600380
600300
600300
61C300
61C300
714300
736300
336300
336300
333700
363600
363600
361E00
341E00
1C1E00
1C0E00
1C0E00
ENDCHAR
STARTCHAR wgrave
ENCODING -1
SWIDTH 600 0
DWIDTH 17 0
BBX 17 21 0 0
BITMAP
070000
038000
018000
00C000
000000
000000
C1C180
E1C180
614300
636300
636300
636300
636300
322600
363600
363600
363600
363600
141400
1C1C00
1C1C00
ENDCHAR
STARTCHAR Wacute
ENCODING -1
SWIDTH 600 0
DWIDTH 17 0
BBX 17 26 0 0
BITMAP
007000
00E000
00C000
018000
000000
000000
C00180
E00180
E00380
600380
600300
600300
61C300
61C300
714300
736300
336300
336300
333700
363600
363600
361E00
341E00
1C1E00
1C0E00
1C0E00
ENDCHAR
STARTCHAR wacute
ENCODING -1
SWIDTH 600 0
DWIDTH 17 0
BBX 17 21 0 0
BITMAP
003800
007000
006000
00C000
000000
000000
C1C180
E1C180
614300
636300
636300
636300
636300
322600
363600
363600
363600
363600
141400
1C1C00
1C1C00
ENDCHAR
STARTCHAR Wdieresis
ENCODING -1
SWIDTH 600 0
DWIDTH 17 0
BBX 17 26 0 0
BITMAP
061800
073800
061800
000000
000000
000000
C00180
E00180
E00380
600380
600300
600300
61C300
61C300
714300
736300
336300
336300
333700
363600
363600
361E00
341E00
1C1E00
1C0E00
1C0E00
ENDCHAR
STARTCHAR wdieresis
ENCODING -1
SWIDTH 600 0
DWIDTH 17 0
BBX 17 21 0 0
BITMAP
061800
073800
061800
000000
000000
000000
C1C180
E1C180
614300
636300
636300
636300
636300
322600
363600
363600
363600
363600
141400
1C1C00
1C1C00
ENDCHAR
STARTCHAR Ygrave
ENCODING -1
SWIDTH 600 0
DWIDTH 17 0
BBX 16 26 0 0
BITMAP
0E00
0700
0300
0180
0000
0000
E007
700E
700E
381C
181C
1C38
0C38
0E70
0660
03E0
03C0
01C0
01C0
01C0
01C0
01C0
01C0
01C0
01C0
01C0
ENDCHAR
STARTCHAR ygrave
ENCODING -1
SWIDTH 600 0
DWIDTH 17 0
BBX 15 28 1 -7
BITMAP
0E00
0700
0300
0180
0000
0000
E00E
600C
701C
701C
3018
3838
1830
1C70
0C70
0E60
0EE0
06C0
06C0
03C0
0380
0380
0300
0700
0700
0E00
FC00
F800
ENDCHAR
STARTCHAR endash
ENCODING -1
SWIDTH 600 0
DWIDTH 17 0
BBX 11 2 3 7
BITMAP
FFE0
FFE0
ENDCHAR
STARTCHAR emdash
ENCODING -1
SWIDTH 600 0
DWIDTH 17 0
BBX 17 2 0 7
BITMAP
FFFF80
FFFF80
ENDCHAR
STARTCHAR uni2015
ENCODING -1
SWIDTH 600 0
DWIDTH 17 0
BBX 17 2 0 7
BITMAP
FFFF80
FFFF80
ENDCHAR
STARTCHAR underscoredbl
ENCODING -1
SWIDTH 600 0
DWIDTH 17 0
BBX 17 5 0 -6
BITMAP
FFFF80
FFFF80
000000
FFFF80
FFFF80
ENDCHAR
STARTCHAR quoteleft
ENCODING -1
SWIDTH 600 0
DWIDTH 17 0
BBX 5 7 6 13
BITMAP
38
38
70
70
70
F0
E0
ENDCHAR
STARTCHAR quoteright
ENCODING -1
SWIDTH 600 0
DWIDTH 17 0
BBX 5 7 6 13
BITMAP
38
78
70
70
70
E0
E0
ENDCHAR
STARTCHAR quotesinglbase
ENCODING -1
SWIDTH 600 0
DWIDTH 17 0
BBX 5 8 6 -5
BITMAP
38
78
70
70
70
60
E0
C0
ENDCHAR
STARTCHAR quotereversed
ENCODING -1
SWIDTH 600 0
DWIDTH 17 0
BBX 5 7 6 13
BITMAP
E0
F0
70
70
70
38
38
ENDCHAR
STARTCHAR quotedblleft
ENCODING -1
SWIDTH 600 0
DWIDTH 17 0
BBX 11 7 3 13
BITMAP
38E0
38E0
71C0
71C0
71C0
F3C0
E380
ENDCHAR
STARTCHAR quotedblright
ENCODING -1
SWIDTH 600 0
DWIDTH 17 0
BBX 11 7 3 13
BITMAP
38E0
79E0
71C0
71C0
71C0
E380
E380
ENDCHAR
STARTCHAR quotedblbase
ENCODING -1
SWIDTH 600 0
DWIDTH 17 0
BBX 11 8 3 -5
BITMAP
38E0
79E0
71C0
71C0
71C0
6180
E380
C300
ENDCHAR
STARTCHAR dagger
ENCODING -1
SWIDTH 600 0
DWIDTH 17 0
BBX 11 21 3 0
BITMAP
0E00
0E00
0E00
0C00
0400
FFE0
FFE0
0400
0400
0400
0400
0C00
0E00
0E00
0E00
0E00
0E00
0E00
0E00
0E00
0E00
ENDCHAR
STARTCHAR daggerdbl
ENCODING -1
SWIDTH 600 0
DWIDTH 17 0
BBX 11 21 3 0
BITMAP
0E00
0E00
0E00
0E00
0400
FFE0
FFE0
0400
0E00
0E00
0E00
0E00
0C00
0400
FFE0
FFE0
0400
0C00
0E00
0E00
0E00
ENDCHAR
STARTCHAR bullet
ENCODING -1
SWIDTH 600 0
DWIDTH 17 0
BBX 6 7 6 7
BITMAP
78
FC
FC
FC
FC
FC
78
ENDCHAR
STARTCHAR ellipsis
ENCODING -1
SWIDTH 600 0
DWIDTH 17 0
BBX 15 4 1 0
BITMAP
6186
E38E
E38E
E38E
ENDCHAR
STARTCHAR perthousand
ENCODING -1
SWIDTH 600 0
DWIDTH 17 0
BBX 16 20 0 0
BITMAP
7800
7C00
C600
C600
C600
C600
7C00
3CC0
03C0
1E00
F000
C000
1E3C
1F3E
31E3
31E3
31E3
31E3
1F3E
0F1E
ENDCHAR
STARTCHAR minute
ENCODING -1
SWIDTH 600 0
DWIDTH 17 0
BBX 3 8 7 12
BITMAP
E0
E0
E0
E0
E0
E0
E0
60
ENDCHAR
STARTCHAR second
ENCODING -1
SWIDTH 600 0
DWIDTH 17 0
BBX 9 8 4 12
BITMAP
E380
E380
E380
E380
E380
E380
E380
6180
ENDCHAR
STARTCHAR guilsinglleft
ENCODING -1
SWIDTH 600 0
DWIDTH 17 0
BBX 6 11 5 2
BITMAP
08
1C
38
70
60
E0
60
70
38
1C
08
ENDCHAR
STARTCHAR guilsinglright
ENCODING -1
SWIDTH 600 0
DWIDTH 17 0
BBX 6 11 5 2
BITMAP
40
E0
70
38
18
1C
18
38
70
E0
40
ENDCHAR
STARTCHAR exclamdbl
ENCODING -1
SWIDTH 600 0
DWIDTH 17 0
BBX 9 20 4 0
BITMAP
E380
E380
E380
E380
E380
E380
6180
6180
6180
6180
6180
6180
6180
6180
0000
0000
6180
E380
E380
E380
ENDCHAR
STARTCHAR fraction
ENCODING -1
SWIDTH 600 0
DWIDTH 17 0
BBX 13 20 2 0
BITMAP
0018
0030
0070
0060
00E0
00C0
0180
0180
0300
0300
0600
0600
0C00
0C00
1800
3800
3000
7000
6000
C000
ENDCHAR
STARTCHAR uni207F
ENCODING -1
SWIDTH 600 0
DWIDTH 17 0
BBX 8 9 4 11
BITMAP
DE
FF
C3
C3
C3
C3
C3
C3
C3
ENDCHAR
STARTCHAR franc
ENCODING -1
SWIDTH 600 0
DWIDTH 17 0
BBX 13 20 2 0
BITMAP
3FF8
3FF8
3000
3000
3000
3000
3000
3000
3000
3FF0
3FF0
3000
3000
3000
FF80
FF80
3000
3000
3000
3000
ENDCHAR
STARTCHAR lira
ENCODING -1
SWIDTH 600 0
DWIDTH 17 0
BBX 13 20 2 0
BITMAP
03E0
0FF0
0E30
1C00
1C00
1C00
1C00
1C00
FFC0
FFC0
1C00
1C00
FFC0
FFC0
1C00
1800
3800
7000
FFF8
FFF8
ENDCHAR
STARTCHAR peseta
ENCODING -1
SWIDTH 600 0
DWIDTH 17 0
BBX 15 20 1 0
BITMAP
FC00
FF00
E780
E380
E180
E1C0
E1C0
E190
E390
E7B0
FF7E
FC7E
E030
E030
E030
E030
E030
E030
E03E
E01E
ENDCHAR
STARTCHAR Euro
ENCODING -1
SWIDTH 600 0
DWIDTH 17 0
BBX 15 20 1 0
BITMAP
01F8
07FE
0F8C
1E00
1C00
3800
3800
FFE0
FFE0
3800
3800
FFC0
FFC0
3800
1800
1C00
1E00
0F0C
07FC
01F8
ENDCHAR
STARTCHAR uni2105
ENCODING -1
SWIDTH 600 0
DWIDTH 17 0
BBX 17 20 0 0
BITMAP
3E0C00
7E1800
E01800
C03000
C03000
C06000
E06000
7EC000
3EC000
018000
018000
031E00
033F00
066380
066180
0C6180
0C6180
186380
183F00
301E00
ENDCHAR
STARTCHAR uni2113
ENCODING -1
SWIDTH 600 0
DWIDTH 17 0
BBX 11 20 3 0
BITMAP
0780
0F80
1CC0
18C0
18C0
18C0
1880
1980
1B00
1E00
3C00
F800
1800
1800
1800
1860
1C60
1CE0
0FC0
0780
ENDCHAR
STARTCHAR uni2116
ENCODING -1
SWIDTH 600 0
DWIDTH 17 0
BBX 17 20 0 0
BITMAP
E18000
E18000
E18000
E18000
F18000
F18000
F18000
D98E00
D99F00
D9B180
CDB180
CDB180
CDB180
C7B180
C79F00
C78E00
C38000
C38000
C39F00
C39F00
ENDCHAR
STARTCHAR trademark
ENCODING -1
SWIDTH 600 0
DWIDTH 17 0
BBX 16 10 0 10
BITMAP
FDC7
31C7
31C7
31E7
31EF
31AB
31AB
31BB
31BB
3193
ENDCHAR
STARTCHAR Omega
ENCODING -1
SWIDTH 600 0
DWIDTH 17 0
BBX 15 20 1 0
BITMAP
07C0
1FF0
3C78
701C
701C
E00E
E00E
E00E
E00E
E00E
E00E
E00E
E00C
601C
701C
3038
3830
1C60
FCFE
FCFE
ENDCHAR
STARTCHAR estimated
ENCODING -1
SWIDTH 600 0
DWIDTH 17 0
BBX 15 15 1 0
BITMAP
07E0
1830
2008
600C
E00E
E00E
FFFE
E000
E000
E000
6000
600C
3018
1C30
0FC0
ENDCHAR
STARTCHAR oneeighth
ENCODING -1
SWIDTH 600 0
DWIDTH 17 0
BBX 17 20 0 0
BITMAP
380C00
781800
D83800
183000
187000
186000
18C000
18C000
198000
199E00
1B7380
036180
066180
063F00
0C3E00
1C7300
186180
386180
307F80
603E00
ENDCHAR
STARTCHAR threeeighths
ENCODING -1
SWIDTH 600 0
DWIDTH 17 0
BBX 17 20 0 0
BITMAP
7C0600
FE0C00
061C00
061800
063800
383000
1E6000
066000
06C000
FEDE00
FDF380
01E180
036180
033F00
063E00
0E7300
0C6180
1C6180
187F80
303E00
ENDCHAR
STARTCHAR fiveeighths
ENCODING -1
SWIDTH 600 0
DWIDTH 17 0
BBX 16 20 1 0
BITMAP
FC0C
FC18
C038
C030
F870
4C60
06C0
06C0
0780
FDBC
FBE7
03C3
06C3
067E
0C7C
1CE6
18C3
38C3
30FF
607C
ENDCHAR
STARTCHAR seveneighths
ENCODING -1
SWIDTH 600 0
DWIDTH 17 0
BBX 17 20 0 0
BITMAP
FF0C00
FF1800
063800
063000
0C7000
0C6000
18C000
18C000
318000
319E00
637380
036180
066180
063F00
0C3E00
1C7300
186180
386180
307F80
603E00
ENDCHAR
STARTCHAR partialdiff
ENCODING -1
SWIDTH 600 0
DWIDTH 17 0
BBX 13 20 2 0
BITMAP
07C0
0FE0
0870
0030
0038
0038
0F98
1FD8
3878
7038
7038
E038
E030
E070
E070
E0E0
E0E0
F1C0
7F80
3E00
ENDCHAR
STARTCHAR Delta
ENCODING -1
SWIDTH 600 0
DWIDTH 17 0
BBX 15 20 1 0
BITMAP
0380
0380
07C0
06C0
06C0
0EE0
0EE0
0C60
1C70
1C70
1830
3838
3838
3018
701C
701C
600C
E00E
FFFE
FFFE
ENDCHAR
STARTCHAR product
ENCODING -1
SWIDTH 600 0
DWIDTH 17 0
BBX 13 27 2 -7
BITMAP
FFF8
FFF8
E038
E038
E038
E038
E038
E038
E038
E038
E038
E038
E038
E038
E038
E038
E038
E038
E038
E038
E038
E038
E038
E038
E038
E038
E038
ENDCHAR
STARTCHAR summation
ENCODING -1
SWIDTH 600 0
DWIDTH 17 0
BBX 15 27 1 -7
BITMAP
FFFC
FFFC
7000
3800
3800
1C00
0E00
0E00
0700
0380
0380
01C0
00E0
00E0
01C0
0380
0380
0700
0E00
0E00
1C00
1C00
3800
7000
7000
FFFE
FFFE
ENDCHAR
STARTCHAR minus
ENCODING -1
SWIDTH 600 0
DWIDTH 17 0
BBX 13 2 2 9
BITMAP
FFF8
FFF8
ENDCHAR
STARTCHAR radical
ENCODING -1
SWIDTH 600 0
DWIDTH 17 0
BBX 17 23 0 0
BITMAP
000180
000300
000300
000300
000600
000600
000600
000C00
000C00
001800
001800
F01800
F03000
383000
183000
1C6000
0C6000
0CC000
06C000
06C000
078000
038000
038000
ENDCHAR
STARTCHAR infinity
ENCODING -1
SWIDTH 600 0
DWIDTH 17 0
BBX 15 9 1 6
BITMAP
3838
7C7C
E6CE
C386
C306
C386
E6CE
7CFC
3878
ENDCHAR
STARTCHAR integral
ENCODING -1
SWIDTH 600 0
DWIDTH 17 0
BBX 10 28 3 -7
BITMAP
03C0
07C0
0E00
0C00
0C00
0C00
0C00
0C00
0C00
0C00
0C00
0C00
0C00
0C00
0C00
0C00
0C00
0C00
0C00
0C00
0C00
0C00
0C00
0C00
0C00
1C00
F800
F000
ENDCHAR
STARTCHAR approxequal
ENCODING -1
SWIDTH 600 0
DWIDTH 17 0
BBX 13 10 2 5
BITMAP
7C00
FF18
C7F8
01F0
0000
0000
7C08
FF18
C7F8
01F0
ENDCHAR
STARTCHAR notequal
ENCODING -1
SWIDTH 600 0
DWIDTH 17 0
BBX 13 16 2 2
BITMAP
0040
00E0
00C0
01C0
FFF8
FFF8
0300
0300
0600
0600
FFF8
FFF8
1800
1800
3800
1000
ENDCHAR
STARTCHAR lessequal
ENCODING -1
SWIDTH 600 0
DWIDTH 17 0
BBX 13 17 2 0
BITMAP
0008
0038
00F0
03C0
0F00
3C00
F000
F000
3C00
0F00
03C0
00F0
0038
0008
0000
FFF8
FFF8
ENDCHAR
STARTCHAR greaterequal
ENCODING -1
SWIDTH 600 0
DWIDTH 17 0
BBX 13 17 2 0
BITMAP
8000
E000
7800
1E00
0780
01E0
0078
0078
01E0
0780
1E00
7800
E000
8000
0000
FFF8
FFF8
ENDCHAR
STARTCHAR lozenge
ENCODING -1
SWIDTH 600 0
DWIDTH 17 0
BBX 13 20 2 0
BITMAP
0200
0700
0F80
0D80
1DC0
18C0
38E0
7070
6030
E038
E038
6030
7070
38E0
18C0
1DC0
0D80
0F80
0700
0200
ENDCHAR
STARTCHAR uniFB01
ENCODING -1
SWIDTH 600 0
DWIDTH 17 0
BBX 15 21 0 0
BITMAP
07E0
0FC6
1C0E
1C06
1800
1800
7F86
FF86
1806
1806
1806
1806
1806
1806
1806
1806
1806
1806
1806
1806
1806
ENDCHAR
STARTCHAR uniFB02
ENCODING -1
SWIDTH 600 0
DWIDTH 17 0
BBX 15 21 0 0
BITMAP
07E6
0FC6
1C06
1C06
1806
1806
7F86
FF86
1806
1806
1806
1806
1806
1806
1806
1806
1806
1806
1806
1806
1806
ENDCHAR
STARTCHAR glyph566
ENCODING -1
SWIDTH 600 0
DWIDTH 17 0
BBX 10 4 4 17
BITMAP
C0C0
E1C0
7F80
3F00
ENDCHAR
STARTCHAR glyph567
ENCODING -1
SWIDTH 600 0
DWIDTH 17 0
BBX 10 22 2 -7
BITMAP
3FC0
3FC0
00C0
00C0
00C0
00C0
00C0
00C0
00C0
00C0
00C0
00C0
00C0
00C0
00C0
00C0
00C0
01C0
01C0
0380
FF80
FE00
ENDCHAR
STARTCHAR glyph568
ENCODING -1
SWIDTH 600 0
DWIDTH 17 0
BBX 3 4 7 17
BITMAP
60
E0
C0
C0
ENDCHAR
STARTCHAR glyph569
ENCODING -1
SWIDTH 600 0
DWIDTH 17 0
BBX 4 4 6 -6
BITMAP
70
60
60
C0
ENDCHAR
STARTCHAR glyph570
ENCODING -1
SWIDTH 600 0
DWIDTH 17 0
BBX 4 4 6 17
BITMAP
30
60
60
E0
ENDCHAR
STARTCHAR glyph571
ENCODING -1
SWIDTH 600 0
DWIDTH 17 0
BBX 8 11 4 9
BITMAP
06
0E
1E
16
36
66
C6
FF
FF
06
06
ENDCHAR
STARTCHAR glyph572
ENCODING -1
SWIDTH 600 0
DWIDTH 17 0
BBX 7 11 5 9
BITMAP
FC
FC
C0
C0
F8
4C
06
06
06
FC
F8
ENDCHAR
STARTCHAR glyph573
ENCODING -1
SWIDTH 600 0
DWIDTH 17 0
BBX 8 11 5 9
BITMAP
FF
FF
06
06
0C
0C
18
18
30
30
60
ENDCHAR
STARTCHAR glyph574
ENCODING -1
SWIDTH 600 0
DWIDTH 17 0
BBX 8 11 4 9
BITMAP
3C
E7
C3
C3
7E
7C
E6
C3
C3
FF
7C
ENDCHAR
STARTCHAR uni2000
ENCODING -1
SWIDTH 600 0
DWIDTH 17 0
BBX 1 1 0 0
BITMAP
00
ENDCHAR
STARTCHAR uni2001
ENCODING -1
SWIDTH 600 0
DWIDTH 17 0
BBX 1 1 0 0
BITMAP
00
ENDCHAR
STARTCHAR uni2002
ENCODING -1
SWIDTH 600 0
DWIDTH 17 0
BBX 1 1 0 0
BITMAP
00
ENDCHAR
STARTCHAR uni2003
ENCODING -1
SWIDTH 600 0
DWIDTH 17 0
BBX 1 1 0 0
BITMAP
00
ENDCHAR
STARTCHAR uni2004
ENCODING -1
SWIDTH 600 0
DWIDTH 17 0
BBX 1 1 0 0
BITMAP
00
ENDCHAR
STARTCHAR uni2005
ENCODING -1
SWIDTH 600 0
DWIDTH 17 0
BBX 1 1 0 0
BITMAP
00
ENDCHAR
STARTCHAR uni2006
ENCODING -1
SWIDTH 600 0
DWIDTH 17 0
BBX 1 1 0 0
BITMAP
00
ENDCHAR
STARTCHAR uni2007
ENCODING -1
SWIDTH 600 0
DWIDTH 17 0
BBX 1 1 0 0
BITMAP
00
ENDCHAR
STARTCHAR uni2008
ENCODING -1
SWIDTH 600 0
DWIDTH 17 0
BBX 1 1 0 0
BITMAP
00
ENDCHAR
STARTCHAR uni2009
ENCODING -1
SWIDTH 600 0
DWIDTH 17 0
BBX 1 1 0 0
BITMAP
00
ENDCHAR
STARTCHAR uni200A
ENCODING -1
SWIDTH 600 0
DWIDTH 17 0
BBX 1 1 0 0
BITMAP
00
ENDCHAR
STARTCHAR uni200B
ENCODING -1
SWIDTH 600 0
DWIDTH 17 0
BBX 1 1 0 0
BITMAP
00
ENDCHAR
STARTCHAR uniFEFF
ENCODING -1
SWIDTH 600 0
DWIDTH 17 0
BBX 1 1 0 0
BITMAP
00
ENDCHAR
STARTCHAR uniFFFC
ENCODING -1
SWIDTH 600 0
DWIDTH 17 0
BBX 15 26 1 -5
BITMAP
F39E
F39E
C002
CF02
1980
1080
D082
D082
D982
CF02
0380
C2C2
C382
C242
C2C2
0380
0000
C03A
C012
C012
C012
0010
C012
C072
C002
F39E
ENDCHAR
STARTCHAR uniFFFD
ENCODING -1
SWIDTH 600 0
DWIDTH 17 0
BBX 17 25 0 -4
BITMAP
008000
01C000
01C000
03E000
07F000
07F000
0C3800
181C00
180C00
3F8E00
7F8F00
7F8F00
FF1F80
7E3F00
7E7F00
3E7E00
1FFC00
1FFC00
0E3800
063000
063000
03E000
01C000
01C000
008000
ENDCHAR
STARTCHAR uni01F0
ENCODING -1
SWIDTH 600 0
DWIDTH 17 0
BBX 11 28 2 -7
BITMAP
3060
1DC0
0F80
0700
0000
0000
3FC0
3FC0
00C0
00C0
00C0
00C0
00C0
00C0
00C0
00C0
00C0
00C0
00C0
00C0
00C0
00C0
00C0
01C0
01C0
0380
FF80
FE00
ENDCHAR
STARTCHAR uni02BC
ENCODING -1
SWIDTH 600 0
DWIDTH 17 0
BBX 5 7 6 13
BITMAP
38
78
70
70
70
E0
E0
ENDCHAR
STARTCHAR theta1
ENCODING -1
SWIDTH 600 0
DWIDTH 17 0
BBX 17 21 0 0
BITMAP
07C000
0FF000
1C3800
1C1C00
181C00
1C0C00
0E0E00
0F8E00
03FF80
F07F80
F80E00
380E00
380E00
380E00
380E00
300C00
300C00
381C00
383800
1FF000
07C000
ENDCHAR
STARTCHAR Upsilon1
ENCODING -1
SWIDTH 600 0
DWIDTH 17 0
BBX 16 20 0 0
BITMAP
E007
700F
700E
381C
1818
1C38
0C30
0E70
0660
07E0
03C0
01C0
01C0
01C0
01C0
01C0
01C0
01C0
01C0
01C0
ENDCHAR
STARTCHAR omega1
ENCODING -1
SWIDTH 600 0
DWIDTH 17 0
BBX 17 15 0 0
BITMAP
7FFF80
FFFF80
300600
300600
700700
600300
600300
60C300
60C300
60C300
60C300
70C700
31E600
3FFE00
1F3C00
ENDCHAR
STARTCHAR uni1E3E
ENCODING -1
SWIDTH 600 0
DWIDTH 17 0
BBX 13 26 2 0
BITMAP
00E0
01C0
0180
0300
0000
0000
E038
F078
F078
F078
F078
D058
D0D8
D8D8
D8D8
D8D8
C898
C998
CD98
CD98
CD98
C518
C718
C718
C718
C718
ENDCHAR
STARTCHAR uni1E3F
ENCODING -1
SWIDTH 600 0
DWIDTH 17 0
BBX 15 21 1 0
BITMAP
0070
00E0
00C0
0180
0000
0000
CE38
DF7C
E7CE
E38E
E38E
E386
C306
C306
C306
C306
C306
C306
C306
C306
C306
ENDCHAR
STARTCHAR uni1E00
ENCODING -1
SWIDTH 600 0
DWIDTH 17 0
BBX 17 28 0 -8
BITMAP
01C000
01C000
03E000
036000
036000
077000
063000
0E3800
0E3800
0C1800
1C1C00
1C1C00
1FFC00
3FFE00
380E00
300600
700700
700700
600300
E00380
000000
000000
01E000
03F000
033000
033000
03F000
01E000
ENDCHAR
STARTCHAR uni1E01
ENCODING -1
SWIDTH 600 0
DWIDTH 17 0
BBX 12 23 2 -8
BITMAP
1F80
7FE0
30F0
0070
0070
0030
0FF0
7FF0
7030
E070
E070
E070
E0F0
7FB0
3E30
0000
0000
0780
0FC0
0CC0
0CC0
0FC0
0780
ENDCHAR
STARTCHAR uni1F4D
ENCODING -1
SWIDTH 600 0
DWIDTH 17 0
BBX 22 20 -4 0
BITMAP
270F80
463FE0
C678F0
ECE038
E8E038
01C018
01C01C
01C01C
01C01C
01C01C
01C01C
01C01C
01C01C
01C01C
00C018
00E038
00E038
0078F0
003FE0
001F80
ENDCHAR
STARTCHAR uni02F3
ENCODING -1
SWIDTH 600 0
DWIDTH 17 0
BBX 6 6 5 -8
BITMAP
78
FC
CC
CC
FC
78
ENDCHAR
STARTCHAR glyph601
ENCODING -1
SWIDTH 600 0
DWIDTH 17 0
BBX 8 5 4 15
BITMAP
27
46
C6
EC
E8
ENDCHAR
STARTCHAR uniFB03
ENCODING -1
SWIDTH 600 0
DWIDTH 17 0
BBX 14 21 1 0
BITMAP
0E7C
3FF8
71C0
7180
6180
6180
FFFC
FFFC
618C
618C
618C
618C
618C
618C
618C
618C
618C
618C
618C
618C
618C
ENDCHAR
STARTCHAR uniFB04
ENCODING -1
SWIDTH 600 0
DWIDTH 17 0
BBX 14 21 1 0
BITMAP
0E7C
3FFC
71CC
718C
618C
618C
FFEC
FFEC
618C
618C
618C
618C
618C
618C
618C
618C
618C
618C
618C
618C
618C
ENDCHAR
STARTCHAR Ohorn
ENCODING -1
SWIDTH 600 0
DWIDTH 17 0
BBX 17 21 1 0
BITMAP
000380
07C380
1FF300
3C7F00
701E00
701C00
E00C00
E00E00
E00E00
E00E00
E00E00
E00E00
E00E00
E00E00
E00E00
600C00
701C00
701C00
3C7800
1FF000
0FC000
ENDCHAR
STARTCHAR ohorn
ENCODING -1
SWIDTH 600 0
DWIDTH 17 0
BBX 15 17 2 0
BITMAP
000E
000E
0F8C
3FDC
78F8
6070
E030
E038
E038
E038
E038
E038
E038
7070
78F0
3FE0
0F80
ENDCHAR
STARTCHAR Uhorn
ENCODING -1
SWIDTH 600 0
DWIDTH 17 0
BBX 16 21 2 0
BITMAP
0007
E0E7
E0E6
E0EE
E0FC
E0F0
E0E0
E0E0
E0E0
E0E0
E0E0
E0E0
E0E0
E0E0
E0E0
E0E0
E0E0
E0E0
71C0
7FC0
1F00
ENDCHAR
STARTCHAR uhorn
ENCODING -1
SWIDTH 600 0
DWIDTH 17 0
BBX 16 17 2 0
BITMAP
0007
0007
C066
C06E
C07C
C070
C060
C060
C060
C060
C0E0
C0E0
E0E0
E0E0
F1E0
7F60
3E60
ENDCHAR
STARTCHAR gravecomb
ENCODING -1
SWIDTH 600 0
DWIDTH 17 0
BBX 5 4 6 17
BITMAP
E0
70
30
18
ENDCHAR
STARTCHAR acutecomb
ENCODING -1
SWIDTH 600 0
DWIDTH 17 0
BBX 5 4 6 17
BITMAP
38
70
60
C0
ENDCHAR
STARTCHAR tildecomb
ENCODING -1
SWIDTH 600 0
DWIDTH 17 0
BBX 10 4 4 17
BITMAP
70C0
7CC0
CF80
C380
ENDCHAR
STARTCHAR hookabovecomb
ENCODING -1
SWIDTH 600 0
DWIDTH 17 0
BBX 5 6 6 17
BITMAP
F0
F8
18
18
70
60
ENDCHAR
STARTCHAR dotbelowcomb
ENCODING -1
SWIDTH 600 0
DWIDTH 17 0
BBX 3 3 7 -5
BITMAP
E0
E0
E0
ENDCHAR
STARTCHAR uni0400
ENCODING -1
SWIDTH 600 0
DWIDTH 17 0
BBX 12 26 3 0
BITMAP
3800
1C00
0C00
0600
0000
0000
FFF0
FFF0
E000
E000
E000
E000
E000
E000
FFE0
FFE0
E000
E000
E000
E000
E000
E000
E000
E000
FFF0
FFF0
ENDCHAR
STARTCHAR uni040D
ENCODING -1
SWIDTH 600 0
DWIDTH 17 0
BBX 14 26 2 0
BITMAP
0E00
0700
0300
0180
0000
0000
C01C
C03C
C03C
C07C
C06C
C0EC
C0CC
C1CC
C18C
C38C
C70C
C60C
CE0C
CC0C
DC0C
D80C
F80C
F00C
F00C
E00C
ENDCHAR
STARTCHAR uni0450
ENCODING -1
SWIDTH 600 0
DWIDTH 17 0
BBX 13 21 2 0
BITMAP
0E00
0700
0300
0180
0000
0000
0F80
3FE0
7870
6030
E038
E038
FFF8
FFF8
E000
E000
E000
7000
7830
3FF0
0FE0
ENDCHAR
STARTCHAR uni045D
ENCODING -1
SWIDTH 600 0
DWIDTH 17 0
BBX 13 21 2 0
BITMAP
1C00
0E00
0600
0300
0000
0000
C078
C078
C0F8
C0D8
C1D8
C398
C318
C718
C618
CE18
DC18
D818
F818
F018
F018
ENDCHAR
STARTCHAR uni0460
ENCODING -1
SWIDTH 600 0
DWIDTH 17 0
BBX 15 20 1 0
BITMAP
3C78
7C7C
745C
600C
E00E
E00E
C006
C006
C006
C006
C006
C306
C306
E30E
E30E
E30C
630C
739C
3FF8
1CF0
ENDCHAR
STARTCHAR uni0461
ENCODING -1
SWIDTH 600 0
DWIDTH 17 0
BBX 16 15 0 0
BITMAP
C303
E383
6183
6183
6183
7183
30C7
31C6
31C6
1946
1B6E
1B6C
1A6C
0E38
0E38
ENDCHAR
STARTCHAR uni0462
ENCODING -1
SWIDTH 600 0
DWIDTH 17 0
BBX 16 21 0 0
BITMAP
0E00
0E00
0E00
0E00
FFF8
FFF8
0E00
0E00
0E00
0E00
0FF0
0FFC
0E3E
0E07
0E07
0E07
0E07
0E07
0E1E
0FFC
0FF0
ENDCHAR
STARTCHAR uni0463
ENCODING -1
SWIDTH 600 0
DWIDTH 17 0
BBX 15 18 0 0
BITMAP
1800
1800
1800
FFC0
FFC0
1800
1800
1800
1800
1FF0
1FFC
181E
180E
1806
180E
181E
1FFC
1FF0
ENDCHAR
STARTCHAR uni0464
ENCODING -1
SWIDTH 600 0
DWIDTH 17 0
BBX 15 20 1 0
BITMAP
C0FC
C1FE
C3CC
C700
C600
CE00
CE00
CE00
FFF8
FFF8
CC00
CC00
CE00
CE00
C600
C600
C700
C3C4
C1FC
C0F8
ENDCHAR
STARTCHAR uni0465
ENCODING -1
SWIDTH 600 0
DWIDTH 17 0
BBX 14 15 2 0
BITMAP
C0F8
C3FC
C708
C600
CC00
CC00
FFF8
FFF8
CC00
CC00
CE00
C600
C70C
C3FC
C0F8
ENDCHAR
STARTCHAR uni0466
ENCODING -1
SWIDTH 600 0
DWIDTH 17 0
BBX 17 20 0 0
BITMAP
01C000
01C000
036000
036000
036000
063000
063000
0E3000
0E1800
0FF800
1FFC00
198C00
198C00
398E00
318600
318600
718700
618300
618300
E18380
ENDCHAR
STARTCHAR uni0467
ENCODING -1
SWIDTH 600 0
DWIDTH 17 0
BBX 15 15 1 0
BITMAP
0780
0780
07C0
0CC0
0CE0
0C60
1FE0
1FF0
3B30
3338
3318
731C
631C
630C
E30E
ENDCHAR
STARTCHAR uni0468
ENCODING -1
SWIDTH 600 0
DWIDTH 17 0
BBX 16 20 1 0
BITMAP
C0E0
C0E0
C0E0
C1B0
C1B0
C1B0
C1B0
C318
FFF8
FFF8
C778
C66C
C66C
C66C
CE6E
CC66
CC66
CC66
DC67
D863
ENDCHAR
STARTCHAR uni0469
ENCODING -1
SWIDTH 600 0
DWIDTH 17 0
BBX 16 15 2 0
BITMAP
C0E0
C0E0
C1B0
C1B0
C1B0
C3B8
FFF8
FFF8
C7FC
C6EC
C6EC
CCEE
CCE6
CCE6
D8E3
ENDCHAR
STARTCHAR uni046A
ENCODING -1
SWIDTH 600 0
DWIDTH 17 0
BBX 17 20 0 0
BITMAP
3FFE00
3FFE00
380E00
180C00
1C1800
0E3800
063000
076000
03E000
0FF800
1FFC00
398E00
318E00
318600
718700
618700
618300
618300
E18380
C18180
ENDCHAR
STARTCHAR uni046B
ENCODING -1
SWIDTH 600 0
DWIDTH 17 0
BBX 17 15 0 0
BITMAP
3FFE00
3FFE00
181C00
0C3800
0E7000
07E000
0FF000
1FFC00
398C00
318E00
318600
718700
618700
618300
E18380
ENDCHAR
STARTCHAR uni046C
ENCODING -1
SWIDTH 600 0
DWIDTH 17 0
BBX 16 20 1 0
BITMAP
C7FF
C7FF
C707
C306
C38E
C18C
C1DC
C0F8
FFF0
FFFC
C766
C666
C666
C666
C666
C667
CE67
CE67
CE67
CC63
ENDCHAR
STARTCHAR uni046D
ENCODING -1
SWIDTH 600 0
DWIDTH 17 0
BBX 16 15 2 0
BITMAP
CFFE
CFFE
C60C
C618
C338
C1F0
FFF0
FFFC
C6CC
CCCE
CCC6
CCC6
CCC6
D8C7
D8C3
ENDCHAR
STARTCHAR uni046E
ENCODING -1
SWIDTH 600 0
DWIDTH 17 0
BBX 13 29 2 -5
BITMAP
3070
18F0
0DC0
0780
1FC0
7FF0
E070
0038
0038
0038
0038
0070
00E0
3F80
3FE0
00F0
0038
0038
0038
0038
0038
00F0
3FE0
7F80
E000
E000
E000
7FF8
3FF8
ENDCHAR
STARTCHAR uni046F
ENCODING -1
SWIDTH 600 0
DWIDTH 17 0
BBX 12 23 2 -5
BITMAP
3070
1DF0
0F80
3FC0
7FE0
2070
0030
0070
00E0
1FC0
1FC0
00E0
0070
0030
0070
00F0
3FE0
7F80
E000
C000
E000
FFF0
3FF0
ENDCHAR
STARTCHAR uni0470
ENCODING -1
SWIDTH 600 0
DWIDTH 17 0
BBX 15 20 1 0
BITMAP
E38E
E38E
E38E
E38E
E38E
E38E
E38E
E38E
E38E
E38E
E38C
739C
3FF8
1FF0
0380
0380
0380
0380
0380
0380
ENDCHAR
STARTCHAR uni0471
ENCODING -1
SWIDTH 600 0
DWIDTH 17 0
BBX 15 28 1 -7
BITMAP
0300
0300
0300
0300
0300
0300
C30C
C30C
C30C
C30E
C30E
C306
C306
C306
C30E
E30E
E30E
631C
733C
3FF8
1FE0
0300
0300
0300
0300
0300
0300
0300
ENDCHAR
STARTCHAR uni0472
ENCODING -1
SWIDTH 600 0
DWIDTH 17 0
BBX 15 20 1 0
BITMAP
07C0
1FF0
3C78
701C
701C
E00C
E00E
E00E
E00E
FFFE
FFFE
E00E
E00E
E00E
600C
701C
701C
3C78
1FF0
0FC0
ENDCHAR
STARTCHAR uni0473
ENCODING -1
SWIDTH 600 0
DWIDTH 17 0
BBX 13 15 2 0
BITMAP
0F80
3FE0
78F0
6030
E038
E038
FFF8
FFF8
E038
E038
E038
7070
78F0
3FE0
0F80
ENDCHAR
STARTCHAR uni0474
ENCODING -1
SWIDTH 600 0
DWIDTH 17 0
BBX 17 20 1 0
BITMAP
E00780
E00F80
600C00
701C00
701800
301800
383800
383800
183000
187000
1C7000
0C6000
0C6000
0EE000
0EE000
06C000
06C000
07C000
038000
038000
ENDCHAR
STARTCHAR uni0475
ENCODING -1
SWIDTH 600 0
DWIDTH 17 0
BBX 15 15 1 0
BITMAP
E00E
601E
6038
7038
3030
3870
3870
1860
1C60
0CE0
0CC0
0EC0
07C0
0780
0780
ENDCHAR
STARTCHAR uni0476
ENCODING -1
SWIDTH 600 0
DWIDTH 17 0
BBX 17 26 1 0
BITMAP
39C000
18C000
0C6000
063000
000000
000000
E00780
E00F80
600C00
701C00
701800
301800
383800
383800
183000
187000
1C7000
0C6000
0C6000
0EE000
0EE000
06C000
06C000
07C000
038000
038000
ENDCHAR
STARTCHAR uni0477
ENCODING -1
SWIDTH 600 0
DWIDTH 17 0
BBX 15 21 1 0
BITMAP
7380
3180
18C0
0C60
0000
0000
E00E
601E
6038
7038
3030
3870
3870
1860
1C60
0CE0
0CC0
0EC0
07C0
0780
0780
ENDCHAR
STARTCHAR uni0478
ENCODING -1
SWIDTH 600 0
DWIDTH 17 0
BBX 16 27 1 -7
BITMAP
3C00
7E00
6600
E700
C300
C363
C363
C363
C336
C336
C336
C336
C336
C336
C316
C314
E71C
661C
7E1C
3C1C
000C
0018
0018
0018
0018
0070
0070
ENDCHAR
STARTCHAR uni0479
ENCODING -1
SWIDTH 600 0
DWIDTH 17 0
BBX 16 22 1 -7
BITMAP
3CE3
7E63
6667
E766
C366
C366
C366
C336
C33C
C33C
C33C
E73C
661C
7E1C
3C18
0018
0018
0018
0018
0030
00F0
00E0
ENDCHAR
STARTCHAR uni047A
ENCODING -1
SWIDTH 600 0
DWIDTH 17 0
BBX 15 23 1 -2
BITMAP
0380
0FE0
1FF0
3BB8
701C
701C
E00C
E00E
E00E
E00E
E00E
E00E
E00E
E00E
E00E
E00C
701C
701C
3BB8
1FF0
0FE0
0380
0380
ENDCHAR
STARTCHAR uni047B
ENCODING -1
SWIDTH 600 0
DWIDTH 17 0
BBX 13 17 2 -1
BITMAP
0700
1F80
3FE0
7770
6030
E038
E038
E038
E038
E038
E038
E038
6030
7770
3FE0
0FC0
0700
ENDCHAR
STARTCHAR uni047C
ENCODING -1
SWIDTH 600 0
DWIDTH 17 0
BBX 15 28 1 0
BITMAP
0F80
1FF8
1878
0380
0380
0180
0200
0000
3C78
7C7C
701C
600C
E00E
E00E
C006
C006
C006
C006
C006
C006
C006
E00E
E00E
E00E
610C
739C
3FF8
1EF0
ENDCHAR
STARTCHAR uni047D
ENCODING -1
SWIDTH 600 0
DWIDTH 17 0
BBX 15 24 1 0
BITMAP
0F80
1FF8
1878
0380
0180
0180
0200
0000
0000
3C78
7C7C
600C
E00E
C006
C006
C006
C006
C006
C006
C006
E00C
739C
7FF8
1EF0
ENDCHAR
STARTCHAR uni047E
ENCODING -1
SWIDTH 600 0
DWIDTH 17 0
BBX 15 24 1 0
BITMAP
3FF8
1110
0000
0000
3CF0
7CF8
701C
600C
E00E
E00E
C00E
C006
C006
C006
C006
C306
C306
E30E
E30E
E30E
630C
739C
3FF8
1E70
ENDCHAR
STARTCHAR uni047F
ENCODING -1
SWIDTH 600 0
DWIDTH 17 0
BBX 16 19 0 0
BITMAP
1FF8
0990
0000
0000
C303
E303
6183
6183
6183
7183
31C3
31C6
31C6
13C6
1B6C
1B6C
1A7C
0E78
0E30
ENDCHAR
STARTCHAR uni0480
ENCODING -1
SWIDTH 600 0
DWIDTH 17 0
BBX 14 27 2 -7
BITMAP
03F0
0FFC
1E18
3800
7000
7000
E000
E000
E000
E000
E000
E000
E000
E000
7000
7000
3800
3E10
1FF0
07F0
0070
0070
0070
0070
0070
0070
0070
ENDCHAR
STARTCHAR uni0481
ENCODING -1
SWIDTH 600 0
DWIDTH 17 0
BBX 13 22 2 -7
BITMAP
07F0
1FF8
3C10
7000
E000
E000
E000
E000
E000
E000
E000
7000
3C00
1FC0
07C0
00C0
00C0
00C0
00C0
00C0
00C0
00C0
ENDCHAR
STARTCHAR uni0482
ENCODING -1
SWIDTH 600 0
DWIDTH 17 0
BBX 15 18 1 0
BITMAP
0008
001C
0018
0438
0F30
03E0
00F0
00FC
01DE
4384
F300
7E00
1F00
1F80
19E0
3840
7000
2000
ENDCHAR
STARTCHAR uni0483
ENCODING -1
SWIDTH 600 0
DWIDTH 17 0
BBX 10 4 3 16
BITMAP
01C0
FFC0
FFC0
C000
ENDCHAR
STARTCHAR uni0484
ENCODING -1
SWIDTH 600 0
DWIDTH 17 0
BBX 11 3 3 17
BITMAP
07C0
FFE0
F060
ENDCHAR
STARTCHAR uni0485
ENCODING -1
SWIDTH 600 0
DWIDTH 17 0
BBX 3 5 7 17
BITMAP
E0
E0
C0
60
20
ENDCHAR
STARTCHAR uni0486
ENCODING -1
SWIDTH 600 0
DWIDTH 17 0
BBX 3 5 7 17
BITMAP
E0
E0
60
C0
80
ENDCHAR
STARTCHAR uni0488
ENCODING -1
SWIDTH 600 0
DWIDTH 17 0
BBX 15 14 1 1
BITMAP
0300
0380
0000
7038
0000
0000
4004
E00E
0000
0000
3018
783C
0100
0380
ENDCHAR
STARTCHAR uni0489
ENCODING -1
SWIDTH 600 0
DWIDTH 17 0
BBX 15 15 1 0
BITMAP
0100
0300
2308
3038
1010
0000
E00C
600E
0000
0000
1010
3810
6318
0308
0200
ENDCHAR
STARTCHAR uni048A
ENCODING -1
SWIDTH 600 0
DWIDTH 17 0
BBX 16 31 2 -5
BITMAP
6060
70E0
3FC0
1F80
0000
0000
C038
C078
C078
C0F8
C0D8
C1D8
C198
C398
C318
C318
C618
C618
CC18
CC18
DC18
D818
F818
F018
F01F
E01F
0006
0006
000E
000E
000C
ENDCHAR
STARTCHAR uni048B
ENCODING -1
SWIDTH 600 0
DWIDTH 17 0
BBX 15 26 2 -5
BITMAP
60E0
70E0
3FC0
1F80
0000
0000
C0F0
C0F0
C1F0
C1B0
C3B0
C330
C730
C630
CE30
CC30
DC30
D830
F830
F03E
F03E
000C
000C
001C
0018
0018
ENDCHAR
STARTCHAR uni048C
ENCODING -1
SWIDTH 600 0
DWIDTH 17 0
BBX 14 20 1 0
BITMAP
3800
3800
FF80
FF80
3800
3800
3800
3800
3FC0
3FF0
3878
381C
381C
381C
381C
381C
381C
3878
3FF0
3FC0
ENDCHAR
STARTCHAR uni048D
ENCODING -1
SWIDTH 600 0
DWIDTH 17 0
BBX 14 21 1 0
BITMAP
3000
3000
3000
FF00
FF00
3000
3000
3000
3000
3000
3000
3000
3FF0
3FF8
303C
301C
300C
301C
303C
3FF8
3FE0
ENDCHAR
STARTCHAR uni048E
ENCODING -1
SWIDTH 600 0
DWIDTH 17 0
BBX 13 20 2 0
BITMAP
FF80
FFE0
E0F0
E038
E038
E038
E038
E238
E770
E3F0
FFC0
FFC0
E0E0
E040
E000
E000
E000
E000
E000
E000
ENDCHAR
STARTCHAR uni048F
ENCODING -1
SWIDTH 600 0
DWIDTH 17 0
BBX 13 22 2 -7
BITMAP
C780
DFE0
F0F0
E030
E038
E038
E038
C038
E038
E038
E138
E3F0
F1F0
DFE0
CFE0
C070
C020
C000
C000
C000
C000
C000
ENDCHAR
STARTCHAR uni0492
ENCODING -1
SWIDTH 600 0
DWIDTH 17 0
BBX 14 20 2 0
BITMAP
3FFC
3FFC
3800
3800
3800
3800
3800
3800
3800
FFC0
FFC0
3800
3800
3800
3800
3800
3800
3800
3800
3800
ENDCHAR
STARTCHAR uni0493
ENCODING -1
SWIDTH 600 0
DWIDTH 17 0
BBX 12 15 2 0
BITMAP
3FF0
3FF0
3000
3000
3000
3000
3000
FF00
FF00
3000
3000
3000
3000
3000
3000
ENDCHAR
STARTCHAR uni0494
ENCODING -1
SWIDTH 600 0
DWIDTH 17 0
BBX 14 27 2 -7
BITMAP
FFE0
FFE0
E000
E000
E000
E000
E000
E000
E000
FF00
FFC0
E3F0
E070
E038
E018
E01C
E01C
E01C
E01C
E01C
001C
001C
0038
0038
21F0
3FE0
1F80
ENDCHAR
STARTCHAR uni0495
ENCODING -1
SWIDTH 600 0
DWIDTH 17 0
BBX 12 22 3 -7
BITMAP
FF80
FF80
C000
C000
C000
C000
FF00
FFC0
C3C0
C0E0
C060
C070
C070
C070
C070
0070
0070
0070
00E0
11E0
1FC0
0F00
ENDCHAR
STARTCHAR uni0496
ENCODING -1
SWIDTH 600 0
DWIDTH 17 0
BBX 17 25 0 -5
BITMAP
E18700
618600
718E00
318C00
399C00
199800
1D9800
0DB000
0DB000
07E000
0FF000
0DB000
1DB800
199800
199C00
398C00
318C00
718E00
618780
E18780
000180
000180
000180
000180
000180
ENDCHAR
STARTCHAR uni0497
ENCODING -1
SWIDTH 600 0
DWIDTH 17 0
BBX 17 20 0 -5
BITMAP
E18300
618700
318E00
398C00
199800
0DB800
0FB000
07F000
0DB000
1DB800
199800
398C00
318E00
718780
E18780
000180
000180
000180
000180
000180
ENDCHAR
STARTCHAR uni0498
ENCODING -1
SWIDTH 600 0
DWIDTH 17 0
BBX 13 26 2 -6
BITMAP
1FC0
7FE0
F0F0
4038
0038
0038
0038
0070
00E0
3F80
3FC0
00F0
0038
0038
0038
0038
0038
E0F0
FFE0
7F80
0600
0300
0180
0180
0780
0700
ENDCHAR
STARTCHAR uni0499
ENCODING -1
SWIDTH 600 0
DWIDTH 17 0
BBX 11 21 3 -6
BITMAP
7F80
FFC0
41E0
00E0
00E0
00C0
1F80
1FC0
01C0
00E0
0060
00E0
C1E0
FFC0
7F00
0C00
0600
0300
0300
0F00
0E00
ENDCHAR
STARTCHAR uni049A
ENCODING -1
SWIDTH 600 0
DWIDTH 17 0
BBX 14 25 3 -5
BITMAP
E038
E070
E0E0
E1C0
E180
E380
E700
EE00
FC00
F800
FC00
EE00
E700
E300
E380
E1C0
E0E0
E070
E03C
E03C
000C
000C
000C
000C
000C
ENDCHAR
STARTCHAR uni049B
ENCODING -1
SWIDTH 600 0
DWIDTH 17 0
BBX 13 20 3 -5
BITMAP
C070
C0E0
C1C0
C380
C700
CE00
DC00
FC00
CE00
C700
C780
C3C0
C1E0
C0F8
C078
0018
0018
0018
0018
0018
ENDCHAR
STARTCHAR uni049C
ENCODING -1
SWIDTH 600 0
DWIDTH 17 0
BBX 13 20 3 0
BITMAP
E038
E070
E0E0
ECC0
EDC0
EF80
EF00
EE00
EC00
FC00
FE00
FF00
EF00
EF80
EDC0
EDC0
E0E0
E070
E070
E038
ENDCHAR
STARTCHAR uni049D
ENCODING -1
SWIDTH 600 0
DWIDTH 17 0
BBX 13 15 3 0
BITMAP
C070
CCE0
CDC0
CF80
CF00
CE00
DC00
FC00
DE00
CF00
CF80
CDC0
CCE0
CC70
C038
ENDCHAR
STARTCHAR uni049E
ENCODING -1
SWIDTH 600 0
DWIDTH 17 0
BBX 15 20 1 0
BITMAP
380E
381C
FE38
FE70
3860
38E0
39C0
3B80
3F00
3F80
3D80
39C0
38E0
38E0
3870
3830
3838
381C
381C
380E
ENDCHAR
STARTCHAR uni049F
ENCODING -1
SWIDTH 600 0
DWIDTH 17 0
BBX 15 21 1 0
BITMAP
3000
3000
FFC0
FFC0
3000
3000
301C
3038
3070
30E0
31C0
3380
3700
3F80
3DC0
30E0
30E0
3070
3038
301C
300E
ENDCHAR
STARTCHAR uni04A0
ENCODING -1
SWIDTH 600 0
DWIDTH 17 0
BBX 16 20 0 0
BITMAP
FE07
FE0E
0E0C
0E1C
0E38
0E30
0E70
0EE0
0EC0
0FE0
0F60
0F70
0E30
0E38
0E18
0E1C
0E0C
0E0E
0E06
0E07
ENDCHAR
STARTCHAR uni04A1
ENCODING -1
SWIDTH 600 0
DWIDTH 17 0
BBX 16 15 1 0
BITMAP
FE0E
FE1C
0618
0638
0670
0660
06E0
07C0
06E0
0670
0638
0618
061C
060E
0607
ENDCHAR
STARTCHAR uni04A2
ENCODING -1
SWIDTH 600 0
DWIDTH 17 0
BBX 15 25 2 -5
BITMAP
E038
E038
E038
E038
E038
E038
E038
E038
FFF8
FFF8
E038
E038
E038
E038
E038
E038
E038
E038
E03E
E03E
0006
0006
0006
0006
0006
ENDCHAR
STARTCHAR uni04A3
ENCODING -1
SWIDTH 600 0
DWIDTH 17 0
BBX 14 20 2 -5
BITMAP
C030
C030
C030
C030
C030
C030
FFF0
FFF0
C030
C030
C030
C030
C030
C03C
C03C
000C
000C
000C
000C
000C
ENDCHAR
STARTCHAR uni04A4
ENCODING -1
SWIDTH 600 0
DWIDTH 17 0
BBX 14 20 2 0
BITMAP
E0FC
E0FC
E0E0
E0E0
E0E0
E0E0
E0E0
E0E0
FFE0
FFE0
E0E0
E0E0
E0E0
E0E0
E0E0
E0E0
E0E0
E0E0
E0E0
E0E0
ENDCHAR
STARTCHAR uni04A5
ENCODING -1
SWIDTH 600 0
DWIDTH 17 0
BBX 14 15 2 0
BITMAP
C07C
C07C
C060
C060
C060
C060
FFE0
FFE0
C060
C060
C060
C060
C060
C060
C060
ENDCHAR
STARTCHAR uni04A6
ENCODING -1
SWIDTH 600 0
DWIDTH 17 0
BBX 15 27 1 -7
BITMAP
FF00
FF00
C300
C300
C300
C300
C300
C300
C300
C3F0
C3F8
C31C
C30C
C30E
C30E
C30E
C306
C306
C306
C306
000E
000E
000E
000C
013C
01F8
01F0
ENDCHAR
STARTCHAR uni04A7
ENCODING -1
SWIDTH 600 0
DWIDTH 17 0
BBX 14 22 2 -7
BITMAP
FF00
FF00
C300
C300
C300
C300
C3E0
C3F8
C338
C318
C31C
C30C
C30C
C30C
C30C
000C
000C
000C
0018
0118
01F8
01F0
ENDCHAR
STARTCHAR uni04A8
ENCODING -1
SWIDTH 600 0
DWIDTH 17 0
BBX 15 21 1 -1
BITMAP
0F80
1F80
3C00
7000
70F0
E1F8
E198
E39C
E39C
E39C
E39C
E39C
E39C
E39C
E398
71B8
71F8
3CF0
1FF0
0FFE
001E
ENDCHAR
STARTCHAR uni04A9
ENCODING -1
SWIDTH 600 0
DWIDTH 17 0
BBX 13 16 2 -1
BITMAP
0F00
3F00
7000
61E0
E3F0
E738
E738
E738
E738
E738
E738
73F0
7BF0
3FE0
0FF8
0038
ENDCHAR
STARTCHAR uni04AA
ENCODING -1
SWIDTH 600 0
DWIDTH 17 0
BBX 14 26 2 -6
BITMAP
03F0
0FFC
1E18
3800
7000
7000
E000
E000
E000
E000
E000
E000
E000
E000
6000
7000
7800
3E18
1FF8
07F0
0180
00C0
0060
0060
01E0
01C0
ENDCHAR
STARTCHAR uni04AB
ENCODING -1
SWIDTH 600 0
DWIDTH 17 0
BBX 12 21 2 -6
BITMAP
0FE0
3FF0
7820
7000
E000
E000
E000
E000
E000
E000
E000
7000
7830
3FF0
0FE0
0600
0300
0180
0180
0780
0700
ENDCHAR
STARTCHAR uni04AC
ENCODING -1
SWIDTH 600 0
DWIDTH 17 0
BBX 14 25 1 -5
BITMAP
FFFC
FFFC
0380
0380
0380
0380
0380
0380
0380
0380
0380
0380
0380
0380
0380
0380
0380
0380
03E0
03E0
0060
0060
0060
0060
0060
ENDCHAR
STARTCHAR uni04AD
ENCODING -1
SWIDTH 600 0
DWIDTH 17 0
BBX 13 20 2 -5
BITMAP
FFF8
FFF8
0600
0600
0600
0600
0600
0600
0600
0600
0600
0600
0600
0780
0780
0180
0180
0180
0180
0180
ENDCHAR
STARTCHAR uni04AE
ENCODING -1
SWIDTH 600 0
DWIDTH 17 0
BBX 16 20 0 0
BITMAP
E007
700E
700E
381C
181C
1C38
0C38
0E70
0660
03E0
03C0
01C0
01C0
01C0
01C0
01C0
01C0
01C0
01C0
01C0
ENDCHAR
STARTCHAR uni04AF
ENCODING -1
SWIDTH 600 0
DWIDTH 17 0
BBX 15 22 1 -7
BITMAP
E00E
600C
701C
701C
3018
3838
1830
1870
1C60
0CE0
0CE0
06C0
07C0
0780
0380
0300
0300
0300
0300
0300
0300
0300
ENDCHAR
STARTCHAR uni04B0
ENCODING -1
SWIDTH 600 0
DWIDTH 17 0
BBX 16 20 0 0
BITMAP
E007
700E
700E
381C
181C
1C18
0C38
0E30
0670
0760
03C0
01C0
01C0
1FFC
1FFC
01C0
01C0
01C0
01C0
01C0
ENDCHAR
STARTCHAR uni04B1
ENCODING -1
SWIDTH 600 0
DWIDTH 17 0
BBX 15 22 1 -7
BITMAP
E00E
600C
701C
7018
3038
3838
1830
1870
1C60
0CE0
0CC0
06C0
07C0
0780
0380
3FF0
3FF0
0300
0300
0300
0300
0300
ENDCHAR
STARTCHAR uni04B2
ENCODING -1
SWIDTH 600 0
DWIDTH 17 0
BBX 16 25 1 -5
BITMAP
E00E
701C
3018
3838
1C30
1C70
0EE0
06C0
07C0
0380
03C0
06C0
0EE0
0C60
1C70
1838
3818
701C
600F
E00F
0003
0003
0003
0003
0003
ENDCHAR
STARTCHAR uni04B3
ENCODING -1
SWIDTH 600 0
DWIDTH 17 0
BBX 15 20 1 -5
BITMAP
E01C
7038
3870
1860
1CE0
0FC0
0780
0780
0780
0FC0
1CE0
1870
3830
703E
E01E
0006
0006
0006
0006
0006
ENDCHAR
STARTCHAR uni04B4
ENCODING -1
SWIDTH 600 0
DWIDTH 17 0
BBX 16 25 1 -5
BITMAP
FF9C
FF9C
1C1C
1C1C
1C1C
1C1C
1C1C
1C1C
1C1C
1C1C
1C1C
1C1C
1C1C
1C1C
1C1C
1C1C
1C1C
1C1C
1FFF
1FFF
0003
0003
0003
0003
0003
ENDCHAR
STARTCHAR uni04B5
ENCODING -1
SWIDTH 600 0
DWIDTH 17 0
BBX 16 20 0 -5
BITMAP
FF8C
FF8C
180C
180C
180C
180C
180C
180C
180C
180C
180C
180C
180C
1FFF
1FFF
0003
0003
0003
0003
0003
ENDCHAR
STARTCHAR uni04B6
ENCODING -1
SWIDTH 600 0
DWIDTH 17 0
BBX 15 25 2 -5
BITMAP
E038
E038
E038
E038
E038
E038
E038
E038
E038
E038
70F8
7FF8
1FB8
0038
0038
0038
0038
0038
003E
003E
0006
0006
0006
0006
0006
ENDCHAR
STARTCHAR uni04B7
ENCODING -1
SWIDTH 600 0
DWIDTH 17 0
BBX 14 20 2 -5
BITMAP
C030
C030
C030
C030
C030
C030
E030
F0F0
7FF0
3F30
0030
0030
0030
003C
003C
000C
000C
000C
000C
000C
ENDCHAR
STARTCHAR uni04B8
ENCODING -1
SWIDTH 600 0
DWIDTH 17 0
BBX 13 20 2 0
BITMAP
E038
E038
E038
E038
E038
E038
E338
E338
E338
E338
7378
7FF8
1FB8
0338
0338
0338
0338
0038
0038
0038
ENDCHAR
STARTCHAR uni04B9
ENCODING -1
SWIDTH 600 0
DWIDTH 17 0
BBX 13 15 2 0
BITMAP
C018
C018
C018
C018
C318
C318
E338
F378
7FD8
1F98
0318
0318
0318
0018
0018
ENDCHAR
STARTCHAR uni04BA
ENCODING -1
SWIDTH 600 0
DWIDTH 17 0
BBX 13 20 2 0
BITMAP
E000
E000
E000
E000
E000
E000
E000
E7C0
FFF0
F870
E038
E038
E038
E038
E038
E038
E038
E038
E038
E038
ENDCHAR
STARTCHAR uni04BB
ENCODING -1
SWIDTH 600 0
DWIDTH 17 0
BBX 13 15 2 0
BITMAP
C000
C000
C000
C000
C000
C7E0
DFF0
F878
E038
C018
C018
C018
C018
C018
C018
ENDCHAR
STARTCHAR uni04BC
ENCODING -1
SWIDTH 600 0
DWIDTH 17 0
BBX 16 20 0 0
BITMAP
00F8
03FC
039E
070E
0606
0E07
EE07
CE07
EE07
FFFF
7FFF
0E00
0E00
0E00
0E00
0700
0700
03C6
03FE
00FC
ENDCHAR
STARTCHAR uni04BD
ENCODING -1
SWIDTH 600 0
DWIDTH 17 0
BBX 16 15 -1 0
BITMAP
00F8
03FC
070E
C606
CE07
CE07
FFFF
7FFF
0E00
0E00
0E00
0700
0786
03FE
00FC
ENDCHAR
STARTCHAR uni04BE
ENCODING -1
SWIDTH 600 0
DWIDTH 17 0
BBX 16 25 0 -5
BITMAP
00F8
03FC
039E
070E
0606
0E07
EE07
CE07
EE07
FFFF
7FFF
0E00
0E00
0E00
0E00
0700
0700
03C6
01FE
00FC
0060
0060
0060
0060
0060
ENDCHAR
STARTCHAR uni04BF
ENCODING -1
SWIDTH 600 0
DWIDTH 17 0
BBX 16 20 -1 -5
BITMAP
00F8
03FC
070E
C606
CE07
CE07
FFFF
7FFF
0E00
0E00
0E00
0700
0786
03FE
00FC
0060
0060
0060
0060
0060
ENDCHAR
STARTCHAR uni04C0
ENCODING -1
SWIDTH 600 0
DWIDTH 17 0
BBX 11 20 3 0
BITMAP
FFE0
FFE0
0E00
0E00
0E00
0E00
0E00
0E00
0E00
0E00
0E00
0E00
0E00
0E00
0E00
0E00
0E00
0E00
FFE0
FFE0
ENDCHAR
STARTCHAR uni04C1
ENCODING -1
SWIDTH 600 0
DWIDTH 17 0
BBX 17 26 0 0
BITMAP
0C0C00
0E1C00
07F800
03F000
000000
000000
C1C180
61C300
61C700
31C600
31CE00
19CC00
19DC00
0DD800
0DF000
07F000
0FF000
0DF800
1DD800
19DC00
39CC00
31CE00
71C600
61C700
E1C300
C1C380
ENDCHAR
STARTCHAR uni04C2
ENCODING -1
SWIDTH 600 0
DWIDTH 17 0
BBX 17 21 0 0
BITMAP
0C0C00
0E1C00
07F800
03F000
000000
000000
E18380
618300
718600
398E00
199C00
0D9800
0FB000
07F000
0DB800
1D9800
198C00
398E00
718600
618300
E18380
ENDCHAR
STARTCHAR uni04C3
ENCODING -1
SWIDTH 600 0
DWIDTH 17 0
BBX 13 27 2 -7
BITMAP
E038
E070
E0E0
E1C0
E180
E300
E700
EE00
FC00
FF00
FFC0
E1E0
E070
E070
E038
E038
E038
E038
E038
E038
0038
0038
0070
0070
21E0
3FC0
3F80
ENDCHAR
STARTCHAR uni04C4
ENCODING -1
SWIDTH 600 0
DWIDTH 17 0
BBX 12 22 3 -7
BITMAP
C070
C0E0
C1C0
C380
C700
CE00
DC00
FF00
FFC0
C1E0
C0E0
C070
C070
C070
C070
0070
0070
0070
00E0
11E0
1FC0
0F00
ENDCHAR
STARTCHAR uni04C5
ENCODING -1
SWIDTH 600 0
DWIDTH 17 0
BBX 17 25 0 -5
BITMAP
03FC00
03FC00
031C00
031C00
071C00
071C00
071C00
061C00
061C00
061C00
061C00
0E1C00
0E1C00
0C1C00
0C1C00
0C1C00
1C1C00
181C00
F81F80
F01F80
000300
000300
000700
000600
000600
ENDCHAR
STARTCHAR uni04C6
ENCODING -1
SWIDTH 600 0
DWIDTH 17 0
BBX 16 20 0 -5
BITMAP
07FC
07FC
060C
060C
060C
0E0C
0E0C
0C0C
0C0C
0C0C
1C0C
180C
380C
F00F
E00F
0006
0006
0006
000C
000C
ENDCHAR
STARTCHAR uni04C7
ENCODING -1
SWIDTH 600 0
DWIDTH 17 0
BBX 13 27 2 -7
BITMAP
E038
E038
E038
E038
E038
E038
E038
E038
FFF8
FFF8
E038
E038
E038
E038
E038
E038
E038
E038
E038
E038
0038
0038
0030
0070
11E0
1FC0
1F80
ENDCHAR
STARTCHAR uni04C8
ENCODING -1
SWIDTH 600 0
DWIDTH 17 0
BBX 13 22 2 -7
BITMAP
C018
C018
C018
C018
C018
C018
FFF8
FFF8
C018
C018
C018
C018
C018
C018
C038
0038
0038
0038
0030
0870
0FE0
07C0
ENDCHAR
STARTCHAR uni04C9
ENCODING -1
SWIDTH 600 0
DWIDTH 17 0
BBX 15 25 2 -5
BITMAP
E070
E070
E070
E070
E070
E070
E070
E070
FFF0
FFF0
E070
E070
E070
E070
E070
E070
E070
E070
E07E
E07E
000C
000C
001C
0018
0018
ENDCHAR
STARTCHAR uni04CA
ENCODING -1
SWIDTH 600 0
DWIDTH 17 0
BBX 14 20 2 -5
BITMAP
C030
C030
C030
C030
C030
C030
FFF0
FFF0
C030
C030
C030
C030
C030
C03C
C03C
0018
0018
0018
0030
0030
ENDCHAR
STARTCHAR uni04CB
ENCODING -1
SWIDTH 600 0
DWIDTH 17 0
BBX 13 25 2 -5
BITMAP
E038
E038
E038
E038
E038
E038
E038
E038
E038
E038
F078
7FF8
3FB8
0038
0038
0038
0038
0038
00F8
00F8
00C0
00C0
00C0
00C0
00C0
ENDCHAR
STARTCHAR uni04CC
ENCODING -1
SWIDTH 600 0
DWIDTH 17 0
BBX 13 20 2 -5
BITMAP
C018
C018
C018
C018
C018
C018
E038
E0F8
7FD8
3F18
0018
0018
0018
0078
0078
0060
0060
0060
0060
0060
ENDCHAR
STARTCHAR uni04CD
ENCODING -1
SWIDTH 600 0
DWIDTH 17 0
BBX 15 25 2 -5
BITMAP
E038
F078
F078
F078
F078
D058
D8D8
D8D8
D8D8
D8D8
C898
CD98
CD98
CD98
CD98
C518
C718
C718
C71E
C71C
000C
0008
0018
0018
0030
ENDCHAR
STARTCHAR uni04CE
ENCODING -1
SWIDTH 600 0
DWIDTH 17 0
BBX 14 20 2 -5
BITMAP
E070
E070
F0F0
F0F0
F0F0
D0B0
D9B0
D9B0
D9B0
C930
CF30
CF30
CF30
C63C
C63C
0008
0018
0018
0030
0030
ENDCHAR
STARTCHAR uni04CF
ENCODING -1
SWIDTH 600 0
DWIDTH 17 0
BBX 11 20 3 0
BITMAP
FFE0
FFE0
0E00
0E00
0E00
0E00
0E00
0E00
0E00
0E00
0E00
0E00
0E00
0E00
0E00
0E00
0E00
0E00
FFE0
FFE0
ENDCHAR
STARTCHAR uni04D0
ENCODING -1
SWIDTH 600 0
DWIDTH 17 0
BBX 17 26 0 0
BITMAP
0C0C00
0E1C00
07F800
03F000
000000
000000
01C000
01C000
03E000
036000
036000
077000
063000
0E3800
0E3800
0C1800
1C1C00
1C1C00
1FFC00
3FFE00
380E00
300600
700700
700700
600300
E00380
ENDCHAR
STARTCHAR uni04D1
ENCODING -1
SWIDTH 600 0
DWIDTH 17 0
BBX 12 21 2 0
BITMAP
3030
3870
1FE0
0FC0
0000
0000
1F80
7FE0
30F0
0070
0070
0030
0FF0
7FF0
7030
E070
E070
E070
E0F0
7FB0
3E30
ENDCHAR
STARTCHAR uni04D2
ENCODING -1
SWIDTH 600 0
DWIDTH 17 0
BBX 17 26 0 0
BITMAP
061800
073800
061800
000000
000000
000000
01C000
01C000
03E000
036000
036000
077000
063000
0E3800
0E3800
0C1800
1C1C00
1C1C00
1FFC00
3FFE00
380E00
300600
700700
700700
600300
E00380
ENDCHAR
STARTCHAR uni04D3
ENCODING -1
SWIDTH 600 0
DWIDTH 17 0
BBX 12 21 2 0
BITMAP
1860
1CE0
1860
0000
0000
0000
1F80
7FE0
30F0
0070
0070
0030
0FF0
7FF0
7030
E070
E070
E070
E0F0
7FB0
3E30
ENDCHAR
STARTCHAR uni04D4
ENCODING -1
SWIDTH 600 0
DWIDTH 17 0
BBX 16 20 0 0
BITMAP
0FFF
0FFF
1DC0
19C0
19C0
19C0
19C0
39C0
31FE
31FE
31C0
31C0
7FC0
7FC0
61C0
61C0
61C0
E1C0
E1FF
C1FF
ENDCHAR
STARTCHAR uni04D5
ENCODING -1
SWIDTH 600 0
DWIDTH 17 0
BBX 15 15 1 0
BITMAP
3C78
7EFC
67CC
038E
038E
0386
3FFE
7FFE
E300
E380
C380
E380
E6C6
7CFE
387C
ENDCHAR
STARTCHAR uni04D6
ENCODING -1
SWIDTH 600 0
DWIDTH 17 0
BBX 12 26 3 0
BITMAP
6060
70E0
3FC0
1F80
0000
0000
FFF0
FFF0
E000
E000
E000
E000
E000
E000
FFE0
FFE0
E000
E000
E000
E000
E000
E000
E000
E000
FFF0
FFF0
ENDCHAR
STARTCHAR uni04D7
ENCODING -1
SWIDTH 600 0
DWIDTH 17 0
BBX 13 21 2 0
BITMAP
3030
3870
1FE0
0FC0
0000
0000
0F80
3FE0
7870
6030
E038
E038
FFF8
FFF8
E000
E000
E000
7000
7830
3FF0
0FE0
ENDCHAR
STARTCHAR uni04D8
ENCODING -1
SWIDTH 600 0
DWIDTH 17 0
BBX 15 20 1 0
BITMAP
3FC0
7FF0
70F8
0038
001C
000C
000E
000E
000E
FFFE
FFFE
E00E
E00E
E00E
E00C
601C
703C
3CF8
1FF0
0FC0
ENDCHAR
STARTCHAR uni04D9
ENCODING -1
SWIDTH 600 0
DWIDTH 17 0
BBX 13 15 2 0
BITMAP
3F80
7FE0
60F0
0070
0038
0038
0038
FFF8
FFF8
E038
E038
6030
70F0
3FE0
0F80
ENDCHAR
STARTCHAR uni04DA
ENCODING -1
SWIDTH 600 0
DWIDTH 17 0
BBX 15 26 1 0
BITMAP
0C30
0E70
0C30
0000
0000
0000
3FC0
7FF0
70F8
0038
001C
000C
000E
000E
000E
FFFE
FFFE
E00E
E00E
E00E
E00C
601C
703C
3CF8
1FF0
0FC0
ENDCHAR
STARTCHAR uni04DB
ENCODING -1
SWIDTH 600 0
DWIDTH 17 0
BBX 13 21 2 0
BITMAP
1860
1CE0
1860
0000
0000
0000
3F80
7FE0
60F0
0070
0038
0038
0038
FFF8
FFF8
E038
E038
6030
70F0
3FE0
0F80
ENDCHAR
STARTCHAR uni04DC
ENCODING -1
SWIDTH 600 0
DWIDTH 17 0
BBX 17 26 0 0
BITMAP
061800
073800
061800
000000
000000
000000
C1C180
61C300
61C700
31C600
31CE00
19CC00
19DC00
0DD800
0DF000
07F000
0FF000
0DF800
1DD800
19DC00
39CC00
31CE00
71C600
61C700
E1C300
C1C380
ENDCHAR
STARTCHAR uni04DD
ENCODING -1
SWIDTH 600 0
DWIDTH 17 0
BBX 17 21 0 0
BITMAP
061800
073800
061800
000000
000000
000000
E18380
618300
718600
398E00
199C00
0D9800
0FB000
07F000
0DB800
1D9800
198C00
398E00
718600
618300
E18380
ENDCHAR
STARTCHAR uni04DE
ENCODING -1
SWIDTH 600 0
DWIDTH 17 0
BBX 13 26 2 0
BITMAP
1860
1CE0
1860
0000
0000
0000
1FC0
7FE0
F0F0
4038
0038
0038
0038
0070
00E0
3F80
3FC0
00F0
0038
0038
0038
0038
0038
E0F0
FFE0
7F80
ENDCHAR
STARTCHAR uni04DF
ENCODING -1
SWIDTH 600 0
DWIDTH 17 0
BBX 11 21 3 0
BITMAP
30C0
39C0
30C0
0000
0000
0000
7F80
FFC0
41E0
00E0
00E0
00C0
1F80
1FC0
01C0
00E0
0060
00E0
C1E0
FFC0
7F00
ENDCHAR
STARTCHAR uni04E0
ENCODING -1
SWIDTH 600 0
DWIDTH 17 0
BBX 13 20 2 0
BITMAP
7FF0
7FF0
0060
00C0
0180
0300
0600
0C00
1F80
1FE0
00F0
0038
0038
0038
0038
0038
0070
E0F0
FFE0
7F80
ENDCHAR
STARTCHAR uni04E1
ENCODING -1
SWIDTH 600 0
DWIDTH 17 0
BBX 13 22 2 -7
BITMAP
FFF0
FFF0
0070
00E0
01C0
0380
0700
0E00
0C00
1F00
1FE0
00F0
0070
0038
0038
0018
0038
0038
0070
C0F0
FFC0
7F80
ENDCHAR
STARTCHAR uni04E2
ENCODING -1
SWIDTH 600 0
DWIDTH 17 0
BBX 14 24 2 0
BITMAP
1FF0
1FF0
0000
0000
C01C
C03C
C03C
C07C
C06C
C0EC
C0CC
C1CC
C18C
C38C
C70C
C60C
CE0C
CC0C
DC0C
D80C
F80C
F00C
F00C
E00C
ENDCHAR
STARTCHAR uni04E3
ENCODING -1
SWIDTH 600 0
DWIDTH 17 0
BBX 13 19 2 0
BITMAP
3FE0
3FE0
0000
0000
C078
C078
C0F8
C0D8
C1D8
C398
C318
C718
C618
CE18
DC18
D818
F818
F018
F018
ENDCHAR
STARTCHAR uni04E4
ENCODING -1
SWIDTH 600 0
DWIDTH 17 0
BBX 14 26 2 0
BITMAP
1860
1CE0
1860
0000
0000
0000
C01C
C03C
C03C
C07C
C06C
C0EC
C0CC
C1CC
C18C
C38C
C70C
C60C
CE0C
CC0C
DC0C
D80C
F80C
F00C
F00C
E00C
ENDCHAR
STARTCHAR uni04E5
ENCODING -1
SWIDTH 600 0
DWIDTH 17 0
BBX 13 21 2 0
BITMAP
1860
1CE0
1860
0000
0000
0000
C078
C078
C0F8
C0D8
C1D8
C398
C318
C718
C618
CE18
DC18
D818
F818
F018
F018
ENDCHAR
STARTCHAR uni04E6
ENCODING -1
SWIDTH 600 0
DWIDTH 17 0
BBX 15 26 1 0
BITMAP
0C30
0E70
0C30
0000
0000
0000
07C0
1FF0
3C78
701C
701C
E00C
E00E
E00E
E00E
E00E
E00E
E00E
E00E
E00E
600C
701C
701C
3C78
1FF0
0FC0
ENDCHAR
STARTCHAR uni04E7
ENCODING -1
SWIDTH 600 0
DWIDTH 17 0
BBX 13 21 2 0
BITMAP
1860
1CE0
1860
0000
0000
0000
0F80
3FE0
78F0
6070
E038
E038
E038
E038
E038
E038
E038
7070
78F0
3FE0
0F80
ENDCHAR
STARTCHAR uni04E8
ENCODING -1
SWIDTH 600 0
DWIDTH 17 0
BBX 15 20 1 0
BITMAP
07C0
1FF0
3C78
701C
701C
E00C
E00E
E00E
E00E
FFFE
FFFE
E00E
E00E
E00E
600C
701C
701C
3C78
1FF0
0FC0
ENDCHAR
STARTCHAR uni04E9
ENCODING -1
SWIDTH 600 0
DWIDTH 17 0
BBX 13 15 2 0
BITMAP
0F80
3FE0
78F0
6030
E038
E038
FFF8
FFF8
E038
E038
E038
7070
78F0
3FE0
0F80
ENDCHAR
STARTCHAR uni04EA
ENCODING -1
SWIDTH 600 0
DWIDTH 17 0
BBX 15 26 1 0
BITMAP
0C30
0E70
0C30
0000
0000
0000
07C0
1FF0
3C78
701C
701C
E00C
E00E
E00E
E00E
FFFE
FFFE
E00E
E00E
E00E
600C
701C
701C
3C78
1FF0
0FC0
ENDCHAR
STARTCHAR uni04EB
ENCODING -1
SWIDTH 600 0
DWIDTH 17 0
BBX 13 21 2 0
BITMAP
1860
1CE0
1860
0000
0000
0000
0F80
3FE0
78F0
6030
E038
E038
FFF8
FFF8
E038
E038
E038
7070
78F0
3FE0
0F80
ENDCHAR
STARTCHAR uni04EC
ENCODING -1
SWIDTH 600 0
DWIDTH 17 0
BBX 14 26 1 0
BITMAP
30C0
39C0
30C0
0000
0000
0000
7F00
FFC0
E1F0
0070
0038
0018
001C
001C
1FFC
1FFC
001C
001C
001C
001C
0038
0038
0070
C3E0
FFC0
7F00
ENDCHAR
STARTCHAR uni04ED
ENCODING -1
SWIDTH 600 0
DWIDTH 17 0
BBX 12 21 3 0
BITMAP
6180
7380
6180
0000
0000
0000
7F00
FFC0
41E0
00E0
0070
0070
3FF0
3FF0
0070
0070
0070
00E0
C1E0
FFC0
7F00
ENDCHAR
STARTCHAR uni04EE
ENCODING -1
SWIDTH 600 0
DWIDTH 17 0
BBX 17 24 0 0
BITMAP
0FF800
0FF800
000000
000000
E00380
700300
700700
380600
380E00
1C0E00
1C1C00
0E1C00
0E1800
073800
073000
03F000
01E000
01E000
00C000
01C000
018000
478000
7F0000
7C0000
ENDCHAR
STARTCHAR uni04EF
ENCODING -1
SWIDTH 600 0
DWIDTH 17 0
BBX 15 26 1 -7
BITMAP
1FF0
1FF0
0000
0000
E00E
600C
701C
701C
3018
3838
1830
1C70
0C70
0E60
0EE0
06C0
06C0
03C0
0380
0380
0300
0700
0700
0E00
FC00
F800
ENDCHAR
STARTCHAR uni04F0
ENCODING -1
SWIDTH 600 0
DWIDTH 17 0
BBX 17 26 0 0
BITMAP
061800
073800
061800
000000
000000
000000
E00380
700300
700700
380600
380E00
1C0E00
1C1C00
0E1C00
0E1800
073800
073000
03F000
01E000
01E000
00C000
01C000
018000
478000
7F0000
7C0000
ENDCHAR
STARTCHAR uni04F1
ENCODING -1
SWIDTH 600 0
DWIDTH 17 0
BBX 15 28 1 -7
BITMAP
0C30
0E70
0C30
0000
0000
0000
E00E
600C
701C
701C
3018
3838
1830
1C70
0C70
0E60
0EE0
06C0
06C0
03C0
0380
0380
0300
0700
0700
0E00
FC00
F800
ENDCHAR
STARTCHAR uni04F2
ENCODING -1
SWIDTH 600 0
DWIDTH 17 0
BBX 17 26 0 0
BITMAP
01CE00
039C00
031800
063000
000000
000000
E00380
700300
700700
380600
380E00
1C0E00
1C1C00
0E1C00
0E1800
073800
073000
03F000
01E000
01E000
00C000
01C000
018000
478000
7F0000
7C0000
ENDCHAR
STARTCHAR uni04F3
ENCODING -1
SWIDTH 600 0
DWIDTH 17 0
BBX 15 28 1 -7
BITMAP
039C
0738
0630
0C60
0000
0000
E00E
600C
701C
701C
3018
3838
1830
1C70
0C70
0E60
0EE0
06C0
06C0
03C0
0380
0380
0300
0700
0700
0E00
FC00
F800
ENDCHAR
STARTCHAR uni04F4
ENCODING -1
SWIDTH 600 0
DWIDTH 17 0
BBX 13 26 2 0
BITMAP
1860
1CE0
1860
0000
0000
0000
E038
E038
E038
E038
E038
E038
E038
E038
E038
E038
F0F8
7FF8
3F38
0038
0038
0038
0038
0038
0038
0038
ENDCHAR
STARTCHAR uni04F5
ENCODING -1
SWIDTH 600 0
DWIDTH 17 0
BBX 13 21 2 0
BITMAP
1860
1CE0
1860
0000
0000
0000
C018
C018
C018
C018
C018
C018
E038
F0F8
7FD8
3F18
0018
0018
0018
0018
0018
ENDCHAR
STARTCHAR uni04F6
ENCODING -1
SWIDTH 600 0
DWIDTH 17 0
BBX 12 25 4 -5
BITMAP
FFF0
FFF0
E000
E000
E000
E000
E000
E000
E000
E000
E000
E000
E000
E000
E000
E000
E000
E000
F800
F800
1800
1800
1800
1800
1800
ENDCHAR
STARTCHAR uni04F7
ENCODING -1
SWIDTH 600 0
DWIDTH 17 0
BBX 10 20 4 -5
BITMAP
FFC0
FFC0
C000
C000
C000
C000
C000
C000
C000
C000
C000
C000
C000
F000
F000
3000
3000
3000
3000
3000
ENDCHAR
STARTCHAR uni04F8
ENCODING -1
SWIDTH 600 0
DWIDTH 17 0
BBX 15 26 1 0
BITMAP
0C30
0E70
0C30
0000
0000
0000
E006
E006
E006
E006
E006
E006
E006
E006
FE06
FF86
E3C6
E0E6
E0E6
E066
E066
E0E6
E0E6
E3C6
FF86
FE06
ENDCHAR
STARTCHAR uni04F9
ENCODING -1
SWIDTH 600 0
DWIDTH 17 0
BBX 13 21 2 0
BITMAP
1860
1CE0
1860
0000
0000
0000
C018
C018
C018
C018
C018
C018
FE18
FF18
C398
C198
C198
C198
C398
FF18
FC18
ENDCHAR
STARTCHAR uni04FA
ENCODING -1
SWIDTH 600 0
DWIDTH 17 0
BBX 14 26 2 -6
BITMAP
3FFC
3FFC
3800
3800
3800
3800
3800
3800
3800
FFC0
FFC0
3800
3800
3800
3800
3800
3800
3800
3E00
3E00
0600
0600
0600
0E00
3E00
3C00
ENDCHAR
STARTCHAR uni04FB
ENCODING -1
SWIDTH 600 0
DWIDTH 17 0
BBX 12 21 2 -6
BITMAP
3FF0
3FF0
3000
3000
3000
3000
3000
FF00
FF00
3000
3000
3000
3000
3C00
3C00
0C00
0C00
0C00
0C00
7C00
7800
ENDCHAR
STARTCHAR uni04FC
ENCODING -1
SWIDTH 600 0
DWIDTH 17 0
BBX 16 26 1 -6
BITMAP
E00E
701C
3018
3838
1830
1C70
0EE0
06C0
07C0
0380
0380
07C0
0EE0
0CE0
1C70
1830
3838
701C
601F
E00F
0003
0003
0003
0003
001F
001E
ENDCHAR
STARTCHAR uni04FD
ENCODING -1
SWIDTH 600 0
DWIDTH 17 0
BBX 15 21 1 -6
BITMAP
700C
701C
3838
1C70
0EE0
06C0
07C0
0380
07C0
0EE0
1C70
1C70
3838
701E
E00E
0006
0006
0006
0006
003E
003C
ENDCHAR
STARTCHAR uni04FE
ENCODING -1
SWIDTH 600 0
DWIDTH 17 0
BBX 15 20 1 0
BITMAP
E00E
700C
701C
3838
1C70
0C60
0EE0
07C0
7FFC
7FFC
07C0
06C0
0EE0
0C60
1870
3838
3038
701C
600C
E00E
ENDCHAR
STARTCHAR uni04FF
ENCODING -1
SWIDTH 600 0
DWIDTH 17 0
BBX 14 15 1 0
BITMAP
E01C
7038
3870
1CE0
0CC0
0780
7FF8
7FF8
0F80
0CC0
1CE0
3870
3030
7038
E01C
ENDCHAR
STARTCHAR uni0500
ENCODING -1
SWIDTH 600 0
DWIDTH 17 0
BBX 12 20 2 0
BITMAP
0070
0070
0070
0070
0070
0070
0070
0070
0FF0
3FF0
7870
E070
E070
E070
E070
E070
E070
7870
3FF0
0FF0
ENDCHAR
STARTCHAR uni0501
ENCODING -1
SWIDTH 600 0
DWIDTH 17 0
BBX 13 21 2 0
BITMAP
0018
0018
0018
0018
0018
0018
0F18
3FD8
78F8
6038
E038
E038
E038
E018
E038
E038
E038
6038
7878
3FD8
1F18
ENDCHAR
STARTCHAR uni0502
ENCODING -1
SWIDTH 600 0
DWIDTH 17 0
BBX 15 20 1 0
BITMAP
0180
0180
0180
0180
0180
0180
0180
0180
1F86
3F86
7186
E186
E186
E186
E186
E186
E1CE
73CE
7FFC
3C78
ENDCHAR
STARTCHAR uni0503
ENCODING -1
SWIDTH 600 0
DWIDTH 17 0
BBX 15 21 1 0
BITMAP
0180
0180
0180
0180
0180
0180
3D80
7F80
7380
E380
E180
E186
E186
C186
C186
E186
E18E
E1CE
73CE
7EFC
3C78
ENDCHAR
STARTCHAR uni0504
ENCODING -1
SWIDTH 600 0
DWIDTH 17 0
BBX 15 20 0 0
BITMAP
3E00
FF00
4380
0180
0180
0180
0180
0180
0300
3E06
3F06
0386
0186
0186
0186
0186
01CE
01CE
00FC
0078
ENDCHAR
STARTCHAR uni0505
ENCODING -1
SWIDTH 600 0
DWIDTH 17 0
BBX 14 15 1 0
BITMAP
7E00
FF00
4300
0300
0300
070C
3C0C
3E0C
070C
030C
039C
039C
039C
01F8
00F0
ENDCHAR
STARTCHAR uni0506
ENCODING -1
SWIDTH 600 0
DWIDTH 17 0
BBX 15 25 1 -5
BITMAP
1F80
7FE0
F0E0
4070
0070
0070
0070
0060
01C0
3F00
3FC0
00F0
0030
0038
0038
0038
0038
0038
003E
003E
0006
0006
0006
0006
0006
ENDCHAR
STARTCHAR uni0507
ENCODING -1
SWIDTH 600 0
DWIDTH 17 0
BBX 14 20 1 -5
BITMAP
3F80
FFE0
60F0
0070
0070
0060
1FC0
1FC0
00E0
0070
0030
0030
0030
003C
003C
000C
000C
000C
000C
000C
ENDCHAR
STARTCHAR uni0508
ENCODING -1
SWIDTH 600 0
DWIDTH 17 0
BBX 16 20 0 0
BITMAP
1FC0
1FC0
18C0
18C0
18C0
18C0
38C0
38C0
38C3
30C3
30C3
30C3
30C3
30C3
30C3
30C3
70E7
70E7
E07E
E03C
ENDCHAR
STARTCHAR uni0509
ENCODING -1
SWIDTH 600 0
DWIDTH 17 0
BBX 16 15 0 0
BITMAP
1FC0
1FC0
18C0
18C0
18C0
38C3
38C3
38C3
30C3
30C3
30C3
30E7
70E7
E07E
C03C
ENDCHAR
STARTCHAR uni050A
ENCODING -1
SWIDTH 600 0
DWIDTH 17 0
BBX 14 20 2 0
BITMAP
C300
C300
C300
C300
C300
C300
C300
C300
FF0C
FF0C
C30C
C30C
C30C
C30C
C30C
C30C
C39C
C39C
C1F8
C0F0
ENDCHAR
STARTCHAR uni050B
ENCODING -1
SWIDTH 600 0
DWIDTH 17 0
BBX 14 15 2 0
BITMAP
C300
C300
C300
C300
C300
C30C
FF0C
FF0C
C30C
C30C
C30C
C30C
C39C
C1F8
C0F0
ENDCHAR
STARTCHAR uni050C
ENCODING -1
SWIDTH 600 0
DWIDTH 17 0
BBX 14 20 2 0
BITMAP
07E0
1FF8
3C30
3800
7000
6000
E000
E000
E000
E000
E0FC
E0FC
E01C
E01C
601C
701C
7818
3C78
1FF0
07E0
ENDCHAR
STARTCHAR uni050D
ENCODING -1
SWIDTH 600 0
DWIDTH 17 0
BBX 13 15 2 0
BITMAP
0FE0
3FF0
7820
7000
E000
E000
E000
E1F8
E1F8
E038
E038
7038
7870
3FE0
0FC0
ENDCHAR
STARTCHAR uni050E
ENCODING -1
SWIDTH 600 0
DWIDTH 17 0
BBX 16 20 0 0
BITMAP
FFFC
FFFC
0380
0380
0380
0380
0380
0380
0387
0387
0387
0387
0387
0387
0387
0387
0387
03CE
01FE
00FC
ENDCHAR
STARTCHAR uni050F
ENCODING -1
SWIDTH 600 0
DWIDTH 17 0
BBX 15 15 1 0
BITMAP
FFE0
FFE0
0C00
0C00
0C00
0C06
0C06
0C06
0C06
0C0E
0E0E
0E0E
071C
07FC
01F0
ENDCHAR
STARTCHAR uni0510
ENCODING -1
SWIDTH 600 0
DWIDTH 17 0
BBX 13 20 2 0
BITMAP
0FC0
3FF0
3878
7010
7000
7000
7000
3000
3C00
0FE0
1FE0
3800
6000
E000
E000
E000
E000
7838
3FF8
0FF0
ENDCHAR
STARTCHAR uni0511
ENCODING -1
SWIDTH 600 0
DWIDTH 17 0
BBX 11 15 3 0
BITMAP
1FC0
7FE0
E040
E000
E000
7000
3F80
3F80
7000
E000
E000
E000
F060
7FE0
1FC0
ENDCHAR
STARTCHAR uni0512
ENCODING -1
SWIDTH 600 0
DWIDTH 17 0
BBX 15 20 0 0
BITMAP
03FE
03FE
038E
030E
070E
070E
070E
070E
070E
070E
060E
0E0E
0E0E
0E0E
0E0E
0C0E
1C0E
3C0E
F80E
F00E
ENDCHAR
STARTCHAR uni0513
ENCODING -1
SWIDTH 600 0
DWIDTH 17 0
BBX 14 15 0 0
BITMAP
07FC
07FC
060C
060C
060C
0E0C
0E0C
0C0C
0C0C
0C0C
1C0C
180C
380C
F00C
E00C
ENDCHAR
STARTCHAR uni1EA0
ENCODING -1
SWIDTH 600 0
DWIDTH 17 0
BBX 17 25 0 -5
BITMAP
01C000
01C000
03E000
036000
036000
077000
063000
0E3800
0E3800
0C1800
1C1C00
1C1C00
1FFC00
3FFE00
380E00
300600
700700
700700
600300
E00380
000000
000000
01C000
01C000
01C000
ENDCHAR
STARTCHAR uni1EA1
ENCODING -1
SWIDTH 600 0
DWIDTH 17 0
BBX 12 20 2 -5
BITMAP
1F80
7FE0
30F0
0070
0070
0030
0FF0
7FF0
7030
E070
E070
E070
E0F0
7FB0
3E30
0000
0000
0700
0700
0700
ENDCHAR
STARTCHAR uni1EA2
ENCODING -1
SWIDTH 600 0
DWIDTH 17 0
BBX 17 28 0 0
BITMAP
01E000
01F000
003000
003000
00E000
00C000
000000
000000
01C000
01C000
03E000
036000
036000
077000
063000
0E3800
0E3800
0C1800
1C1C00
1C1C00
1FFC00
3FFE00
380E00
300600
700700
700700
600300
E00380
ENDCHAR
STARTCHAR uni1EA3
ENCODING -1
SWIDTH 600 0
DWIDTH 17 0
BBX 12 23 2 0
BITMAP
0780
07C0
00C0
00C0
0380
0300
0000
0000
1F80
7FE0
30F0
0070
0070
0030
0FF0
7FF0
7030
E070
E070
E070
E0F0
7FB0
3E30
ENDCHAR
STARTCHAR uni1EA4
ENCODING -1
SWIDTH 600 0
DWIDTH 17 0
BBX 17 28 0 0
BITMAP
000700
000600
01CC00
03E000
067000
0C1800
000000
000000
01C000
01C000
03E000
036000
036000
077000
063000
0E3800
0E3800
0C1800
1C1C00
1C1C00
1FFC00
3FFE00
380E00
300600
700700
700700
600300
E00380
ENDCHAR
STARTCHAR uni1EA5
ENCODING -1
SWIDTH 600 0
DWIDTH 17 0
BBX 14 23 2 0
BITMAP
001C
0018
0730
0F80
19C0
3060
0000
0000
1F80
7FE0
30F0
0070
0070
0030
0FF0
7FF0
7030
E070
E070
E070
E0F0
7FB0
3E30
ENDCHAR
STARTCHAR uni1EA6
ENCODING -1
SWIDTH 600 0
DWIDTH 17 0
BBX 17 28 0 0
BITMAP
700000
300000
19C000
03E000
063000
0C1800
000000
000000
01C000
01C000
03E000
036000
036000
077000
063000
0E3800
0E3800
0C1800
1C1C00
1C1C00
1FFC00
3FFE00
380E00
300600
700700
700700
600300
E00380
ENDCHAR
STARTCHAR uni1EA7
ENCODING -1
SWIDTH 600 0
DWIDTH 17 0
BBX 13 23 1 0
BITMAP
E000
6000
3380
07C0
0C60
1830
0000
0000
0FC0
3FF0
1878
0038
0038
0018
07F8
3FF8
3818
7038
7038
7038
7078
3FD8
1F18
ENDCHAR
STARTCHAR uni1EA8
ENCODING -1
SWIDTH 600 0
DWIDTH 17 0
BBX 17 30 0 0
BITMAP
001C00
000600
000600
000C00
01C800
03E000
067000
0C1800
000000
000000
01C000
01C000
03E000
036000
036000
077000
063000
0E3800
0E3800
0C1800
1C1C00
1C1C00
1FFC00
3FFE00
380E00
300600
700700
700700
600300
E00380
ENDCHAR
STARTCHAR uni1EA9
ENCODING -1
SWIDTH 600 0
DWIDTH 17 0
BBX 13 25 2 0
BITMAP
0070
0018
0018
0030
0720
0F80
19C0
3060
0000
0000
1F80
7FE0
30F0
0070
0070
0030
0FF0
7FF0
7030
E070
E070
E070
E0F0
7FB0
3E30
ENDCHAR
STARTCHAR uni1EAA
ENCODING -1
SWIDTH 600 0
DWIDTH 17 0
BBX 17 30 0 0
BITMAP
070800
0FF800
087000
000000
01C000
03E000
063000
0C1800
000000
000000
01C000
01C000
03E000
036000
036000
077000
063000
0E3800
0E3800
0C1800
1C1C00
1C1C00
1FFC00
3FFE00
380E00
300600
700700
700700
600300
E00380
ENDCHAR
STARTCHAR uni1EAB
ENCODING -1
SWIDTH 600 0
DWIDTH 17 0
BBX 12 25 2 0
BITMAP
1C20
3FE0
21C0
0000
0700
0F80
18C0
3060
0000
0000
1F80
7FE0
30F0
0070
0070
0030
0FF0
7FF0
7030
E070
E070
E070
E0F0
7FB0
3E30
ENDCHAR
STARTCHAR uni1EAC
ENCODING -1
SWIDTH 600 0
DWIDTH 17 0
BBX 17 31 0 -5
BITMAP
01C000
03E000
077000
0C1800
000000
000000
01C000
01C000
03E000
036000
036000
077000
063000
0E3800
0E3800
0C1800
1C1C00
1C1C00
1FFC00
3FFE00
380E00
300600
700700
700700
600300
E00380
000000
000000
01C000
01C000
01C000
ENDCHAR
STARTCHAR uni1EAD
ENCODING -1
SWIDTH 600 0
DWIDTH 17 0
BBX 12 26 2 -5
BITMAP
0700
0F80
1DC0
3060
0000
0000
1F80
7FE0
30F0
0070
0070
0030
0FF0
7FF0
7030
E070
E070
E070
E0F0
7FB0
3E30
0000
0000
0700
0700
0700
ENDCHAR
STARTCHAR uni1EAE
ENCODING -1
SWIDTH 600 0
DWIDTH 17 0
BBX 17 29 0 0
BITMAP
007000
006000
00C000
061800
061800
03F000
01E000
000000
000000
01C000
01C000
03E000
036000
036000
077000
063000
0E3800
0E3800
0C1800
1C1C00
1C1C00
1FFC00
3FFE00
380E00
300600
700700
700700
600300
E00380
ENDCHAR
STARTCHAR uni1EAF
ENCODING -1
SWIDTH 600 0
DWIDTH 17 0
BBX 12 24 2 0
BITMAP
01C0
0180
0300
1860
1860
0FC0
0780
0000
0000
1F80
7FE0
30F0
0070
0070
0030
0FF0
7FF0
7030
E070
E070
E070
E0F0
7FB0
3E30
ENDCHAR
STARTCHAR uni1EB0
ENCODING -1
SWIDTH 600 0
DWIDTH 17 0
BBX 17 29 0 0
BITMAP
038000
018000
00C000
061800
061800
03F000
01E000
000000
000000
01C000
01C000
03E000
036000
036000
077000
063000
0E3800
0E3800
0C1800
1C1C00
1C1C00
1FFC00
3FFE00
380E00
300600
700700
700700
600300
E00380
ENDCHAR
STARTCHAR uni1EB1
ENCODING -1
SWIDTH 600 0
DWIDTH 17 0
BBX 12 24 2 0
BITMAP
0E00
0600
0300
1860
1860
0FC0
0780
0000
0000
1F80
7FE0
30F0
0070
0070
0030
0FF0
7FF0
7030
E070
E070
E070
E0F0
7FB0
3E30
ENDCHAR
STARTCHAR uni1EB2
ENCODING -1
SWIDTH 600 0
DWIDTH 17 0
BBX 17 29 0 0
BITMAP
01C000
006000
006000
0C9800
0C1800
07F000
03E000
000000
000000
01C000
01C000
03E000
036000
036000
077000
063000
0E3800
0E3800
0C1800
1C1C00
1C1C00
1FFC00
3FFE00
380E00
300600
700700
700700
600300
E00380
ENDCHAR
STARTCHAR uni1EB3
ENCODING -1
SWIDTH 600 0
DWIDTH 17 0
BBX 12 24 2 0
BITMAP
0700
0180
0180
3260
3060
1FC0
0F80
0000
0000
1F80
7FE0
30F0
0070
0070
0030
0FF0
7FF0
7030
E070
E070
E070
E0F0
7FB0
3E30
ENDCHAR
STARTCHAR uni1EB4
ENCODING -1
SWIDTH 600 0
DWIDTH 17 0
BBX 17 30 0 0
BITMAP
039800
07F800
067000
000000
061800
061800
03F000
01E000
000000
000000
01C000
01C000
03E000
036000
036000
077000
063000
0E3800
0E3800
0C1800
1C1C00
1C1C00
1FFC00
3FFE00
380E00
300600
700700
700700
600300
E00380
ENDCHAR
STARTCHAR uni1EB5
ENCODING -1
SWIDTH 600 0
DWIDTH 17 0
BBX 12 25 2 0
BITMAP
0E60
1FE0
19C0
0000
1860
1860
0FC0
0780
0000
0000
1F80
7FE0
30F0
0070
0070
0030
0FF0
7FF0
7030
E070
E070
E070
E0F0
7FB0
3E30
ENDCHAR
STARTCHAR uni1EB6
ENCODING -1
SWIDTH 600 0
DWIDTH 17 0
BBX 17 31 0 -5
BITMAP
061800
061800
03F000
01E000
000000
000000
01C000
01C000
03E000
036000
036000
077000
063000
0E3800
0E3800
0C1800
1C1C00
1C1C00
1FFC00
3FFE00
380E00
300600
700700
700700
600300
E00380
000000
000000
01C000
01C000
01C000
ENDCHAR
STARTCHAR uni1EB7
ENCODING -1
SWIDTH 600 0
DWIDTH 17 0
BBX 12 26 2 -5
BITMAP
1860
1860
0FC0
0780
0000
0000
1F80
7FE0
30F0
0070
0070
0030
0FF0
7FF0
7030
E070
E070
E070
E0F0
7FB0
3E30
0000
0000
0700
0700
0700
ENDCHAR
STARTCHAR uni1EB8
ENCODING -1
SWIDTH 600 0
DWIDTH 17 0
BBX 12 25 3 -5
BITMAP
FFF0
FFF0
E000
E000
E000
E000
E000
E000
FFE0
FFE0
E000
E000
E000
E000
E000
E000
E000
E000
FFF0
FFF0
0000
0000
0700
0700
0700
ENDCHAR
STARTCHAR uni1EB9
ENCODING -1
SWIDTH 600 0
DWIDTH 17 0
BBX 13 20 2 -5
BITMAP
0F80
3FE0
7870
6030
E038
E038
FFF8
FFF8
E000
E000
E000
7000
7830
3FF0
0FE0
0000
0000
0380
0380
0380
ENDCHAR
STARTCHAR uni1EBA
ENCODING -1
SWIDTH 600 0
DWIDTH 17 0
BBX 12 28 3 0
BITMAP
0F00
0F80
0180
0180
0700
0600
0000
0000
FFF0
FFF0
E000
E000
E000
E000
E000
E000
FFE0
FFE0
E000
E000
E000
E000
E000
E000
E000
E000
FFF0
FFF0
ENDCHAR
STARTCHAR uni1EBB
ENCODING -1
SWIDTH 600 0
DWIDTH 17 0
BBX 13 23 2 0
BITMAP
0780
07C0
00C0
00C0
0380
0300
0000
0000
0F80
3FE0
7870
6030
E038
E038
FFF8
FFF8
E000
E000
E000
7000
7830
3FF0
0FE0
ENDCHAR
STARTCHAR uni1EBC
ENCODING -1
SWIDTH 600 0
DWIDTH 17 0
BBX 12 26 3 0
BITMAP
3860
3E60
67C0
61C0
0000
0000
FFF0
FFF0
E000
E000
E000
E000
E000
E000
FFE0
FFE0
E000
E000
E000
E000
E000
E000
E000
E000
FFF0
FFF0
ENDCHAR
STARTCHAR uni1EBD
ENCODING -1
SWIDTH 600 0
DWIDTH 17 0
BBX 13 21 2 0
BITMAP
1C30
1F30
33E0
30E0
0000
0000
0F80
3FE0
7870
6030
E038
E038
FFF8
FFF8
E000
E000
E000
7000
7830
3FF0
0FE0
ENDCHAR
STARTCHAR uni1EBE
ENCODING -1
SWIDTH 600 0
DWIDTH 17 0
BBX 14 28 3 0
BITMAP
001C
0018
0730
0F80
19C0
3060
0000
0000
FFF0
FFF0
E000
E000
E000
E000
E000
E000
FFE0
FFE0
E000
E000
E000
E000
E000
E000
E000
E000
FFF0
FFF0
ENDCHAR
STARTCHAR uni1EBF
ENCODING -1
SWIDTH 600 0
DWIDTH 17 0
BBX 14 23 2 0
BITMAP
001C
0018
0730
0F80
19C0
3060
0000
0000
0F80
3FE0
7870
6030
E038
E038
FFF8
FFF8
E000
E000
E000
7000
7830
3FF0
0FE0
ENDCHAR
STARTCHAR uni1EC0
ENCODING -1
SWIDTH 600 0
DWIDTH 17 0
BBX 13 28 2 0
BITMAP
E000
6000
3380
07C0
0C60
1830
0000
0000
7FF8
7FF8
7000
7000
7000
7000
7000
7000
7FF0
7FF0
7000
7000
7000
7000
7000
7000
7000
7000
7FF8
7FF8
ENDCHAR
STARTCHAR uni1EC1
ENCODING -1
SWIDTH 600 0
DWIDTH 17 0
BBX 14 23 1 0
BITMAP
E000
6000
3380
07C0
0C60
1830
0000
0000
07C0
1FF0
3C38
3018
701C
701C
7FFC
7FFC
7000
7000
7000
3800
3C18
1FF8
07F0
ENDCHAR
STARTCHAR uni1EC2
ENCODING -1
SWIDTH 600 0
DWIDTH 17 0
BBX 13 30 3 0
BITMAP
0070
0018
0018
0030
0720
0F80
19C0
3060
0000
0000
FFF0
FFF0
E000
E000
E000
E000
E000
E000
FFE0
FFE0
E000
E000
E000
E000
E000
E000
E000
E000
FFF0
FFF0
ENDCHAR
STARTCHAR uni1EC3
ENCODING -1
SWIDTH 600 0
DWIDTH 17 0
BBX 13 25 2 0
BITMAP
0070
0018
0018
0030
0720
0F80
19C0
3060
0000
0000
0F80
3FE0
7870
6030
E038
E038
FFF8
FFF8
E000
E000
E000
7000
7830
3FF0
0FE0
ENDCHAR
STARTCHAR uni1EC4
ENCODING -1
SWIDTH 600 0
DWIDTH 17 0
BBX 12 30 3 0
BITMAP
1C20
3FE0
21C0
0000
0700
0F80
18C0
3060
0000
0000
FFF0
FFF0
E000
E000
E000
E000
E000
E000
FFE0
FFE0
E000
E000
E000
E000
E000
E000
E000
E000
FFF0
FFF0
ENDCHAR
STARTCHAR uni1EC5
ENCODING -1
SWIDTH 600 0
DWIDTH 17 0
BBX 13 25 2 0
BITMAP
1C20
3FE0
21C0
0000
0700
0F80
18C0
3060
0000
0000
0F80
3FE0
7870
6030
E038
E038
FFF8
FFF8
E000
E000
E000
7000
7830
3FF0
0FE0
ENDCHAR
STARTCHAR uni1EC6
ENCODING -1
SWIDTH 600 0
DWIDTH 17 0
BBX 12 31 3 -5
BITMAP
0700
0F80
1DC0
3060
0000
0000
FFF0
FFF0
E000
E000
E000
E000
E000
E000
FFE0
FFE0
E000
E000
E000
E000
E000
E000
E000
E000
FFF0
FFF0
0000
0000
0700
0700
0700
ENDCHAR
STARTCHAR uni1EC7
ENCODING -1
SWIDTH 600 0
DWIDTH 17 0
BBX 13 26 2 -5
BITMAP
0700
0F80
1DC0
3060
0000
0000
0F80
3FE0
7870
6030
E038
E038
FFF8
FFF8
E000
E000
E000
7000
7830
3FF0
0FE0
0000
0000
0380
0380
0380
ENDCHAR
STARTCHAR uni1EC8
ENCODING -1
SWIDTH 600 0
DWIDTH 17 0
BBX 11 28 3 0
BITMAP
1E00
1F00
0300
0300
0E00
0C00
0000
0000
FFE0
FFE0
0E00
0E00
0E00
0E00
0E00
0E00
0E00
0E00
0E00
0E00
0E00
0E00
0E00
0E00
0E00
0E00
FFE0
FFE0
ENDCHAR
STARTCHAR uni1EC9
ENCODING -1
SWIDTH 600 0
DWIDTH 17 0
BBX 12 23 2 0
BITMAP
0F00
0F80
0180
0180
0700
0600
0000
0000
7E00
7E00
0600
0600
0600
0600
0600
0600
0600
0600
0600
0600
0600
FFF0
FFF0
ENDCHAR
STARTCHAR uni1ECA
ENCODING -1
SWIDTH 600 0
DWIDTH 17 0
BBX 11 25 3 -5
BITMAP
FFE0
FFE0
0E00
0E00
0E00
0E00
0E00
0E00
0E00
0E00
0E00
0E00
0E00
0E00
0E00
0E00
0E00
0E00
FFE0
FFE0
0000
0000
0E00
0E00
0E00
ENDCHAR
STARTCHAR uni1ECB
ENCODING -1
SWIDTH 600 0
DWIDTH 17 0
BBX 12 26 2 -5
BITMAP
0600
0700
0600
0000
0000
0000
7E00
7E00
0600
0600
0600
0600
0600
0600
0600
0600
0600
0600
0600
FFF0
FFF0
0000
0000
0700
0700
0700
ENDCHAR
STARTCHAR uni1ECC
ENCODING -1
SWIDTH 600 0
DWIDTH 17 0
BBX 15 25 1 -5
BITMAP
07C0
1FF0
3C78
701C
701C
E00C
E00E
E00E
E00E
E00E
E00E
E00E
E00E
E00E
600C
701C
701C
3C78
1FF0
0FC0
0000
0000
0380
0380
0380
ENDCHAR
STARTCHAR uni1ECD
ENCODING -1
SWIDTH 600 0
DWIDTH 17 0
BBX 13 20 2 -5
BITMAP
0F80
3FE0
78F0
6070
E038
E038
E038
E038
E038
E038
E038
7070
78F0
3FE0
0F80
0000
0000
0700
0700
0700
ENDCHAR
STARTCHAR uni1ECE
ENCODING -1
SWIDTH 600 0
DWIDTH 17 0
BBX 15 28 1 0
BITMAP
03C0
03E0
0060
0060
01C0
0180
0000
0000
07C0
1FF0
3C78
701C
701C
E00C
E00E
E00E
E00E
E00E
E00E
E00E
E00E
E00E
600C
701C
701C
3C78
1FF0
0FC0
ENDCHAR
STARTCHAR uni1ECF
ENCODING -1
SWIDTH 600 0
DWIDTH 17 0
BBX 13 23 2 0
BITMAP
0780
07C0
00C0
00C0
0380
0300
0000
0000
0F80
3FE0
78F0
6070
E038
E038
E038
E038
E038
E038
E038
7070
78F0
3FE0
0F80
ENDCHAR
STARTCHAR uni1ED0
ENCODING -1
SWIDTH 600 0
DWIDTH 17 0
BBX 15 28 1 0
BITMAP
000E
000C
0398
07C0
0CE0
1830
0000
0000
07C0
1FF0
3C78
701C
701C
E00C
E00E
E00E
E00E
E00E
E00E
E00E
E00E
E00E
600C
701C
701C
3C78
1FF0
0FC0
ENDCHAR
STARTCHAR uni1ED1
ENCODING -1
SWIDTH 600 0
DWIDTH 17 0
BBX 14 23 2 0
BITMAP
001C
0018
0730
0F80
19C0
3060
0000
0000
0F80
3FE0
78F0
6070
E038
E038
E038
E038
E038
E038
E038
7070
78F0
3FE0
0F80
ENDCHAR
STARTCHAR uni1ED2
ENCODING -1
SWIDTH 600 0
DWIDTH 17 0
BBX 15 28 1 0
BITMAP
E000
6000
3380
07C0
0C60
1830
0000
0000
07C0
1FF0
3C78
701C
701C
E00C
E00E
E00E
E00E
E00E
E00E
E00E
E00E
E00E
600C
701C
701C
3C78
1FF0
0FC0
ENDCHAR
STARTCHAR uni1ED3
ENCODING -1
SWIDTH 600 0
DWIDTH 17 0
BBX 14 23 1 0
BITMAP
E000
6000
3380
07C0
0C60
1830
0000
0000
07C0
1FF0
3C78
3038
701C
701C
701C
701C
701C
701C
701C
3838
3C78
1FF0
07C0
ENDCHAR
STARTCHAR uni1ED4
ENCODING -1
SWIDTH 600 0
DWIDTH 17 0
BBX 15 30 1 0
BITMAP
0038
000C
000C
0018
0390
07C0
0CE0
1830
0000
0000
07C0
1FF0
3C78
701C
701C
E00C
E00E
E00E
E00E
E00E
E00E
E00E
E00E
E00E
600C
701C
701C
3C78
1FF0
0FC0
ENDCHAR
STARTCHAR uni1ED5
ENCODING -1
SWIDTH 600 0
DWIDTH 17 0
BBX 13 25 2 0
BITMAP
0070
0018
0018
0030
0720
0F80
19C0
3060
0000
0000
0F80
3FE0
78F0
6070
E038
E038
E038
E038
E038
E038
E038
7070
78F0
3FE0
0F80
ENDCHAR
STARTCHAR uni1ED6
ENCODING -1
SWIDTH 600 0
DWIDTH 17 0
BBX 15 30 1 0
BITMAP
0E10
1FF0
10E0
0000
0380
07C0
0C60
1830
0000
0000
07C0
1FF0
3C78
701C
701C
E00C
E00E
E00E
E00E
E00E
E00E
E00E
E00E
E00E
600C
701C
701C
3C78
1FF0
0FC0
ENDCHAR
STARTCHAR uni1ED7
ENCODING -1
SWIDTH 600 0
DWIDTH 17 0
BBX 13 25 2 0
BITMAP
1C20
3FE0
21C0
0000
0700
0F80
18C0
3060
0000
0000
0F80
3FE0
78F0
6070
E038
E038
E038
E038
E038
E038
E038
7070
78F0
3FE0
0F80
ENDCHAR
STARTCHAR uni1ED8
ENCODING -1
SWIDTH 600 0
DWIDTH 17 0
BBX 15 31 1 -5
BITMAP
0380
07C0
0EE0
1830
0000
0000
07C0
1FF0
3C78
701C
701C
E00C
E00E
E00E
E00E
E00E
E00E
E00E
E00E
E00E
600C
701C
701C
3C78
1FF0
0FC0
0000
0000
0380
0380
0380
ENDCHAR
STARTCHAR uni1ED9
ENCODING -1
SWIDTH 600 0
DWIDTH 17 0
BBX 13 26 2 -5
BITMAP
0700
0F80
1DC0
3060
0000
0000
0F80
3FE0
78F0
6070
E038
E038
E038
E038
E038
E038
E038
7070
78F0
3FE0
0F80
0000
0000
0700
0700
0700
ENDCHAR
STARTCHAR uni1EDA
ENCODING -1
SWIDTH 600 0
DWIDTH 17 0
BBX 17 26 1 0
BITMAP
007000
00E000
00C000
018000
000000
000380
07C380
1FF300
3C7F00
701E00
701C00
E00C00
E00E00
E00E00
E00E00
E00E00
E00E00
E00E00
E00E00
E00E00
600C00
701C00
701C00
3C7800
1FF000
0FC000
ENDCHAR
STARTCHAR uni1EDB
ENCODING -1
SWIDTH 600 0
DWIDTH 17 0
BBX 15 21 2 0
BITMAP
01C0
0380
0300
0600
000E
000E
0F8C
3FDC
78F8
6070
E030
E038
E038
E038
E038
E038
E038
7070
78F0
3FE0
0F80
ENDCHAR
STARTCHAR uni1EDC
ENCODING -1
SWIDTH 600 0
DWIDTH 17 0
BBX 17 26 1 0
BITMAP
0E0000
070000
030000
018000
000000
000380
07C380
1FF300
3C7F00
701E00
701C00
E00C00
E00E00
E00E00
E00E00
E00E00
E00E00
E00E00
E00E00
E00E00
600C00
701C00
701C00
3C7800
1FF000
0FC000
ENDCHAR
STARTCHAR uni1EDD
ENCODING -1
SWIDTH 600 0
DWIDTH 17 0
BBX 15 21 2 0
BITMAP
0E00
0700
0300
0180
000E
000E
0F8C
3FDC
78F8
6070
E030
E038
E038
E038
E038
E038
E038
7070
78F0
3FE0
0F80
ENDCHAR
STARTCHAR uni1EDE
ENCODING -1
SWIDTH 600 0
DWIDTH 17 0
BBX 17 28 1 0
BITMAP
03C000
03E000
006000
006000
01C000
018000
000000
000380
07C380
1FF300
3C7F00
701E00
701C00
E00C00
E00E00
E00E00
E00E00
E00E00
E00E00
E00E00
E00E00
E00E00
600C00
701C00
701C00
3C7800
1FF000
0FC000
ENDCHAR
STARTCHAR uni1EDF
ENCODING -1
SWIDTH 600 0
DWIDTH 17 0
BBX 15 23 2 0
BITMAP
0780
07C0
00C0
00C0
0380
0300
000E
000E
0F8C
3FDC
78F8
6070
E030
E038
E038
E038
E038
E038
E038
7070
78F0
3FE0
0F80
ENDCHAR
STARTCHAR uni1EE0
ENCODING -1
SWIDTH 600 0
DWIDTH 17 0
BBX 17 26 1 0
BITMAP
0E1800
0F9800
19F000
187000
000000
000380
07C380
1FF300
3C7F00
701E00
701C00
E00C00
E00E00
E00E00
E00E00
E00E00
E00E00
E00E00
E00E00
E00E00
600C00
701C00
701C00
3C7800
1FF000
0FC000
ENDCHAR
STARTCHAR uni1EE1
ENCODING -1
SWIDTH 600 0
DWIDTH 17 0
BBX 15 21 2 0
BITMAP
1C30
1F30
33E0
30E0
000E
000E
0F8C
3FDC
78F8
6070
E030
E038
E038
E038
E038
E038
E038
7070
78F0
3FE0
0F80
ENDCHAR
STARTCHAR uni1EE2
ENCODING -1
SWIDTH 600 0
DWIDTH 17 0
BBX 17 26 1 -5
BITMAP
000380
07C380
1FF300
3C7F00
701E00
701C00
E00C00
E00E00
E00E00
E00E00
E00E00
E00E00
E00E00
E00E00
E00E00
600C00
701C00
701C00
3C7800
1FF000
0FC000
000000
000000
038000
038000
038000
ENDCHAR
STARTCHAR uni1EE3
ENCODING -1
SWIDTH 600 0
DWIDTH 17 0
BBX 15 22 2 -5
BITMAP
000E
000E
0F8C
3FDC
78F8
6070
E030
E038
E038
E038
E038
E038
E038
7070
78F0
3FE0
0F80
0000
0000
0700
0700
0700
ENDCHAR
STARTCHAR uni1EE4
ENCODING -1
SWIDTH 600 0
DWIDTH 17 0
BBX 13 25 2 -5
BITMAP
E038
E038
E038
E038
E038
E038
E038
E038
E038
E038
E038
E038
E038
E038
E038
E038
7070
78F0
3FE0
1F80
0000
0000
0700
0700
0700
ENDCHAR
STARTCHAR uni1EE5
ENCODING -1
SWIDTH 600 0
DWIDTH 17 0
BBX 13 20 2 -5
BITMAP
C018
C018
C018
C018
C018
C018
C018
C018
C038
C038
E038
E038
70F8
7FD8
1F18
0000
0000
0700
0700
0700
ENDCHAR
STARTCHAR uni1EE6
ENCODING -1
SWIDTH 600 0
DWIDTH 17 0
BBX 13 28 2 0
BITMAP
0780
07C0
00C0
00C0
0380
0300
0000
0000
E038
E038
E038
E038
E038
E038
E038
E038
E038
E038
E038
E038
E038
E038
E038
E038
7070
78F0
3FE0
1F80
ENDCHAR
STARTCHAR uni1EE7
ENCODING -1
SWIDTH 600 0
DWIDTH 17 0
BBX 13 23 2 0
BITMAP
0780
07C0
00C0
00C0
0380
0300
0000
0000
C018
C018
C018
C018
C018
C018
C018
C018
C038
C038
E038
E038
70F8
7FD8
1F18
ENDCHAR
STARTCHAR uni1EE8
ENCODING -1
SWIDTH 600 0
DWIDTH 17 0
BBX 16 26 2 0
BITMAP
0380
0700
0600
0C00
0000
0007
E0E7
E0E6
E0EE
E0FC
E0F0
E0E0
E0E0
E0E0
E0E0
E0E0
E0E0
E0E0
E0E0
E0E0
E0E0
E0E0
E0E0
71C0
7FC0
1F00
ENDCHAR
STARTCHAR uni1EE9
ENCODING -1
SWIDTH 600 0
DWIDTH 17 0
BBX 16 21 2 0
BITMAP
0380
0700
0600
0C00
0007
0007
C066
C06E
C07C
C070
C060
C060
C060
C060
C0E0
C0E0
E0E0
E0E0
F1E0
7F60
3E60
ENDCHAR
STARTCHAR uni1EEA
ENCODING -1
SWIDTH 600 0
DWIDTH 17 0
BBX 16 26 2 0
BITMAP
3800
1C00
0C00
0600
0000
0007
E0E7
E0E6
E0EE
E0FC
E0F0
E0E0
E0E0
E0E0
E0E0
E0E0
E0E0
E0E0
E0E0
E0E0
E0E0
E0E0
E0E0
71C0
7FC0
1F00
ENDCHAR
STARTCHAR uni1EEB
ENCODING -1
SWIDTH 600 0
DWIDTH 17 0
BBX 16 21 2 0
BITMAP
3800
1C00
0C00
0600
0007
0007
C066
C06E
C07C
C070
C060
C060
C060
C060
C0E0
C0E0
E0E0
E0E0
F1E0
7F60
3E60
ENDCHAR
STARTCHAR uni1EEC
ENCODING -1
SWIDTH 600 0
DWIDTH 17 0
BBX 16 28 2 0
BITMAP
0F00
0F80
0180
0180
0700
0600
0000
0007
E0E7
E0E6
E0EE
E0FC
E0F0
E0E0
E0E0
E0E0
E0E0
E0E0
E0E0
E0E0
E0E0
E0E0
E0E0
E0E0
E0E0
71C0
7FC0
1F00
ENDCHAR
STARTCHAR uni1EED
ENCODING -1
SWIDTH 600 0
DWIDTH 17 0
BBX 16 23 2 0
BITMAP
0F00
0F80
0180
0180
0700
0600
0007
0007
C066
C06E
C07C
C070
C060
C060
C060
C060
C0E0
C0E0
E0E0
E0E0
F1E0
7F60
3E60
ENDCHAR
STARTCHAR uni1EEE
ENCODING -1
SWIDTH 600 0
DWIDTH 17 0
BBX 16 26 2 0
BITMAP
3860
3E60
67C0
61C0
0000
0007
E0E7
E0E6
E0EE
E0FC
E0F0
E0E0
E0E0
E0E0
E0E0
E0E0
E0E0
E0E0
E0E0
E0E0
E0E0
E0E0
E0E0
71C0
7FC0
1F00
ENDCHAR
STARTCHAR uni1EEF
ENCODING -1
SWIDTH 600 0
DWIDTH 17 0
BBX 16 21 2 0
BITMAP
3860
3E60
67C0
61C0
0007
0007
C066
C06E
C07C
C070
C060
C060
C060
C060
C0E0
C0E0
E0E0
E0E0
F1E0
7F60
3E60
ENDCHAR
STARTCHAR uni1EF0
ENCODING -1
SWIDTH 600 0
DWIDTH 17 0
BBX 16 26 2 -5
BITMAP
0007
E0E7
E0E6
E0EE
E0FC
E0F0
E0E0
E0E0
E0E0
E0E0
E0E0
E0E0
E0E0
E0E0
E0E0
E0E0
E0E0
E0E0
71C0
7FC0
1F00
0000
0000
0E00
0E00
0E00
ENDCHAR
STARTCHAR uni1EF1
ENCODING -1
SWIDTH 600 0
DWIDTH 17 0
BBX 16 22 2 -5
BITMAP
0007
0007
C066
C06E
C07C
C070
C060
C060
C060
C060
C0E0
C0E0
E0E0
E0E0
F1E0
7F60
3E60
0000
0000
0E00
0E00
0E00
ENDCHAR
STARTCHAR uni1EF4
ENCODING -1
SWIDTH 600 0
DWIDTH 17 0
BBX 16 25 0 -5
BITMAP
E007
700E
700E
381C
181C
1C38
0C38
0E70
0660
03E0
03C0
01C0
01C0
01C0
01C0
01C0
01C0
01C0
01C0
01C0
0000
0000
01C0
01C0
01C0
ENDCHAR
STARTCHAR uni1EF5
ENCODING -1
SWIDTH 600 0
DWIDTH 17 0
BBX 15 22 1 -7
BITMAP
E00E
600C
701C
701C
3018
3838
1830
1C70
0C70
0E60
0EE0
06C0
06C0
03C0
0380
0380
0300
0738
0738
0E38
FC00
F800
ENDCHAR
STARTCHAR uni1EF6
ENCODING -1
SWIDTH 600 0
DWIDTH 17 0
BBX 16 28 0 0
BITMAP
03C0
03E0
0060
0060
01C0
0180
0000
0000
E007
700E
700E
381C
181C
1C38
0C38
0E70
0660
03E0
03C0
01C0
01C0
01C0
01C0
01C0
01C0
01C0
01C0
01C0
ENDCHAR
STARTCHAR uni1EF7
ENCODING -1
SWIDTH 600 0
DWIDTH 17 0
BBX 15 30 1 -7
BITMAP
03C0
03E0
0060
0060
01C0
0180
0000
0000
E00E
600C
701C
701C
3018
3838
1830
1C70
0C70
0E60
0EE0
06C0
06C0
03C0
0380
0380
0300
0700
0700
0E00
FC00
F800
ENDCHAR
STARTCHAR uni1EF8
ENCODING -1
SWIDTH 600 0
DWIDTH 17 0
BBX 16 26 0 0
BITMAP
0E18
0F98
19F0
1870
0000
0000
E007
700E
700E
381C
181C
1C38
0C38
0E70
0660
03E0
03C0
01C0
01C0
01C0
01C0
01C0
01C0
01C0
01C0
01C0
ENDCHAR
STARTCHAR uni1EF9
ENCODING -1
SWIDTH 600 0
DWIDTH 17 0
BBX 15 28 1 -7
BITMAP
0E18
0F98
19F0
1870
0000
0000
E00E
600C
701C
701C
3018
3838
1830
1C70
0C70
0E60
0EE0
06C0
06C0
03C0
0380
0380
0300
0700
0700
0E00
FC00
F800
ENDCHAR
STARTCHAR dong
ENCODING -1
SWIDTH 600 0
DWIDTH 17 0
BBX 15 25 2 -4
BITMAP
0018
0018
07FE
07FE
0018
0018
0F18
3FD8
78F8
6038
E038
E038
E038
E018
E038
E038
E038
6038
7878
3FD8
1F18
0000
0000
7FF8
7FF8
ENDCHAR
STARTCHAR uni030F
ENCODING -1
SWIDTH 600 0
DWIDTH 17 0
BBX 10 4 3 17
BITMAP
E700
6300
3180
18C0
ENDCHAR
STARTCHAR glyph884
ENCODING -1
SWIDTH 600 0
DWIDTH 17 0
BBX 12 6 3 17
BITMAP
0070
0060
1CC0
3E00
6700
C180
ENDCHAR
STARTCHAR glyph885
ENCODING -1
SWIDTH 600 0
DWIDTH 17 0
BBX 12 6 3 17
BITMAP
E000
6000
3380
07C0
0C60
1830
ENDCHAR
STARTCHAR glyph886
ENCODING -1
SWIDTH 600 0
DWIDTH 17 0
BBX 11 8 3 17
BITMAP
01C0
0060
0060
00C0
1C80
3E00
6700
C180
ENDCHAR
STARTCHAR glyph887
ENCODING -1
SWIDTH 600 0
DWIDTH 17 0
BBX 9 8 4 17
BITMAP
7080
FF80
8700
0000
1C00
3E00
6300
C180
ENDCHAR
STARTCHAR glyph888
ENCODING -1
SWIDTH 600 0
DWIDTH 17 0
BBX 8 7 4 17
BITMAP
0E
0C
18
C3
C3
7E
3C
ENDCHAR
STARTCHAR glyph889
ENCODING -1
SWIDTH 600 0
DWIDTH 17 0
BBX 8 7 4 17
BITMAP
70
30
18
C3
C3
7E
3C
ENDCHAR
STARTCHAR glyph890
ENCODING -1
SWIDTH 600 0
DWIDTH 17 0
BBX 9 7 4 17
BITMAP
1C00
0600
0600
C980
C180
7F00
3E00
ENDCHAR
STARTCHAR glyph891
ENCODING -1
SWIDTH 600 0
DWIDTH 17 0
BBX 8 8 4 17
BITMAP
73
FF
CE
00
C3
C3
7E
3C
ENDCHAR
STARTCHAR glyph892
ENCODING -1
SWIDTH 600 0
DWIDTH 17 0
BBX 4 6 7 -6
BITMAP
C0
60
30
30
F0
E0
ENDCHAR
STARTCHAR glyph893
ENCODING -1
SWIDTH 600 0
DWIDTH 17 0
BBX 5 8 6 -6
BITMAP
18
18
18
18
18
18
F8
F0
ENDCHAR
STARTCHAR glyph894
ENCODING -1
SWIDTH 600 0
DWIDTH 17 0
BBX 5 8 6 -6
BITMAP
18
18
18
18
18
18
F8
F0
ENDCHAR
STARTCHAR uni0162
ENCODING -1
SWIDTH 600 0
DWIDTH 17 0
BBX 14 27 1 -7
BITMAP
FFFC
FFFC
0380
0380
0380
0380
0380
0380
0380
0380
0380
0380
0380
0380
0380
0380
0380
0380
0380
0380
0100
0300
0380
00C0
00C0
07C0
0780
ENDCHAR
STARTCHAR uni0163
ENCODING -1
SWIDTH 600 0
DWIDTH 17 0
BBX 12 26 2 -7
BITMAP
0400
0400
0C00
0C00
7FF0
FFF0
0C00
0C00
0C00
0C00
0C00
0C00
0C00
0C00
0C00
0E00
0E00
07F0
03F0
0100
0300
0380
00C0
00C0
07C0
0780
ENDCHAR
ENDFONT
